{
.appVersion = "1075";
classes = (
{
automatic = 1;

glyphs = (
{
glyphname = A;
layers = (
{
anchors = (
{
name = bottom;
position = "{358, 0}";
},
{
name = ogonek;
position = "{688, 10}";
},
{
name = top;
position = "{412, 705}";
}
);
background = {
anchors = (
{
name = bottom;
position = "{358, 0}";
},
{
name = ogonek;
position = "{688, 10}";
},
{
name = top;
position = "{412, 705}";
}
);
paths = (
{
closed = 1;
nodes = (
"425 577 LINE",
"387 577 LINE",
"591 0 LINE",
"747 0 LINE",
"477 705 LINE",
"348 705 LINE",
"-32 0 LINE",
"133 0 LINE"
);
},
{
closed = 1;
nodes = (
"602 154 LINE",
"551 276 LINE",
"199 276 LINE",
"128 154 LINE"
);
}
);
};
layerId = "E1B555A7-F4E1-459C-9C1A-AE952106EEF9";
paths = (
{
closed = 1;
nodes = (
"425 577 LINE",
"387 577 LINE",
"577 39 LINE SMOOTH",
"608 -48 OFFCURVE",
"746 5 OFFCURVE",
"713 91 CURVE SMOOTH",
"494 661 LINE SMOOTH",
"469 727 OFFCURVE",
"362 730 OFFCURVE",
"325 661 CURVE SMOOTH",
"21 98 LINE SMOOTH",
"-27 10 OFFCURVE",
"107 -49 OFFCURVE",
"152 39 CURVE SMOOTH"
);
},
{
closed = 1;
nodes = (
"602 154 LINE",
"551 276 LINE",
"199 276 LINE",
"128 154 LINE"
);
}
);
width = 753;
}
);
leftKerningGroup = A;
rightKerningGroup = A;
unicode = 0041;
userData = {
anchors = (
);
b = {
};
com.typemytype.robofont.layerData = {
b = {
anchors = (
);
components = (
);
contours = (
{
points = (
{
segmentType = line;
smooth = 0;
x = 403;
y = 502;
},
{
segmentType = line;
smooth = 0;
x = 703;
y = 1275;
},
{
segmentType = line;
smooth = 0;
x = 705;
y = 1275;
},
{
segmentType = line;
smooth = 0;
x = 1004;
y = 502;
}
);
},
{
points = (
{
segmentType = curve;
smooth = 1;
x = 150;
y = 0;
},
{
smooth = 0;
x = 181;
y = 0;
},
{
smooth = 0;
x = 214;
y = 15;
},
{
segmentType = curve;
smooth = 1;
x = 229;
y = 53;
},
{
segmentType = line;
smooth = 0;
x = 356;
y = 373;
},
{
segmentType = line;
smooth = 0;
x = 1051;
y = 373;
},
{
segmentType = line;
smooth = 1;
x = 1179;
y = 53;
},
{
smooth = 0;
x = 1193;
y = 17;
},
{
smooth = 0;
x = 1228;
y = 0;
},
{
segmentType = curve;
smooth = 1;
x = 1260;
y = 0;
},
{
smooth = 0;
x = 1306;
y = 0;
},
{
smooth = 0;
x = 1354;
y = 31;
},
{
segmentType = curve;
smooth = 1;
x = 1354;
y = 80;
},
{
smooth = 0;
x = 1354;
y = 87;
},
{
smooth = 0;
x = 1352;
y = 97;
},
{
segmentType = curve;
smooth = 0;
x = 1349;
y = 108;
},
{
segmentType = line;
smooth = 1;
x = 871;
y = 1288;
},
{
smooth = 0;
x = 817;
y = 1420;
},
{
smooth = 0;
x = 777;
y = 1430;
},
{
segmentType = curve;
smooth = 1;
x = 710;
y = 1430;
},
{
smooth = 0;
x = 644;
y = 1430;
},
{
smooth = 0;
x = 596;
y = 1413;
},
{
segmentType = curve;
smooth = 1;
x = 542;
y = 1280;
},
{
segmentType = line;
smooth = 1;
x = 66;
y = 108;
},
{
smooth = 0;
x = 62;
y = 97;
},
{
smooth = 0;
x = 60;
y = 87;
},
{
segmentType = curve;
smooth = 1;
x = 60;
y = 78;
},
{
smooth = 0;
x = 60;
y = 32;
},
{
smooth = 0;
x = 106;
y = 0;
}
);
}
);
lib = {
};
name = A;
unicodes = (
);
width = 1414;
};
};
components = (
);
contours = {
};
lib = {
};
name = A;
points = {
};
segmentType = line;
unicodes = (
);
width = 1445;
x = 718;
y = 1232;
};
},
{
glyphname = Aogonek;
layers = (
{
background = {
paths = (
{
closed = 1;
nodes = (
"602 154 LINE",
"551 276 LINE",
"199 276 LINE",
"128 154 LINE"
);
},
{
closed = 1;
nodes = (
"703 -113 OFFCURVE",
"685 -117 OFFCURVE",
"668 -117 CURVE SMOOTH",
"636 -117 OFFCURVE",
"615 -99 OFFCURVE",
"615 -67 CURVE SMOOTH",
"615 -30 OFFCURVE",
"649 0 OFFCURVE",
"694 0 CURVE SMOOTH",
"747 0 LINE",
"477 705 LINE",
"348 705 LINE",
"-32 0 LINE",
"133 0 LINE",
"425 577 LINE",
"387 577 LINE",
"591 0 LINE",
"612 33 LINE",
"553 11 OFFCURVE",
"514 -29 OFFCURVE",
"514 -91 CURVE SMOOTH",
"514 -153 OFFCURVE",
"563 -197 OFFCURVE",
"641 -197 CURVE SMOOTH",
"673 -197 OFFCURVE",
"705 -190 OFFCURVE",
"736 -177 CURVE",
"725 -105 LINE"
);
}
);
};
layerId = "E1B555A7-F4E1-459C-9C1A-AE952106EEF9";
paths = (
{
closed = 1;
nodes = (
"661 -197 OFFCURVE",
"691 -191 OFFCURVE",
"721 -174 CURVE SMOOTH",
"756 -154 OFFCURVE",
"745 -97 OFFCURVE",
"708 -109 CURVE SMOOTH",
"686 -116 OFFCURVE",
"675 -117 OFFCURVE",
"662 -117 CURVE SMOOTH",
"633 -117 OFFCURVE",
"612 -99 OFFCURVE",
"612 -67 CURVE SMOOTH",
"612 -30 OFFCURVE",
"646 -9 OFFCURVE",
"674 4 CURVE SMOOTH",
"705 18 OFFCURVE",
"726 53 OFFCURVE",
"709 98 CURVE SMOOTH",
"494 661 LINE SMOOTH",
"469 727 OFFCURVE",
"362 730 OFFCURVE",
"325 661 CURVE SMOOTH",
"21 98 LINE SMOOTH",
"-27 10 OFFCURVE",
"107 -49 OFFCURVE",
"152 39 CURVE SMOOTH",
"425 577 LINE",
"387 577 LINE",
"591 0 LINE",
"613 36 LINE",
"549 11 OFFCURVE",
"511 -29 OFFCURVE",
"511 -91 CURVE SMOOTH",
"511 -153 OFFCURVE",
"560 -197 OFFCURVE",
"638 -197 CURVE SMOOTH"
);
},
{
closed = 1;
nodes = (
"602 154 LINE",
"551 276 LINE",
"199 276 LINE",
"128 154 LINE"
);
}
);
width = 753;
}
);
leftKerningGroup = A;
rightKerningGroup = A;
unicode = 0104;
},
{
glyphname = Aring;
layers = (
{
background = {
paths = (
{
closed = 1;
nodes = (
"425 577 LINE",
"387 577 LINE",
"591 0 LINE",
"747 0 LINE",
"477 705 LINE",
"348 705 LINE",
"-32 0 LINE",
"133 0 LINE"
);
},
{
closed = 1;
nodes = (
"602 154 LINE",
"551 276 LINE",
"199 276 LINE",
"128 154 LINE"
);
},
{
closed = 1;
nodes = (
"480 670 OFFCURVE",
"529 717 OFFCURVE",
"529 778 CURVE SMOOTH",
"529 839 OFFCURVE",
"480 886 OFFCURVE",
"419 886 CURVE SMOOTH",
"358 886 OFFCURVE",
"309 839 OFFCURVE",
"309 778 CURVE SMOOTH",
"309 717 OFFCURVE",
"358 670 OFFCURVE",
"419 670 CURVE SMOOTH"
);
},
{
closed = 1;
nodes = (
"394 733 OFFCURVE",
"376 753 OFFCURVE",
"376 778 CURVE SMOOTH",
"376 803 OFFCURVE",
"394 823 OFFCURVE",
"419 823 CURVE SMOOTH",
"444 823 OFFCURVE",
"462 803 OFFCURVE",
"462 778 CURVE SMOOTH",
"462 753 OFFCURVE",
"444 733 OFFCURVE",
"419 733 CURVE SMOOTH"
);
}
);
};
layerId = "E1B555A7-F4E1-459C-9C1A-AE952106EEF9";
paths = (
{
closed = 1;
nodes = (
"480 670 OFFCURVE",
"529 717 OFFCURVE",
"529 778 CURVE SMOOTH",
"529 839 OFFCURVE",
"480 886 OFFCURVE",
"419 886 CURVE SMOOTH",
"358 886 OFFCURVE",
"309 839 OFFCURVE",
"309 778 CURVE SMOOTH",
"309 717 OFFCURVE",
"358 670 OFFCURVE",
"419 670 CURVE SMOOTH"
);
},
{
closed = 1;
nodes = (
"394 733 OFFCURVE",
"376 753 OFFCURVE",
"376 778 CURVE SMOOTH",
"376 803 OFFCURVE",
"394 823 OFFCURVE",
"419 823 CURVE SMOOTH",
"444 823 OFFCURVE",
"462 803 OFFCURVE",
"462 778 CURVE SMOOTH",
"462 753 OFFCURVE",
"444 733 OFFCURVE",
"419 733 CURVE SMOOTH"
);
},
{
closed = 1;
nodes = (
"425 577 LINE",
"387 577 LINE",
"577 39 LINE SMOOTH",
"608 -48 OFFCURVE",
"746 5 OFFCURVE",
"713 91 CURVE SMOOTH",
"477 705 LINE",
"348 705 LINE",
"21 98 LINE SMOOTH",
"-27 9 OFFCURVE",
"107 -49 OFFCURVE",
"152 39 CURVE SMOOTH"
);
},
{
closed = 1;
nodes = (
"602 154 LINE",
"551 276 LINE",
"199 276 LINE",
"128 154 LINE"
);
}
);
width = 753;
}
);
leftKerningGroup = A;
rightKerningGroup = A;
unicode = 00C5;
},
{
glyphname = Aringacute;
layers = (
{
background = {
paths = (
{
closed = 1;
nodes = (
"423 571 LINE",
"385 571 LINE",
"581 39 LINE SMOOTH",
"613 -48 OFFCURVE",
"753 10 OFFCURVE",
"718 98 CURVE SMOOTH",
"477 703 LINE",
"350 703 LINE",
"13 98 LINE SMOOTH",
"-36 10 OFFCURVE",
"96 -48 OFFCURVE",
"142 39 CURVE SMOOTH"
);
},
{
closed = 1;
nodes = (
"602 154 LINE",
"551 276 LINE",
"199 276 LINE",
"128 154 LINE"
);
},
{
closed = 1;
nodes = (
"472 670 OFFCURVE",
"525 717 OFFCURVE",
"530 778 CURVE SMOOTH",
"535 839 OFFCURVE",
"489 886 OFFCURVE",
"428 886 CURVE SMOOTH",
"367 886 OFFCURVE",
"315 839 OFFCURVE",
"310 778 CURVE SMOOTH",
"305 717 OFFCURVE",
"350 670 OFFCURVE",
"411 670 CURVE SMOOTH"
);
},
{
closed = 1;
nodes = (
"391 733 OFFCURVE",
"375 753 OFFCURVE",
"377 778 CURVE SMOOTH",
"379 803 OFFCURVE",
"398 823 OFFCURVE",
"423 823 CURVE SMOOTH",
"448 823 OFFCURVE",
"465 803 OFFCURVE",
"463 778 CURVE SMOOTH",
"461 753 OFFCURVE",
"441 733 OFFCURVE",
"416 733 CURVE SMOOTH"
);
},
{
closed = 1;
nodes = (
"616 839 LINE SMOOTH",
"717 867 OFFCURVE",
"663 994 OFFCURVE",
"573 936 CURVE SMOOTH",
"470 869 LINE SMOOTH",
"430 843 OFFCURVE",
"455 794 OFFCURVE",
"497 806 CURVE SMOOTH"
);
}
);
};
layerId = "E1B555A7-F4E1-459C-9C1A-AE952106EEF9";
paths = (
{
closed = 1;
nodes = (
"425 577 LINE",
"387 577 LINE",
"577 39 LINE SMOOTH",
"608 -48 OFFCURVE",
"746 5 OFFCURVE",
"713 91 CURVE SMOOTH",
"477 705 LINE",
"348 705 LINE",
"21 98 LINE SMOOTH",
"-27 9 OFFCURVE",
"107 -49 OFFCURVE",
"152 39 CURVE SMOOTH"
);
},
{
closed = 1;
nodes = (
"602 154 LINE",
"551 276 LINE",
"199 276 LINE",
"128 154 LINE"
);
},
{
closed = 1;
nodes = (
"480 670 OFFCURVE",
"529 717 OFFCURVE",
"529 778 CURVE SMOOTH",
"529 839 OFFCURVE",
"480 886 OFFCURVE",
"419 886 CURVE SMOOTH",
"358 886 OFFCURVE",
"309 839 OFFCURVE",
"309 778 CURVE SMOOTH",
"309 717 OFFCURVE",
"358 670 OFFCURVE",
"419 670 CURVE SMOOTH"
);
},
{
closed = 1;
nodes = (
"394 733 OFFCURVE",
"376 753 OFFCURVE",
"376 778 CURVE SMOOTH",
"376 803 OFFCURVE",
"394 823 OFFCURVE",
"419 823 CURVE SMOOTH",
"444 823 OFFCURVE",
"462 803 OFFCURVE",
"462 778 CURVE SMOOTH",
"462 753 OFFCURVE",
"444 733 OFFCURVE",
"419 733 CURVE SMOOTH"
);
},
{
closed = 1;
nodes = (
"616 839 LINE SMOOTH",
"717 867 OFFCURVE",
"663 994 OFFCURVE",
"573 936 CURVE SMOOTH",
"470 869 LINE SMOOTH",
"430 843 OFFCURVE",
"455 794 OFFCURVE",
"497 806 CURVE SMOOTH"
);
}
);
width = 753;
}
);
leftKerningGroup = A;
rightKerningGroup = A;
unicode = 01FA;
},
{
glyphname = AE;
layers = (
{
anchors = (
{
name = bottom;
position = "{486, 0}";
},
{
name = top;
position = "{541, 705}";
}
);
background = {
paths = (
{
closed = 1;
nodes = (
"946 0 LINE",
"956 125 LINE",
"673 125 LINE",
"602 617 LINE",
"564 580 LINE",
"991 580 LINE",
"1001 705 LINE",
"448 705 LINE",
"-52 0 LINE",
"126 0 LINE",
"508 571 LINE",
"464 571 LINE",
"546 0 LINE"
);
},
{
closed = 1;
nodes = (
"579 154 LINE",
"553 276 LINE",
"201 276 LINE",
"129 154 LINE"
);
},
{
closed = 1;
nodes = (
"949 296 LINE",
"959 421 LINE",
"581 421 LINE",
"571 296 LINE"
);
}
);
};
layerId = "E1B555A7-F4E1-459C-9C1A-AE952106EEF9";
paths = (
{
closed = 1;
nodes = (
"885 0 LINE SMOOTH",
"938 0 OFFCURVE",
"966 20 OFFCURVE",
"966 66 CURVE SMOOTH",
"966 102 OFFCURVE",
"942 125 OFFCURVE",
"895 125 CURVE SMOOTH",
"673 125 LINE",
"602 617 LINE",
"566 580 LINE",
"931 580 LINE SMOOTH",
"983 580 OFFCURVE",
"1012 601 OFFCURVE",
"1012 647 CURVE SMOOTH",
"1012 683 OFFCURVE",
"988 705 OFFCURVE",
"941 705 CURVE SMOOTH",
"510 705 LINE SMOOTH",
"472 705 OFFCURVE",
"436 689 OFFCURVE",
"416 661 CURVE SMOOTH",
"27 112 LINE SMOOTH",
"-48 9 OFFCURVE",
"85 -61 OFFCURVE",
"152 39 CURVE SMOOTH",
"508 571 LINE",
"464 571 LINE",
"539 45 LINE SMOOTH",
"543 17 OFFCURVE",
"569 0 OFFCURVE",
"606 0 CURVE SMOOTH"
);
},
{
closed = 1;
nodes = (
"579 154 LINE",
"553 276 LINE",
"201 276 LINE",
"129 154 LINE"
);
},
{
closed = 1;
nodes = (
"889 296 LINE SMOOTH",
"942 296 OFFCURVE",
"969 317 OFFCURVE",
"969 363 CURVE SMOOTH",
"969 399 OFFCURVE",
"945 421 OFFCURVE",
"898 421 CURVE SMOOTH",
"581 421 LINE",
"572 296 LINE"
);
}
);
width = 1001;
}
);
leftKerningGroup = A;
rightKerningGroup = E;
unicode = 00C6;
userData = {
com.typemytype.robofont.layerData = {
b = {
anchors = (
);
components = (
);
contours = (
);
lib = {
};
name = AE;
unicodes = (
);
width = 1976;
};
};
};
},
{
glyphname = B;
layers = (
{
anchors = (
{
name = bottom;
position = "{330, 0}";
},
{
name = top;
position = "{385, 705}";
}
);
background = {
paths = (
{
closed = 1;
nodes = (
"392 0 LINE SMOOTH",
"548 0 OFFCURVE",
"651 71 OFFCURVE",
"651 201 CURVE SMOOTH",
"651 282 OFFCURVE",
"605 349 OFFCURVE",
"522 366 CURVE",
"521 358 LINE",
"614 388 OFFCURVE",
"659 445 OFFCURVE",
"659 528 CURVE SMOOTH",
"659 631 OFFCURVE",
"581 705 OFFCURVE",
"423 705 CURVE SMOOTH",
"105 705 LINE",
"50 0 LINE"
);
},
{
closed = 1;
nodes = (
"253 582 LINE",
"396 582 LINE SMOOTH",
"472 582 OFFCURVE",
"504 554 OFFCURVE",
"504 504 CURVE SMOOTH",
"504 444 OFFCURVE",
"467 420 OFFCURVE",
"384 420 CURVE SMOOTH",
"224 420 LINE",
"214 297 LINE",
"391 297 LINE SMOOTH",
"468 297 OFFCURVE",
"501 268 OFFCURVE",
"501 212 CURVE SMOOTH",
"501 147 OFFCURVE",
"463 123 OFFCURVE",
"379 123 CURVE SMOOTH",
"217 123 LINE"
);
}
);
};
layerId = "E1B555A7-F4E1-459C-9C1A-AE952106EEF9";
paths = (
{
closed = 1;
nodes = (
"392 0 LINE SMOOTH",
"548 0 OFFCURVE",
"651 71 OFFCURVE",
"651 201 CURVE SMOOTH",
"651 282 OFFCURVE",
"605 349 OFFCURVE",
"522 366 CURVE",
"522 358 LINE",
"614 388 OFFCURVE",
"659 445 OFFCURVE",
"659 528 CURVE SMOOTH",
"659 631 OFFCURVE",
"581 705 OFFCURVE",
"423 705 CURVE SMOOTH",
"181 705 LINE SMOOTH",
"133 705 OFFCURVE",
"104 678 OFFCURVE",
"100 630 CURVE SMOOTH",
"56 75 LINE SMOOTH",
"52 27 OFFCURVE",
"77 0 OFFCURVE",
"125 0 CURVE SMOOTH"
);
},
{
closed = 1;
nodes = (
"253 582 LINE",
"396 582 LINE SMOOTH",
"472 582 OFFCURVE",
"504 554 OFFCURVE",
"504 504 CURVE SMOOTH",
"504 444 OFFCURVE",
"467 420 OFFCURVE",
"384 420 CURVE SMOOTH",
"224 420 LINE",
"215 297 LINE",
"391 297 LINE SMOOTH",
"468 297 OFFCURVE",
"501 268 OFFCURVE",
"501 212 CURVE SMOOTH",
"501 147 OFFCURVE",
"460 123 OFFCURVE",
"379 123 CURVE SMOOTH",
"217 123 LINE"
);
}
);
width = 690;
}
);
leftKerningGroup = H;
rightKerningGroup = B;
unicode = 0042;
userData = {
anchors = (
);
b = {
};
com.typemytype.robofont.layerData = {
b = {
anchors = (
);
components = (
);
contours = (
{
points = (
{
segmentType = curve;
smooth = 1;
x = 266;
y = 0;
},
{
segmentType = line;
smooth = 1;
x = 1035;
y = 0;
},
{
smooth = 0;
x = 1084;
y = 0;
},
{
smooth = 0;
x = 1108;
y = 36;
},
{
segmentType = curve;
smooth = 1;
x = 1108;
y = 73;
},
{
smooth = 0;
x = 1108;
y = 109;
},
{
smooth = 0;
x = 1084;
y = 145;
},
{
segmentType = curve;
smooth = 1;
x = 1035;
y = 145;
},
{
segmentType = line;
smooth = 0;
x = 353;
y = 145;
},
{
segmentType = line;
smooth = 0;
x = 353;
y = 662;
},
{
segmentType = line;
smooth = 1;
x = 975;
y = 662;
},
{
smooth = 0;
x = 1024;
y = 662;
},
{
smooth = 0;
x = 1049;
y = 698;
},
{
segmentType = curve;
smooth = 1;
x = 1049;
y = 734;
},
{
smooth = 0;
x = 1049;
y = 770;
},
{
smooth = 0;
x = 1026;
y = 806;
},
{
segmentType = curve;
smooth = 1;
x = 975;
y = 806;
},
{
segmentType = line;
smooth = 0;
x = 353;
y = 806;
},
{
segmentType = line;
smooth = 0;
x = 353;
y = 1281;
},
{
segmentType = line;
smooth = 1;
x = 1007;
y = 1281;
},
{
smooth = 0;
x = 1056;
y = 1281;
},
{
smooth = 0;
x = 1080;
y = 1317;
},
{
segmentType = curve;
smooth = 1;
x = 1080;
y = 1354;
},
{
smooth = 0;
x = 1080;
y = 1390;
},
{
smooth = 0;
x = 1056;
y = 1426;
},
{
segmentType = curve;
smooth = 1;
x = 1007;
y = 1426;
},
{
segmentType = line;
smooth = 1;
x = 261;
y = 1426;
},
{
smooth = 0;
x = 213;
y = 1426;
},
{
smooth = 0;
x = 178;
y = 1383;
},
{
segmentType = curve;
smooth = 1;
x = 178;
y = 1340;
},
{
segmentType = line;
smooth = 1;
x = 178;
y = 86;
},
{
smooth = 0;
x = 178;
y = 41;
},
{
smooth = 0;
x = 222;
y = 0;
}
);
}
);
lib = {
};
name = B;
unicodes = (
);
width = 1292;
};
};
components = (
);
contours = {
};
lib = {
};
name = B;
points = {
};
segmentType = curve;
unicodes = (
);
width = 1395;
x = 676;
y = 1260;
};
},
{
glyphname = C;
layers = (
{
anchors = (
{
name = bottom;
position = "{376, 0}";
},
{
name = top;
position = "{431, 705}";
}
);
background = {
paths = (
{
closed = 1;
nodes = (
"463 -9 OFFCURVE",
"540 16 OFFCURVE",
"606 62 CURVE SMOOTH",
"627 77 OFFCURVE",
"636 93 OFFCURVE",
"638 118 CURVE SMOOTH",
"641 154 OFFCURVE",
"621 183 OFFCURVE",
"592 183 CURVE SMOOTH",
"573 183 OFFCURVE",
"560 176 OFFCURVE",
"541 166 CURVE SMOOTH",
"485 136 OFFCURVE",
"444 119 OFFCURVE",
"393 119 CURVE SMOOTH",
"267 119 OFFCURVE",
"210 197 OFFCURVE",
"222 353 CURVE SMOOTH",
"234 508 OFFCURVE",
"305 586 OFFCURVE",
"431 586 CURVE SMOOTH",
"482 586 OFFCURVE",
"522 573 OFFCURVE",
"571 539 CURVE SMOOTH",
"587 528 OFFCURVE",
"599 522 OFFCURVE",
"618 522 CURVE SMOOTH",
"647 522 OFFCURVE",
"673 551 OFFCURVE",
"676 587 CURVE SMOOTH",
"678 613 OFFCURVE",
"671 628 OFFCURVE",
"652 643 CURVE SMOOTH",
"594 689 OFFCURVE",
"521 714 OFFCURVE",
"433 714 CURVE SMOOTH",
"222 714 OFFCURVE",
"76 574 OFFCURVE",
"58 353 CURVE SMOOTH",
"40 131 OFFCURVE",
"164 -9 OFFCURVE",
"375 -9 CURVE SMOOTH"
);
},
{
closed = 1;
nodes = (
"1285 -9 OFFCURVE",
"1367 22 OFFCURVE",
"1408 54 CURVE SMOOTH",
"1481 111 OFFCURVE",
"1437 211 OFFCURVE",
"1351 165 CURVE SMOOTH",
"1310 143 OFFCURVE",
"1256 120 OFFCURVE",
"1198 120 CURVE SMOOTH",
"1083 120 OFFCURVE",
"1021 193 OFFCURVE",
"1021 329 CURVE SMOOTH",
"1021 487 OFFCURVE",
"1097 585 OFFCURVE",
"1234 585 CURVE SMOOTH",
"1299 585 OFFCURVE",
"1353 564 OFFCURVE",
"1412 519 CURVE SMOOTH",
"1446 493 OFFCURVE",
"1505 607 OFFCURVE",
"1472 634 CURVE SMOOTH",
"1409 686 OFFCURVE",
"1323 714 OFFCURVE",
"1227 714 CURVE SMOOTH",
"1003 714 OFFCURVE",
"857 563 OFFCURVE",
"857 329 CURVE SMOOTH",
"857 121 OFFCURVE",
"985 -9 OFFCURVE",
"1192 -9 CURVE SMOOTH"
);
}
);
};
layerId = "E1B555A7-F4E1-459C-9C1A-AE952106EEF9";
paths = (
{
closed = 1;
nodes = (
"485 -9 OFFCURVE",
"567 22 OFFCURVE",
"608 54 CURVE SMOOTH",
"676 106 OFFCURVE",
"631 208 OFFCURVE",
"551 165 CURVE SMOOTH",
"510 143 OFFCURVE",
"456 120 OFFCURVE",
"398 120 CURVE SMOOTH",
"283 120 OFFCURVE",
"221 193 OFFCURVE",
"221 329 CURVE SMOOTH",
"221 487 OFFCURVE",
"297 585 OFFCURVE",
"434 585 CURVE SMOOTH",
"496 585 OFFCURVE",
"547 563 OFFCURVE",
"581 542 CURVE SMOOTH",
"660 492 OFFCURVE",
"724 605 OFFCURVE",
"641 659 CURVE SMOOTH",
"600 685 OFFCURVE",
"523 714 OFFCURVE",
"427 714 CURVE SMOOTH",
"203 714 OFFCURVE",
"57 563 OFFCURVE",
"57 329 CURVE SMOOTH",
"57 121 OFFCURVE",
"185 -9 OFFCURVE",
"392 -9 CURVE SMOOTH"
);
}
);
width = 678;
}
);
leftKerningGroup = O;
rightKerningGroup = C;
unicode = 0043;
userData = {
anchors = (
);
b = {
};
com.typemytype.robofont.layerData = {
b = {
anchors = (
);
components = (
);
contours = (
);
lib = {
};
name = C;
unicodes = (
);
width = 1353.89001;
};
};
components = (
);
contours = (
);
lib = {
};
name = C;
unicodes = (
);
width = 1354;
};
},
{
glyphname = D;
layers = (
{
anchors = (
{
name = bottom;
position = "{363, 0}";
},
{
name = center;
position = "{391, 353}";
},
{
name = top;
position = "{418, 705}";
}
);
background = {
paths = (
{
closed = 1;
nodes = (
"338 0 LINE SMOOTH",
"582 0 OFFCURVE",
"725 138 OFFCURVE",
"725 376 CURVE SMOOTH",
"725 579 OFFCURVE",
"593 705 OFFCURVE",
"380 705 CURVE SMOOTH",
"105 705 LINE",
"50 0 LINE"
);
},
{
closed = 1;
nodes = (
"256 575 LINE",
"359 575 LINE SMOOTH",
"493 575 OFFCURVE",
"564 506 OFFCURVE",
"564 377 CURVE SMOOTH",
"564 209 OFFCURVE",
"486 130 OFFCURVE",
"324 130 CURVE SMOOTH",
"221 130 LINE"
);
}
);
};
layerId = "E1B555A7-F4E1-459C-9C1A-AE952106EEF9";
paths = (
{
closed = 1;
nodes = (
"338 0 LINE SMOOTH",
"582 0 OFFCURVE",
"725 138 OFFCURVE",
"725 376 CURVE SMOOTH",
"725 579 OFFCURVE",
"593 705 OFFCURVE",
"380 705 CURVE SMOOTH",
"181 705 LINE SMOOTH",
"133 705 OFFCURVE",
"104 678 OFFCURVE",
"100 630 CURVE SMOOTH",
"56 75 LINE SMOOTH",
"52 27 OFFCURVE",
"77 0 OFFCURVE",
"125 0 CURVE SMOOTH"
);
},
{
closed = 1;
nodes = (
"256 575 LINE",
"359 575 LINE SMOOTH",
"493 575 OFFCURVE",
"564 506 OFFCURVE",
"564 377 CURVE SMOOTH",
"564 209 OFFCURVE",
"486 130 OFFCURVE",
"324 130 CURVE SMOOTH",
"221 130 LINE"
);
}
);
width = 765;
}
);
leftKerningGroup = H;
rightKerningGroup = O;
unicode = 0044;
userData = {
anchors = (
);
b = {
};
com.typemytype.robofont.layerData = {
b = {
anchors = (
);
components = (
);
contours = (
{
points = (
{
segmentType = curve;
smooth = 1;
x = 266;
y = 0;
},
{
segmentType = line;
smooth = 1;
x = 1035;
y = 0;
},
{
smooth = 0;
x = 1084;
y = 0;
},
{
smooth = 0;
x = 1108;
y = 34;
},
{
segmentType = curve;
smooth = 1;
x = 1108;
y = 71;
},
{
smooth = 0;
x = 1108;
y = 107;
},
{
smooth = 0;
x = 1084;
y = 141;
},
{
segmentType = curve;
smooth = 1;
x = 1035;
y = 141;
},
{
segmentType = line;
smooth = 0;
x = 356;
y = 141;
},
{
segmentType = line;
smooth = 0;
x = 356;
y = 665;
},
{
segmentType = line;
smooth = 1;
x = 975;
y = 665;
},
{
smooth = 0;
x = 1024;
y = 665;
},
{
smooth = 0;
x = 1049;
y = 698;
},
{
segmentType = curve;
smooth = 1;
x = 1049;
y = 734;
},
{
smooth = 0;
x = 1049;
y = 770;
},
{
smooth = 0;
x = 1026;
y = 803;
},
{
segmentType = curve;
smooth = 1;
x = 975;
y = 803;
},
{
segmentType = line;
smooth = 0;
x = 356;
y = 803;
},
{
segmentType = line;
smooth = 0;
x = 356;
y = 1285;
},
{
segmentType = line;
smooth = 1;
x = 1007;
y = 1285;
},
{
smooth = 0;
x = 1056;
y = 1285;
},
{
smooth = 0;
x = 1080;
y = 1319;
},
{
segmentType = curve;
smooth = 1;
x = 1080;
y = 1356;
},
{
smooth = 0;
x = 1080;
y = 1392;
},
{
smooth = 0;
x = 1056;
y = 1426;
},
{
segmentType = curve;
smooth = 1;
x = 1007;
y = 1426;
},
{
segmentType = line;
smooth = 1;
x = 261;
y = 1426;
},
{
smooth = 0;
x = 213;
y = 1426;
},
{
smooth = 0;
x = 178;
y = 1383;
},
{
segmentType = curve;
smooth = 1;
x = 178;
y = 1340;
},
{
segmentType = line;
smooth = 1;
x = 178;
y = 86;
},
{
smooth = 0;
x = 178;
y = 41;
},
{
smooth = 0;
x = 222;
y = 0;
}
);
}
);
lib = {
};
name = D;
unicodes = (
);
width = 1499;
};
};
components = (
);
contours = (
);
lib = {
};
name = D;
unicodes = (
);
width = 1535;
};
},
{
glyphname = Eth;
layers = (
{
background = {
paths = (
{
closed = 1;
nodes = (
"450 295 LINE",
"460 417 LINE",
"29 417 LINE",
"19 295 LINE"
);
},
{
closed = 1;
nodes = (
"369 0 LINE SMOOTH",
"613 0 OFFCURVE",
"756 138 OFFCURVE",
"756 376 CURVE SMOOTH",
"756 579 OFFCURVE",
"624 705 OFFCURVE",
"411 705 CURVE SMOOTH",
"136 705 LINE",
"81 0 LINE"
);
},
{
closed = 1;
nodes = (
"287 575 LINE",
"390 575 LINE SMOOTH",
"524 575 OFFCURVE",
"595 506 OFFCURVE",
"595 377 CURVE SMOOTH",
"595 209 OFFCURVE",
"517 130 OFFCURVE",
"355 130 CURVE SMOOTH",
"252 130 LINE"
);
}
);
};
layerId = "E1B555A7-F4E1-459C-9C1A-AE952106EEF9";
paths = (
{
closed = 1;
nodes = (
"393 295 LINE SMOOTH",
"441 295 OFFCURVE",
"470 316 OFFCURVE",
"470 359 CURVE SMOOTH",
"470 394 OFFCURVE",
"446 417 OFFCURVE",
"403 417 CURVE SMOOTH",
"86 417 LINE SMOOTH",
"38 417 OFFCURVE",
"9 396 OFFCURVE",
"9 353 CURVE SMOOTH",
"9 318 OFFCURVE",
"33 295 OFFCURVE",
"76 295 CURVE SMOOTH"
);
},
{
closed = 1;
nodes = (
"368 0 LINE SMOOTH",
"612 0 OFFCURVE",
"755 138 OFFCURVE",
"755 376 CURVE SMOOTH",
"755 579 OFFCURVE",
"623 705 OFFCURVE",
"410 705 CURVE SMOOTH",
"211 705 LINE SMOOTH",
"163 705 OFFCURVE",
"134 678 OFFCURVE",
"130 630 CURVE SMOOTH",
"86 75 LINE SMOOTH",
"82 27 OFFCURVE",
"107 0 OFFCURVE",
"155 0 CURVE SMOOTH"
);
},
{
closed = 1;
nodes = (
"286 575 LINE",
"389 575 LINE SMOOTH",
"523 575 OFFCURVE",
"594 506 OFFCURVE",
"594 377 CURVE SMOOTH",
"594 209 OFFCURVE",
"516 130 OFFCURVE",
"354 130 CURVE SMOOTH",
"251 130 LINE"
);
}
);
width = 796;
}
);
leftKerningGroup = H;
rightKerningGroup = O;
unicode = 00D0;
},
{
glyphname = E;
layers = (
{
anchors = (
{
name = bottom;
position = "{312, 0}";
},
{
name = ogonek;
position = "{518, 10}";
},
{
name = top;
position = "{367, 705}";
},
{
name = topleft;
position = "{57, 705}";
}
);
background = {
paths = (
{
closed = 1;
nodes = (
"539 0 LINE",
"549 125 LINE",
"217 125 LINE",
"253 580 LINE",
"585 580 LINE",
"595 705 LINE",
"106 705 LINE",
"50 0 LINE"
);
},
{
closed = 1;
nodes = (
"542 296 LINE",
"552 421 LINE",
"224 421 LINE",
"214 296 LINE"
);
}
);
};
guideLines = (
{
angle = 90;
position = "{700, 607}";
}
);
layerId = "E1B555A7-F4E1-459C-9C1A-AE952106EEF9";
paths = (
{
closed = 1;
nodes = (
"478 0 LINE SMOOTH",
"531 0 OFFCURVE",
"559 21 OFFCURVE",
"559 66 CURVE SMOOTH",
"559 102 OFFCURVE",
"535 125 OFFCURVE",
"488 125 CURVE SMOOTH",
"217 125 LINE",
"253 580 LINE",
"524 580 LINE SMOOTH",
"577 580 OFFCURVE",
"605 601 OFFCURVE",
"605 647 CURVE SMOOTH",
"605 682 OFFCURVE",
"581 705 OFFCURVE",
"534 705 CURVE SMOOTH",
"181 705 LINE SMOOTH",
"133 705 OFFCURVE",
"104 678 OFFCURVE",
"100 630 CURVE SMOOTH",
"56 75 LINE SMOOTH",
"52 27 OFFCURVE",
"77 0 OFFCURVE",
"125 0 CURVE SMOOTH"
);
},
{
closed = 1;
nodes = (
"482 296 LINE SMOOTH",
"535 296 OFFCURVE",
"562 318 OFFCURVE",
"562 363 CURVE SMOOTH",
"562 399 OFFCURVE",
"538 421 OFFCURVE",
"491 421 CURVE SMOOTH",
"224 421 LINE",
"215 296 LINE"
);
}
);
width = 594;
}
);
leftKerningGroup = H;
rightKerningGroup = E;
unicode = 0045;
userData = {
anchors = (
);
b = {
};
com.typemytype.robofont.layerData = {
b = {
anchors = (
);
components = (
);
contours = (
);
lib = {
};
name = E;
unicodes = (
);
width = 1234;
};
};
components = (
);
contours = (
);
lib = {
};
name = E;
unicodes = (
);
width = 1258;
};
},
{
glyphname = Eogonek;
layers = (
{
anchors = (
{
name = top;
position = "{367, 705}";
}
);
background = {
paths = (
{
closed = 1;
nodes = (
"214 296 LINE",
"542 296 LINE",
"552 421 LINE",
"224 421 LINE"
);
},
{
closed = 1;
nodes = (
"253 580 LINE",
"584 580 LINE",
"594 705 LINE",
"106 705 LINE",
"50 0 LINE",
"433 0 LINE",
"417 20 LINE",
"366 -5 OFFCURVE",
"342 -46 OFFCURVE",
"342 -91 CURVE SMOOTH",
"342 -153 OFFCURVE",
"391 -197 OFFCURVE",
"469 -197 CURVE SMOOTH",
"501 -197 OFFCURVE",
"533 -190 OFFCURVE",
"564 -177 CURVE",
"553 -105 LINE",
"531 -113 OFFCURVE",
"513 -117 OFFCURVE",
"496 -117 CURVE SMOOTH",
"464 -117 OFFCURVE",
"443 -99 OFFCURVE",
"443 -67 CURVE SMOOTH",
"443 -28 OFFCURVE",
"475 0 OFFCURVE",
"517 0 CURVE SMOOTH",
"539 0 LINE",
"549 125 LINE",
"217 125 LINE"
);
}
);
};
layerId = "E1B555A7-F4E1-459C-9C1A-AE952106EEF9";
paths = (
{
closed = 1;
nodes = (
"495 -197 OFFCURVE",
"524 -190 OFFCURVE",
"552 -174 CURVE SMOOTH",
"588 -154 OFFCURVE",
"574 -98 OFFCURVE",
"539 -109 CURVE SMOOTH",
"513 -117 OFFCURVE",
"505 -117 OFFCURVE",
"491 -117 CURVE SMOOTH",
"464 -117 OFFCURVE",
"443 -99 OFFCURVE",
"443 -67 CURVE SMOOTH",
"443 -34 OFFCURVE",
"466 -8 OFFCURVE",
"499 0 CURVE SMOOTH",
"540 10 OFFCURVE",
"559 27 OFFCURVE",
"559 66 CURVE SMOOTH",
"559 102 OFFCURVE",
"535 125 OFFCURVE",
"488 125 CURVE SMOOTH",
"217 125 LINE",
"253 580 LINE",
"524 580 LINE SMOOTH",
"577 580 OFFCURVE",
"605 601 OFFCURVE",
"605 647 CURVE SMOOTH",
"605 682 OFFCURVE",
"581 705 OFFCURVE",
"534 705 CURVE SMOOTH",
"181 705 LINE SMOOTH",
"133 705 OFFCURVE",
"104 678 OFFCURVE",
"100 630 CURVE SMOOTH",
"56 75 LINE SMOOTH",
"52 27 OFFCURVE",
"77 0 OFFCURVE",
"125 0 CURVE SMOOTH",
"433 0 LINE",
"417 20 LINE",
"366 -5 OFFCURVE",
"342 -46 OFFCURVE",
"342 -91 CURVE SMOOTH",
"342 -153 OFFCURVE",
"391 -197 OFFCURVE",
"468 -197 CURVE SMOOTH"
);
},
{
closed = 1;
nodes = (
"482 296 LINE SMOOTH",
"535 296 OFFCURVE",
"562 318 OFFCURVE",
"562 363 CURVE SMOOTH",
"562 399 OFFCURVE",
"538 421 OFFCURVE",
"491 421 CURVE SMOOTH",
"224 421 LINE",
"215 296 LINE"
);
}
);
width = 594;
}
);
leftKerningGroup = H;
rightKerningGroup = E;
unicode = 0118;
userData = {
com.typemytype.robofont.layerData = {
b = {
anchors = (
);
components = (
);
contours = (
);
lib = {
};
name = Eogonek;
unicodes = (
);
width = 1234;
};
};
};
},
{
glyphname = F;
layers = (
{
anchors = (
{
name = bottom;
position = "{297, 0}";
},
{
name = top;
position = "{324, 705}";
}
);
background = {
paths = (
{
closed = 1;
nodes = (
"216 295 LINE",
"532 295 LINE",
"542 422 LINE",
"226 422 LINE"
);
},
{
closed = 1;
nodes = (
"255 578 LINE",
"574 578 LINE",
"584 705 LINE",
"106 705 LINE",
"50 0 LINE",
"209 0 LINE"
);
}
);
};
layerId = "E1B555A7-F4E1-459C-9C1A-AE952106EEF9";
paths = (
{
closed = 1;
nodes = (
"216 295 LINE",
"471 295 LINE SMOOTH",
"526 295 OFFCURVE",
"552 315 OFFCURVE",
"552 364 CURVE SMOOTH",
"552 402 OFFCURVE",
"529 422 OFFCURVE",
"482 422 CURVE SMOOTH",
"227 422 LINE"
);
},
{
closed = 1;
nodes = (
"255 578 LINE",
"514 578 LINE SMOOTH",
"568 578 OFFCURVE",
"595 597 OFFCURVE",
"595 645 CURVE SMOOTH",
"595 684 OFFCURVE",
"572 705 OFFCURVE",
"524 705 CURVE SMOOTH",
"181 705 LINE SMOOTH",
"133 705 OFFCURVE",
"104 678 OFFCURVE",
"100 630 CURVE SMOOTH",
"56 74 LINE SMOOTH",
"52 26 OFFCURVE",
"82 -6 OFFCURVE",
"130 -6 CURVE SMOOTH",
"178 -6 OFFCURVE",
"211 25 OFFCURVE",
"215 74 CURVE"
);
}
);
width = 573;
}
);
leftKerningGroup = H;
rightKerningGroup = F;
unicode = 0046;
userData = {
anchors = (
);
b = {
};
com.typemytype.robofont.layerData = {
b = {
anchors = (
);
components = (
);
contours = (
{
points = (
{
segmentType = curve;
smooth = 1;
x = 266;
y = 0;
},
{
segmentType = line;
smooth = 1;
x = 1035;
y = 0;
},
{
smooth = 0;
x = 1084;
y = 0;
},
{
smooth = 0;
x = 1108;
y = 34;
},
{
segmentType = curve;
smooth = 1;
x = 1108;
y = 71;
},
{
smooth = 0;
x = 1108;
y = 107;
},
{
smooth = 0;
x = 1084;
y = 141;
},
{
segmentType = curve;
smooth = 1;
x = 1035;
y = 141;
},
{
segmentType = line;
smooth = 0;
x = 353;
y = 141;
},
{
segmentType = line;
smooth = 0;
x = 353;
y = 665;
},
{
segmentType = line;
smooth = 1;
x = 975;
y = 665;
},
{
smooth = 0;
x = 1024;
y = 665;
},
{
smooth = 0;
x = 1049;
y = 698;
},
{
segmentType = curve;
smooth = 1;
x = 1049;
y = 734;
},
{
smooth = 0;
x = 1049;
y = 770;
},
{
smooth = 0;
x = 1026;
y = 803;
},
{
segmentType = curve;
smooth = 1;
x = 975;
y = 803;
},
{
segmentType = line;
smooth = 0;
x = 353;
y = 803;
},
{
segmentType = line;
smooth = 0;
x = 353;
y = 1285;
},
{
segmentType = line;
smooth = 1;
x = 1007;
y = 1285;
},
{
smooth = 0;
x = 1056;
y = 1285;
},
{
smooth = 0;
x = 1080;
y = 1319;
},
{
segmentType = curve;
smooth = 1;
x = 1080;
y = 1356;
},
{
smooth = 0;
x = 1080;
y = 1392;
},
{
smooth = 0;
x = 1056;
y = 1426;
},
{
segmentType = curve;
smooth = 1;
x = 1007;
y = 1426;
},
{
segmentType = line;
smooth = 1;
x = 261;
y = 1426;
},
{
smooth = 0;
x = 213;
y = 1426;
},
{
smooth = 0;
x = 178;
y = 1383;
},
{
segmentType = curve;
smooth = 1;
x = 178;
y = 1340;
},
{
segmentType = line;
smooth = 1;
x = 178;
y = 86;
},
{
smooth = 0;
x = 178;
y = 41;
},
{
smooth = 0;
x = 222;
y = 0;
}
);
}
);
lib = {
};
name = F;
unicodes = (
);
width = 1142;
};
};
components = (
);
contours = (
);
lib = {
};
name = F;
unicodes = (
);
width = 1175;
};
},
{
glyphname = G;
layers = (
{
anchors = (
{
name = bottom;
position = "{396, 0}";
},
{
name = top;
position = "{444, 705}";
}
);
background = {
paths = (
{
closed = 1;
nodes = (
"499 -9 OFFCURVE",
"596 11 OFFCURVE",
"663 46 CURVE",
"690 391 LINE",
"410 391 LINE",
"401 279 LINE",
"537 279 LINE",
"522 88 LINE",
"561 142 LINE",
"512 124 OFFCURVE",
"464 115 OFFCURVE",
"419 115 CURVE SMOOTH",
"283 115 OFFCURVE",
"220 193 OFFCURVE",
"220 329 CURVE SMOOTH",
"220 487 OFFCURVE",
"297 583 OFFCURVE",
"435 586 CURVE SMOOTH",
"516 588 OFFCURVE",
"570 565 OFFCURVE",
"629 519 CURVE",
"689 634 LINE",
"626 686 OFFCURVE",
"540 714 OFFCURVE",
"433 714 CURVE SMOOTH",
"203 714 OFFCURVE",
"57 563 OFFCURVE",
"57 329 CURVE SMOOTH",
"57 121 OFFCURVE",
"185 -9 OFFCURVE",
"397 -9 CURVE SMOOTH"
);
}
);
};
layerId = "E1B555A7-F4E1-459C-9C1A-AE952106EEF9";
paths = (
{
closed = 1;
nodes = (
"456 -9 OFFCURVE",
"527 1 OFFCURVE",
"580 16 CURVE SMOOTH",
"647 35 OFFCURVE",
"664 58 OFFCURVE",
"670 140 CURVE SMOOTH",
"685 331 LINE SMOOTH",
"688 368 OFFCURVE",
"665 391 OFFCURVE",
"627 391 CURVE SMOOTH",
"457 391 LINE SMOOTH",
"418 391 OFFCURVE",
"391 369 OFFCURVE",
"391 333 CURVE SMOOTH",
"391 297 OFFCURVE",
"413 279 OFFCURVE",
"454 279 CURVE SMOOTH",
"537 279 LINE",
"522 88 LINE",
"561 142 LINE",
"512 124 OFFCURVE",
"464 115 OFFCURVE",
"419 115 CURVE SMOOTH",
"283 115 OFFCURVE",
"220 193 OFFCURVE",
"220 329 CURVE SMOOTH",
"220 487 OFFCURVE",
"299 586 OFFCURVE",
"435 586 CURVE SMOOTH",
"512 586 OFFCURVE",
"555 567 OFFCURVE",
"596 542 CURVE SMOOTH",
"676 493 OFFCURVE",
"740 606 OFFCURVE",
"656 659 CURVE SMOOTH",
"615 685 OFFCURVE",
"538 714 OFFCURVE",
"433 714 CURVE SMOOTH",
"203 714 OFFCURVE",
"57 563 OFFCURVE",
"57 329 CURVE SMOOTH",
"57 121 OFFCURVE",
"185 -9 OFFCURVE",
"397 -9 CURVE SMOOTH"
);
}
);
width = 739;
}
);
leftKerningGroup = O;
rightKerningGroup = G;
unicode = 0047;
userData = {
anchors = (
);
b = {
};
com.typemytype.robofont.layerData = {
b = {
anchors = (
);
components = (
);
contours = (
{
points = (
{
segmentType = curve;
smooth = 1;
x = 783;
y = "-22";
},
{
smooth = 0;
x = 965;
y = "-22";
},
{
smooth = 0;
x = 1086;
y = 34;
},
{
segmentType = curve;
smooth = 1;
x = 1166;
y = 86;
},
{
smooth = 0;
x = 1270;
y = 154;
},
{
smooth = 0;
x = 1186;
y = 258;
},
{
segmentType = curve;
smooth = 1;
x = 1112;
y = 214;
},
{
smooth = 0;
x = 1024;
y = 162;
},
{
smooth = 0;
x = 939;
y = 120;
},
{
segmentType = curve;
smooth = 1;
x = 806;
y = 120;
},
{
smooth = 0;
x = 446;
y = 120;
},
{
smooth = 0;
x = 316;
y = 406;
},
{
segmentType = curve;
smooth = 1;
x = 316;
y = 706;
},
{
smooth = 0;
x = 316;
y = 1005;
},
{
smooth = 0;
x = 450;
y = 1296;
},
{
segmentType = curve;
smooth = 1;
x = 801;
y = 1296;
},
{
smooth = 0;
x = 980;
y = 1296;
},
{
smooth = 0;
x = 1053;
y = 1246;
},
{
segmentType = curve;
smooth = 1;
x = 1094;
y = 1225;
},
{
smooth = 0;
x = 1174;
y = 1184;
},
{
smooth = 0;
x = 1231;
y = 1300;
},
{
segmentType = curve;
smooth = 1;
x = 1156;
y = 1343;
},
{
smooth = 0;
x = 1106;
y = 1372;
},
{
smooth = 0;
x = 995;
y = 1438;
},
{
segmentType = curve;
smooth = 1;
x = 797;
y = 1438;
},
{
smooth = 0;
x = 359;
y = 1438;
},
{
smooth = 0;
x = 128;
y = 1093;
},
{
segmentType = curve;
smooth = 1;
x = 128;
y = 704;
},
{
smooth = 0;
x = 128;
y = 307;
},
{
smooth = 0;
x = 350;
y = "-22";
}
);
}
);
lib = {
};
name = G;
unicodes = (
);
width = 1448;
};
};
components = (
);
contours = (
);
lib = {
};
name = G;
unicodes = (
);
width = 1538;
};
},
{
glyphname = H;
layers = (
{
anchors = (
{
name = bottom;
position = "{367, 0}";
},
{
name = center;
position = "{395, 358}";
},
{
name = top;
position = "{422, 705}";
},
{
name = topleft;
position = "{57, 705}";
}
);
background = {
paths = (
{
closed = 1;
nodes = (
"683 0 LINE",
"739 705 LINE",
"581 705 LINE",
"525 0 LINE"
);
},
{
closed = 1;
nodes = (
"208 0 LINE",
"264 705 LINE",
"106 705 LINE",
"50 0 LINE"
);
},
{
closed = 1;
nodes = (
"644 294 LINE",
"654 422 LINE",
"134 422 LINE",
"124 294 LINE"
);
}
);
};
layerId = "E1B555A7-F4E1-459C-9C1A-AE952106EEF9";
paths = (
{
closed = 1;
nodes = (
"652 -6 OFFCURVE",
"685 26 OFFCURVE",
"689 74 CURVE SMOOTH",
"733 631 LINE SMOOTH",
"737 679 OFFCURVE",
"708 710 OFFCURVE",
"660 710 CURVE SMOOTH",
"612 710 OFFCURVE",
"579 679 OFFCURVE",
"575 631 CURVE SMOOTH",
"531 74 LINE SMOOTH",
"527 25 OFFCURVE",
"556 -6 OFFCURVE",
"604 -6 CURVE SMOOTH"
);
},
{
closed = 1;
nodes = (
"177 -6 OFFCURVE",
"210 26 OFFCURVE",
"214 74 CURVE SMOOTH",
"258 631 LINE SMOOTH",
"262 679 OFFCURVE",
"233 710 OFFCURVE",
"185 710 CURVE SMOOTH",
"137 710 OFFCURVE",
"104 679 OFFCURVE",
"100 631 CURVE SMOOTH",
"56 74 LINE SMOOTH",
"52 25 OFFCURVE",
"81 -6 OFFCURVE",
"129 -6 CURVE SMOOTH"
);
},
{
closed = 1;
nodes = (
"644 294 LINE",
"655 422 LINE",
"135 422 LINE",
"124 294 LINE"
);
}
);
width = 772;
}
);
leftKerningGroup = H;
rightKerningGroup = H;
unicode = 0048;
userData = {
anchors = (
);
b = {
};
com.typemytype.robofont.layerData = {
b = {
anchors = (
);
components = (
);
contours = (
);
lib = {
};
name = H;
unicodes = (
);
width = 1464;
};
};
components = (
);
contours = (
);
lib = {
};
name = H;
unicodes = (
);
width = 1524;
};
},
{
glyphname = Hbar;
layers = (
{
background = {
paths = (
{
closed = 1;
nodes = (
"678 -6 OFFCURVE",
"717 20 OFFCURVE",
"721 74 CURVE SMOOTH",
"765 631 LINE SMOOTH",
"769 684 OFFCURVE",
"734 710 OFFCURVE",
"692 710 CURVE SMOOTH",
"649 710 OFFCURVE",
"611 684 OFFCURVE",
"607 631 CURVE SMOOTH",
"563 74 LINE SMOOTH",
"559 20 OFFCURVE",
"593 -6 OFFCURVE",
"636 -6 CURVE SMOOTH"
);
},
{
closed = 1;
nodes = (
"202 -6 OFFCURVE",
"241 20 OFFCURVE",
"245 74 CURVE SMOOTH",
"289 631 LINE SMOOTH",
"293 684 OFFCURVE",
"258 710 OFFCURVE",
"216 710 CURVE SMOOTH",
"173 710 OFFCURVE",
"135 684 OFFCURVE",
"131 631 CURVE SMOOTH",
"87 74 LINE SMOOTH",
"83 20 OFFCURVE",
"117 -6 OFFCURVE",
"160 -6 CURVE SMOOTH"
);
},
{
closed = 1;
nodes = (
"674 294 LINE",
"685 422 LINE",
"165 422 LINE",
"154 294 LINE"
);
},
{
closed = 1;
nodes = (
"783 505 LINE SMOOTH",
"831 505 OFFCURVE",
"857 529 OFFCURVE",
"860 564 CURVE SMOOTH",
"863 599 OFFCURVE",
"840 623 OFFCURVE",
"792 623 CURVE SMOOTH",
"102 623 LINE SMOOTH",
"54 623 OFFCURVE",
"29 599 OFFCURVE",
"26 564 CURVE SMOOTH",
"23 529 OFFCURVE",
"45 505 OFFCURVE",
"93 505 CURVE SMOOTH"
);
}
);
};
layerId = "E1B555A7-F4E1-459C-9C1A-AE952106EEF9";
paths = (
{
closed = 1;
nodes = (
"783 505 LINE SMOOTH",
"834 505 OFFCURVE",
"860 529 OFFCURVE",
"860 567 CURVE SMOOTH",
"860 599 OFFCURVE",
"837 623 OFFCURVE",
"792 623 CURVE SMOOTH",
"102 623 LINE SMOOTH",
"51 623 OFFCURVE",
"26 599 OFFCURVE",
"26 561 CURVE SMOOTH",
"26 529 OFFCURVE",
"48 505 OFFCURVE",
"93 505 CURVE SMOOTH"
);
},
{
closed = 1;
nodes = (
"683 -6 OFFCURVE",
"716 26 OFFCURVE",
"720 74 CURVE SMOOTH",
"764 631 LINE SMOOTH",
"768 679 OFFCURVE",
"739 710 OFFCURVE",
"691 710 CURVE SMOOTH",
"643 710 OFFCURVE",
"610 679 OFFCURVE",
"606 631 CURVE SMOOTH",
"562 74 LINE SMOOTH",
"558 25 OFFCURVE",
"587 -6 OFFCURVE",
"635 -6 CURVE SMOOTH"
);
},
{
closed = 1;
nodes = (
"208 -6 OFFCURVE",
"241 26 OFFCURVE",
"245 74 CURVE SMOOTH",
"289 631 LINE SMOOTH",
"293 679 OFFCURVE",
"264 710 OFFCURVE",
"216 710 CURVE SMOOTH",
"168 710 OFFCURVE",
"135 679 OFFCURVE",
"131 631 CURVE SMOOTH",
"87 74 LINE SMOOTH",
"83 25 OFFCURVE",
"112 -6 OFFCURVE",
"160 -6 CURVE SMOOTH"
);
},
{
closed = 1;
nodes = (
"675 294 LINE",
"686 422 LINE",
"166 422 LINE",
"155 294 LINE"
);
}
);
width = 834;
}
);
leftKerningGroup = H;
rightKerningGroup = H;
unicode = 0126;
userData = {
com.typemytype.robofont.layerData = {
b = {
anchors = (
);
components = (
);
contours = (
);
lib = {
};
name = Hbar;
unicodes = (
);
width = 1464;
};
};
};
},
{
glyphname = I;
layers = (
{
anchors = (
{
name = bottom;
position = "{131, 0}";
},
{
name = ogonek;
position = "{182, 10}";
},
{
name = top;
position = "{186, 705}";
},
{
name = topleft;
position = "{57, 705}";
}
);
background = {
paths = (
{
closed = 1;
nodes = (
"211 0 LINE",
"266 705 LINE",
"105 705 LINE",
"50 0 LINE"
);
}
);
};
layerId = "E1B555A7-F4E1-459C-9C1A-AE952106EEF9";
paths = (
{
closed = 1;
nodes = (
"180 -6 OFFCURVE",
"213 25 OFFCURVE",
"217 74 CURVE SMOOTH",
"261 631 LINE SMOOTH",
"265 679 OFFCURVE",
"236 710 OFFCURVE",
"186 710 CURVE SMOOTH",
"137 710 OFFCURVE",
"104 679 OFFCURVE",
"100 631 CURVE SMOOTH",
"56 74 LINE SMOOTH",
"52 25 OFFCURVE",
"81 -6 OFFCURVE",
"130 -6 CURVE SMOOTH"
);
}
);
width = 299;
}
);
leftKerningGroup = H;
rightKerningGroup = H;
unicode = 0049;
userData = {
anchors = (
);
b = {
};
com.typemytype.robofont.layerData = {
b = {
anchors = (
);
components = (
);
contours = (
);
lib = {
};
name = I;
unicodes = (
);
width = 592;
};
};
components = (
);
contours = (
);
lib = {
};
name = I;
unicodes = (
);
width = 637;
};
},
{
glyphname = Iogonek;
layers = (
{
background = {
paths = (
{
closed = 1;
nodes = (
"166 -197 OFFCURVE",
"198 -190 OFFCURVE",
"229 -177 CURVE",
"218 -105 LINE",
"196 -113 OFFCURVE",
"178 -117 OFFCURVE",
"161 -117 CURVE SMOOTH",
"129 -117 OFFCURVE",
"108 -99 OFFCURVE",
"108 -67 CURVE SMOOTH",
"108 -30 OFFCURVE",
"135 0 OFFCURVE",
"196 0 CURVE SMOOTH",
"211 0 LINE",
"266 705 LINE",
"105 705 LINE",
"50 0 LINE",
"95 0 LINE",
"111 37 LINE",
"45 11 OFFCURVE",
"7 -26 OFFCURVE",
"7 -89 CURVE SMOOTH",
"7 -153 OFFCURVE",
"56 -197 OFFCURVE",
"134 -197 CURVE SMOOTH"
);
}
);
};
layerId = "E1B555A7-F4E1-459C-9C1A-AE952106EEF9";
paths = (
{
closed = 1;
nodes = (
"165 -197 OFFCURVE",
"194 -192 OFFCURVE",
"222 -174 CURVE SMOOTH",
"256 -152 OFFCURVE",
"246 -98 OFFCURVE",
"209 -109 CURVE SMOOTH",
"189 -115 OFFCURVE",
"179 -117 OFFCURVE",
"161 -117 CURVE SMOOTH",
"129 -117 OFFCURVE",
"108 -99 OFFCURVE",
"108 -67 CURVE SMOOTH",
"108 -30 OFFCURVE",
"136 -12 OFFCURVE",
"175 6 CURVE SMOOTH",
"198 16 OFFCURVE",
"214 42 OFFCURVE",
"217 74 CURVE SMOOTH",
"261 631 LINE SMOOTH",
"265 679 OFFCURVE",
"236 710 OFFCURVE",
"186 710 CURVE SMOOTH",
"137 710 OFFCURVE",
"104 679 OFFCURVE",
"100 631 CURVE SMOOTH",
"56 74 LINE SMOOTH",
"53 41 OFFCURVE",
"64 18 OFFCURVE",
"91 2 CURVE",
"111 37 LINE",
"45 11 OFFCURVE",
"7 -26 OFFCURVE",
"7 -89 CURVE SMOOTH",
"7 -153 OFFCURVE",
"56 -197 OFFCURVE",
"135 -197 CURVE SMOOTH"
);
}
);
width = 299;
}
);
leftKerningGroup = H;
rightKerningGroup = H;
unicode = 012E;
},
{
glyphname = J;
layers = (
{
anchors = (
{
name = bottom;
position = "{212, 0}";
},
{
name = top;
position = "{267, 705}";
}
);
background = {
paths = (
{
closed = 1;
nodes = (
"71 -5 LINE SMOOTH",
"222 4 OFFCURVE",
"299 74 OFFCURVE",
"310 217 CURVE SMOOTH",
"348 705 LINE",
"186 705 LINE",
"148 215 LINE SMOOTH",
"143 152 OFFCURVE",
"117 127 OFFCURVE",
"54 123 CURVE SMOOTH",
"-17 119 LINE",
"-9 -10 LINE"
);
}
);
};
layerId = "E1B555A7-F4E1-459C-9C1A-AE952106EEF9";
paths = (
{
closed = 1;
nodes = (
"93 -4 LINE SMOOTH",
"226 4 OFFCURVE",
"300 77 OFFCURVE",
"310 208 CURVE SMOOTH",
"343 631 LINE SMOOTH",
"347 679 OFFCURVE",
"317 710 OFFCURVE",
"268 710 CURVE SMOOTH",
"219 710 OFFCURVE",
"185 679 OFFCURVE",
"181 631 CURVE SMOOTH",
"147 206 LINE SMOOTH",
"143 154 OFFCURVE",
"117 127 OFFCURVE",
"71 124 CURVE SMOOTH",
"38 122 LINE SMOOTH",
"-7 119 OFFCURVE",
"-30 100 OFFCURVE",
"-30 57 CURVE SMOOTH",
"-30 13 OFFCURVE",
"-3 -10 OFFCURVE",
"61 -6 CURVE SMOOTH"
);
}
);
width = 381;
}
);
leftKerningGroup = J;
rightKerningGroup = J;
unicode = 004A;
userData = {
anchors = (
);
b = {
};
com.typemytype.robofont.layerData = {
b = {
anchors = (
);
components = (
);
contours = (
);
lib = {
};
name = J;
unicodes = (
);
width = 1003;
};
};
components = (
);
contours = (
);
lib = {
};
name = J;
unicodes = (
);
width = 1126;
};
},
{
glyphname = K;
layers = (
{
anchors = (
{
name = bottom;
position = "{324, 0}";
},
{
name = top;
position = "{379, 705}";
}
);
background = {
paths = (
{
closed = 1;
nodes = (
"706 0 LINE",
"362 405 LINE",
"356 320 LINE",
"748 705 LINE",
"551 705 LINE",
"205 358 LINE",
"518 0 LINE"
);
},
{
closed = 1;
nodes = (
"211 0 LINE",
"266 705 LINE",
"105 705 LINE",
"50 0 LINE"
);
}
);
};
layerId = "E1B555A7-F4E1-459C-9C1A-AE952106EEF9";
paths = (
{
closed = 1;
nodes = (
"567 -55 OFFCURVE",
"666 49 OFFCURVE",
"614 109 CURVE SMOOTH",
"360 402 LINE",
"353 320 LINE",
"624 584 LINE SMOOTH",
"700 659 OFFCURVE",
"605 758 OFFCURVE",
"533 686 CURVE SMOOTH",
"205 358 LINE",
"498 24 LINE SMOOTH"
);
},
{
closed = 1;
nodes = (
"180 -6 OFFCURVE",
"213 25 OFFCURVE",
"217 74 CURVE SMOOTH",
"261 631 LINE SMOOTH",
"265 679 OFFCURVE",
"236 710 OFFCURVE",
"186 710 CURVE SMOOTH",
"137 710 OFFCURVE",
"104 679 OFFCURVE",
"100 631 CURVE SMOOTH",
"56 74 LINE SMOOTH",
"52 25 OFFCURVE",
"81 -6 OFFCURVE",
"130 -6 CURVE SMOOTH"
);
}
);
width = 682;
}
);
leftKerningGroup = H;
rightKerningGroup = K;
unicode = 004B;
userData = {
anchors = (
);
b = {
};
com.typemytype.robofont.layerData = {
b = {
anchors = (
);
components = (
);
contours = (
);
lib = {
};
name = K;
unicodes = (
);
width = 1210;
};
};
components = (
);
contours = (
);
lib = {
};
name = K;
unicodes = (
);
width = 1329;
};
},
{
glyphname = L;
layers = (
{
anchors = (
{
name = bottom;
position = "{294, 0}";
},
{
name = center;
position = "{403, 353}";
},
{
name = top;
position = "{185, 705}";
},
{
name = topright;
position = "{356, 705}";
}
);
background = {
paths = (
{
closed = 1;
nodes = (
"523 0 LINE",
"533 131 LINE",
"221 131 LINE",
"267 705 LINE",
"106 705 LINE",
"50 0 LINE"
);
}
);
};
layerId = "E1B555A7-F4E1-459C-9C1A-AE952106EEF9";
paths = (
{
closed = 1;
nodes = (
"462 0 LINE SMOOTH",
"516 0 OFFCURVE",
"543 21 OFFCURVE",
"543 71 CURVE SMOOTH",
"543 109 OFFCURVE",
"519 131 OFFCURVE",
"472 131 CURVE SMOOTH",
"221 131 LINE",
"261 631 LINE SMOOTH",
"265 679 OFFCURVE",
"236 710 OFFCURVE",
"186 710 CURVE SMOOTH",
"137 710 OFFCURVE",
"104 679 OFFCURVE",
"100 631 CURVE SMOOTH",
"56 75 LINE SMOOTH",
"52 27 OFFCURVE",
"77 0 OFFCURVE",
"125 0 CURVE SMOOTH"
);
}
);
width = 565;
}
);
leftKerningGroup = H;
rightKerningGroup = L;
unicode = 004C;
userData = {
anchors = (
);
b = {
};
com.typemytype.robofont.layerData = {
b = {
anchors = (
);
components = (
);
contours = (
{
points = (
{
segmentType = curve;
smooth = 1;
x = 266;
y = 0;
},
{
segmentType = line;
smooth = 1;
x = 1035;
y = 0;
},
{
smooth = 0;
x = 1084;
y = 0;
},
{
smooth = 0;
x = 1108;
y = 34;
},
{
segmentType = curve;
smooth = 1;
x = 1108;
y = 71;
},
{
smooth = 0;
x = 1108;
y = 107;
},
{
smooth = 0;
x = 1084;
y = 141;
},
{
segmentType = curve;
smooth = 1;
x = 1035;
y = 141;
},
{
segmentType = line;
smooth = 0;
x = 356;
y = 141;
},
{
segmentType = line;
smooth = 0;
x = 356;
y = 665;
},
{
segmentType = line;
smooth = 1;
x = 975;
y = 665;
},
{
smooth = 0;
x = 1024;
y = 665;
},
{
smooth = 0;
x = 1049;
y = 698;
},
{
segmentType = curve;
smooth = 1;
x = 1049;
y = 734;
},
{
smooth = 0;
x = 1049;
y = 770;
},
{
smooth = 0;
x = 1026;
y = 803;
},
{
segmentType = curve;
smooth = 1;
x = 975;
y = 803;
},
{
segmentType = line;
smooth = 0;
x = 356;
y = 803;
},
{
segmentType = line;
smooth = 0;
x = 356;
y = 1285;
},
{
segmentType = line;
smooth = 1;
x = 1007;
y = 1285;
},
{
smooth = 0;
x = 1056;
y = 1285;
},
{
smooth = 0;
x = 1080;
y = 1319;
},
{
segmentType = curve;
smooth = 1;
x = 1080;
y = 1356;
},
{
smooth = 0;
x = 1080;
y = 1392;
},
{
smooth = 0;
x = 1056;
y = 1426;
},
{
segmentType = curve;
smooth = 1;
x = 1007;
y = 1426;
},
{
segmentType = line;
smooth = 1;
x = 261;
y = 1426;
},
{
smooth = 0;
x = 213;
y = 1426;
},
{
smooth = 0;
x = 178;
y = 1383;
},
{
segmentType = curve;
smooth = 1;
x = 178;
y = 1340;
},
{
segmentType = line;
smooth = 1;
x = 178;
y = 86;
},
{
smooth = 0;
x = 178;
y = 41;
},
{
smooth = 0;
x = 222;
y = 0;
}
);
}
);
lib = {
};
name = L;
unicodes = (
);
width = 1095;
};
};
components = (
);
contours = (
);
lib = {
};
name = L;
unicodes = (
);
width = 1169;
};
},
{
glyphname = LJ;
layers = (
{
background = {
paths = (
{
closed = 1;
nodes = (
"432 0 LINE SMOOTH",
"483 0 OFFCURVE",
"510 21 OFFCURVE",
"513 65 CURVE SMOOTH",
"517 109 OFFCURVE",
"493 131 OFFCURVE",
"442 131 CURVE SMOOTH",
"221 131 LINE",
"261 631 LINE SMOOTH",
"265 679 OFFCURVE",
"236 710 OFFCURVE",
"186 710 CURVE SMOOTH",
"137 710 OFFCURVE",
"104 679 OFFCURVE",
"100 631 CURVE SMOOTH",
"56 75 LINE SMOOTH",
"52 27 OFFCURVE",
"77 0 OFFCURVE",
"125 0 CURVE SMOOTH"
);
},
{
closed = 1;
nodes = (
"661 -4 LINE SMOOTH",
"794 4 OFFCURVE",
"867 77 OFFCURVE",
"878 208 CURVE SMOOTH",
"911 631 LINE SMOOTH",
"915 679 OFFCURVE",
"885 710 OFFCURVE",
"836 710 CURVE SMOOTH",
"787 710 OFFCURVE",
"753 679 OFFCURVE",
"749 631 CURVE SMOOTH",
"715 206 LINE SMOOTH",
"711 154 OFFCURVE",
"685 127 OFFCURVE",
"639 124 CURVE SMOOTH",
"606 122 LINE SMOOTH",
"561 119 OFFCURVE",
"541 100 OFFCURVE",
"538 59 CURVE SMOOTH",
"534 13 OFFCURVE",
"565 -10 OFFCURVE",
"629 -6 CURVE SMOOTH"
);
}
);
};
layerId = "E1B555A7-F4E1-459C-9C1A-AE952106EEF9";
paths = (
{
closed = 1;
nodes = (
"432 0 LINE SMOOTH",
"486 0 OFFCURVE",
"513 21 OFFCURVE",
"513 71 CURVE SMOOTH",
"513 109 OFFCURVE",
"489 131 OFFCURVE",
"442 131 CURVE SMOOTH",
"221 131 LINE",
"261 631 LINE SMOOTH",
"265 679 OFFCURVE",
"236 710 OFFCURVE",
"186 710 CURVE SMOOTH",
"137 710 OFFCURVE",
"104 679 OFFCURVE",
"100 631 CURVE SMOOTH",
"56 75 LINE SMOOTH",
"52 27 OFFCURVE",
"77 0 OFFCURVE",
"125 0 CURVE SMOOTH"
);
},
{
closed = 1;
nodes = (
"661 -4 LINE SMOOTH",
"794 4 OFFCURVE",
"868 77 OFFCURVE",
"878 208 CURVE SMOOTH",
"911 631 LINE SMOOTH",
"915 679 OFFCURVE",
"885 710 OFFCURVE",
"836 710 CURVE SMOOTH",
"787 710 OFFCURVE",
"753 679 OFFCURVE",
"749 631 CURVE SMOOTH",
"715 206 LINE SMOOTH",
"711 154 OFFCURVE",
"685 127 OFFCURVE",
"639 124 CURVE SMOOTH",
"606 122 LINE SMOOTH",
"561 119 OFFCURVE",
"541 100 OFFCURVE",
"538 59 CURVE SMOOTH",
"535 13 OFFCURVE",
"565 -10 OFFCURVE",
"629 -6 CURVE SMOOTH"
);
}
);
width = 949;
}
);
leftKerningGroup = H;
rightKerningGroup = J;
unicode = 01C7;
},
{
glyphname = Lslash;
layers = (
{
background = {
paths = (
{
closed = 1;
nodes = (
"487 454 LINE",
"437 558 LINE",
"-11 311 LINE",
"39 207 LINE"
);
},
{
closed = 1;
nodes = (
"554 0 LINE",
"564 131 LINE",
"252 131 LINE",
"298 705 LINE",
"137 705 LINE",
"81 0 LINE"
);
}
);
};
guideLines = (
{
angle = 90;
position = "{484, 593}";
},
{
angle = 90;
position = "{123, 593}";
},
{
position = "{485, 716}";
},
{
angle = 90;
position = "{584, 593}";
}
);
layerId = "E1B555A7-F4E1-459C-9C1A-AE952106EEF9";
paths = (
{
closed = 1;
nodes = (
"493 0 LINE SMOOTH",
"547 0 OFFCURVE",
"574 21 OFFCURVE",
"574 71 CURVE SMOOTH",
"574 109 OFFCURVE",
"550 131 OFFCURVE",
"503 131 CURVE SMOOTH",
"252 131 LINE",
"292 631 LINE SMOOTH",
"296 679 OFFCURVE",
"267 710 OFFCURVE",
"217 710 CURVE SMOOTH",
"168 710 OFFCURVE",
"135 679 OFFCURVE",
"131 631 CURVE SMOOTH",
"87 75 LINE SMOOTH",
"83 27 OFFCURVE",
"108 0 OFFCURVE",
"156 0 CURVE SMOOTH"
);
},
{
closed = 1;
nodes = (
"440 430 LINE SMOOTH",
"513 470 OFFCURVE",
"460 570 OFFCURVE",
"390 531 CURVE SMOOTH",
"37 336 LINE SMOOTH",
"-35 297 OFFCURVE",
"14 193 OFFCURVE",
"87 234 CURVE SMOOTH"
);
}
);
width = 596;
}
);
leftKerningGroup = L;
rightKerningGroup = L;
unicode = 0141;
},
{
glyphname = M;
layers = (
{
anchors = (
{
name = bottom;
position = "{402, 0}";
},
{
name = top;
position = "{457, 705}";
}
);
background = {
paths = (
{
closed = 1;
nodes = (
"193 0 LINE",
"230 465 LINE",
"198 456 LINE",
"359 116 LINE",
"463 116 LINE",
"672 456 LINE",
"647 465 LINE",
"610 0 LINE",
"751 0 LINE",
"807 705 LINE",
"682 705 LINE",
"399 246 LINE",
"441 246 LINE",
"235 705 LINE",
"108 705 LINE",
"52 0 LINE"
);
}
);
};
layerId = "E1B555A7-F4E1-459C-9C1A-AE952106EEF9";
paths = (
{
closed = 1;
nodes = (
"164 -6 OFFCURVE",
"195 23 OFFCURVE",
"198 67 CURVE SMOOTH",
"230 465 LINE",
"198 456 LINE",
"342 153 LINE SMOOTH",
"359 116 OFFCURVE",
"379 101 OFFCURVE",
"410 101 CURVE SMOOTH",
"441 101 OFFCURVE",
"463 116 OFFCURVE",
"486 153 CURVE SMOOTH",
"672 456 LINE",
"647 465 LINE",
"615 67 LINE SMOOTH",
"611 22 OFFCURVE",
"640 -6 OFFCURVE",
"681 -6 CURVE SMOOTH",
"723 -6 OFFCURVE",
"752 22 OFFCURVE",
"756 67 CURVE SMOOTH",
"801 631 LINE SMOOTH",
"805 678 OFFCURVE",
"777 710 OFFCURVE",
"732 710 CURVE SMOOTH",
"701 710 OFFCURVE",
"674 692 OFFCURVE",
"652 657 CURVE SMOOTH",
"399 246 LINE",
"441 246 LINE",
"256 657 LINE SMOOTH",
"240 692 OFFCURVE",
"216 710 OFFCURVE",
"184 710 CURVE SMOOTH",
"139 710 OFFCURVE",
"106 678 OFFCURVE",
"102 631 CURVE SMOOTH",
"57 67 LINE SMOOTH",
"54 22 OFFCURVE",
"81 -6 OFFCURVE",
"122 -6 CURVE SMOOTH"
);
}
);
width = 842;
}
);
leftKerningGroup = H;
rightKerningGroup = H;
unicode = 004D;
userData = {
anchors = (
);
b = {
};
com.typemytype.robofont.layerData = {
b = {
anchors = (
);
components = (
);
contours = (
);
lib = {
};
name = M;
unicodes = (
);
width = 1899;
};
};
components = (
);
contours = (
);
lib = {
};
name = M;
unicodes = (
);
width = 1984;
};
},
{
glyphname = N;
layers = (
{
anchors = (
{
name = bottom;
position = "{358, 0}";
},
{
name = top;
position = "{412, 705}";
}
);
background = {
paths = (
{
closed = 1;
nodes = (
"200 0 LINE",
"240 495 LINE",
"207 474 LINE",
"544 0 LINE",
"664 0 LINE",
"720 705 LINE",
"569 705 LINE",
"530 210 LINE",
"563 230 LINE",
"224 705 LINE",
"106 705 LINE",
"50 0 LINE"
);
}
);
};
layerId = "E1B555A7-F4E1-459C-9C1A-AE952106EEF9";
paths = (
{
closed = 1;
nodes = (
"171 -6 OFFCURVE",
"202 26 OFFCURVE",
"206 74 CURVE SMOOTH",
"240 495 LINE",
"207 474 LINE",
"529 21 LINE SMOOTH",
"542 2 OFFCURVE",
"564 -6 OFFCURVE",
"589 -6 CURVE SMOOTH",
"634 -6 OFFCURVE",
"666 26 OFFCURVE",
"670 74 CURVE SMOOTH",
"714 631 LINE SMOOTH",
"718 678 OFFCURVE",
"689 710 OFFCURVE",
"644 710 CURVE SMOOTH",
"599 710 OFFCURVE",
"567 678 OFFCURVE",
"563 631 CURVE SMOOTH",
"530 210 LINE",
"563 230 LINE",
"240 683 LINE SMOOTH",
"227 702 OFFCURVE",
"207 710 OFFCURVE",
"182 710 CURVE SMOOTH",
"137 710 OFFCURVE",
"104 678 OFFCURVE",
"100 631 CURVE SMOOTH",
"56 74 LINE SMOOTH",
"52 26 OFFCURVE",
"80 -6 OFFCURVE",
"125 -6 CURVE SMOOTH"
);
}
);
width = 753;
}
);
leftKerningGroup = H;
rightKerningGroup = H;
unicode = 004E;
userData = {
anchors = (
);
b = {
};
com.typemytype.robofont.layerData = {
b = {
anchors = (
);
components = (
);
contours = (
);
lib = {
};
name = N;
unicodes = (
);
width = 1499;
};
};
components = (
);
contours = (
);
lib = {
};
name = N;
unicodes = (
);
width = 1557;
};
},
{
glyphname = Eng;
layers = (
{
background = {
paths = (
{
closed = 1;
nodes = (
"971 -6 OFFCURVE",
"1002 26 OFFCURVE",
"1006 74 CURVE SMOOTH",
"1040 495 LINE",
"1007 474 LINE",
"1329 21 LINE SMOOTH",
"1342 2 OFFCURVE",
"1364 -6 OFFCURVE",
"1389 -6 CURVE SMOOTH",
"1434 -6 OFFCURVE",
"1466 26 OFFCURVE",
"1470 74 CURVE SMOOTH",
"1514 631 LINE SMOOTH",
"1518 678 OFFCURVE",
"1489 710 OFFCURVE",
"1444 710 CURVE SMOOTH",
"1399 710 OFFCURVE",
"1367 678 OFFCURVE",
"1363 631 CURVE SMOOTH",
"1330 210 LINE",
"1363 230 LINE",
"1040 683 LINE SMOOTH",
"1027 702 OFFCURVE",
"1007 710 OFFCURVE",
"982 710 CURVE SMOOTH",
"937 710 OFFCURVE",
"904 678 OFFCURVE",
"900 631 CURVE SMOOTH",
"856 74 LINE SMOOTH",
"852 26 OFFCURVE",
"880 -6 OFFCURVE",
"925 -6 CURVE SMOOTH"
);
},
{
closed = 1;
nodes = (
"450 -182 LINE SMOOTH",
"583 -174 OFFCURVE",
"657 -101 OFFCURVE",
"667 30 CURVE SMOOTH",
"700 453 LINE SMOOTH",
"704 501 OFFCURVE",
"674 532 OFFCURVE",
"625 532 CURVE SMOOTH",
"576 532 OFFCURVE",
"542 501 OFFCURVE",
"538 453 CURVE SMOOTH",
"504 28 LINE SMOOTH",
"500 -24 OFFCURVE",
"474 -51 OFFCURVE",
"428 -54 CURVE SMOOTH",
"395 -56 LINE SMOOTH",
"350 -59 OFFCURVE",
"330 -78 OFFCURVE",
"327 -119 CURVE SMOOTH",
"324 -165 OFFCURVE",
"354 -188 OFFCURVE",
"418 -184 CURVE SMOOTH"
);
}
);
};
layerId = "E1B555A7-F4E1-459C-9C1A-AE952106EEF9";
paths = (
{
closed = 1;
nodes = (
"451 -182 LINE SMOOTH",
"584 -173 OFFCURVE",
"657 -101 OFFCURVE",
"667 30 CURVE SMOOTH",
"714 631 LINE SMOOTH",
"718 678 OFFCURVE",
"689 710 OFFCURVE",
"644 710 CURVE SMOOTH",
"599 710 OFFCURVE",
"567 678 OFFCURVE",
"563 631 CURVE SMOOTH",
"530 210 LINE",
"563 230 LINE",
"240 683 LINE SMOOTH",
"227 701 OFFCURVE",
"207 710 OFFCURVE",
"182 710 CURVE SMOOTH",
"137 710 OFFCURVE",
"104 678 OFFCURVE",
"100 631 CURVE SMOOTH",
"56 74 LINE SMOOTH",
"52 26 OFFCURVE",
"80 -6 OFFCURVE",
"125 -6 CURVE SMOOTH",
"170 -6 OFFCURVE",
"202 26 OFFCURVE",
"206 74 CURVE SMOOTH",
"240 495 LINE",
"207 474 LINE",
"539 7 LINE",
"520 89 LINE",
"515 20 LINE SMOOTH",
"511 -28 OFFCURVE",
"478 -59 OFFCURVE",
"428 -62 CURVE SMOOTH",
"395 -64 LINE SMOOTH",
"352 -67 OFFCURVE",
"327 -86 OFFCURVE",
"327 -123 CURVE SMOOTH",
"327 -166 OFFCURVE",
"357 -188 OFFCURVE",
"418 -184 CURVE SMOOTH"
);
}
);
width = 753;
}
);
leftKerningGroup = H;
rightKerningGroup = H;
unicode = 014A;
userData = {
com.typemytype.robofont.layerData = {
b = {
anchors = (
);
components = (
);
contours = (
);
lib = {
};
name = Eng;
unicodes = (
);
width = 1495;
};
};
};
},
{
glyphname = O;
layers = (
{
anchors = (
{
name = bottom;
position = "{376, 0}";
},
{
name = center;
position = "{404, 353}";
},
{
name = ogonek;
position = "{495, 10}";
},
{
name = top;
position = "{430, 705}";
},
{
name = topleft;
position = "{58, 705}";
},
{
name = topright;
position = "{461, 705}";
}
);
background = {
paths = (
{
closed = 1;
nodes = (
"588 -9 OFFCURVE",
"731 132 OFFCURVE",
"749 353 CURVE SMOOTH",
"767 574 OFFCURVE",
"646 714 OFFCURVE",
"433 714 CURVE SMOOTH",
"220 714 OFFCURVE",
"76 574 OFFCURVE",
"58 353 CURVE SMOOTH",
"40 132 OFFCURVE",
"162 -9 OFFCURVE",
"375 -9 CURVE SMOOTH"
);
},
{
closed = 1;
nodes = (
"271 116 OFFCURVE",
"207 196 OFFCURVE",
"219 353 CURVE SMOOTH",
"232 510 OFFCURVE",
"309 589 OFFCURVE",
"423 589 CURVE SMOOTH",
"537 589 OFFCURVE",
"601 509 OFFCURVE",
"589 353 CURVE SMOOTH",
"577 197 OFFCURVE",
"499 116 OFFCURVE",
"385 116 CURVE SMOOTH"
);
}
);
};
layerId = "E1B555A7-F4E1-459C-9C1A-AE952106EEF9";
paths = (
{
closed = 1;
nodes = (
"610 -10 OFFCURVE",
"749 143 OFFCURVE",
"749 376 CURVE SMOOTH",
"749 586 OFFCURVE",
"617 715 OFFCURVE",
"408 715 CURVE SMOOTH",
"196 715 OFFCURVE",
"57 562 OFFCURVE",
"57 329 CURVE SMOOTH",
"57 119 OFFCURVE",
"189 -10 OFFCURVE",
"398 -10 CURVE SMOOTH"
);
},
{
closed = 1;
nodes = (
"282 116 OFFCURVE",
"218 192 OFFCURVE",
"218 329 CURVE SMOOTH",
"218 491 OFFCURVE",
"290 589 OFFCURVE",
"410 589 CURVE SMOOTH",
"522 589 OFFCURVE",
"588 513 OFFCURVE",
"588 376 CURVE SMOOTH",
"588 212 OFFCURVE",
"514 116 OFFCURVE",
"397 116 CURVE SMOOTH"
);
}
);
width = 789;
}
);
leftKerningGroup = O;
rightKerningGroup = O;
unicode = 004F;
userData = {
anchors = (
);
b = {
};
com.typemytype.robofont.guides = (
);
com.typemytype.robofont.layerData = {
b = {
anchors = (
);
components = (
);
contours = (
);
lib = {
};
name = O;
unicodes = (
);
width = 1597;
};
};
components = (
);
contours = (
);
lib = {
};
name = O;
unicodes = (
);
width = 1604;
};
},
{
glyphname = Ohorn;
layers = (
{
anchors = (
{
name = bottom;
position = "{376, 0}";
},
{
name = top;
position = "{430, 705}";
}
);
background = {
anchors = (
{
name = bottom;
position = "{395, 0}";
},
{
name = top;
position = "{449, 705}";
}
);
paths = (
{
closed = 1;
nodes = (
"588 -9 OFFCURVE",
"731 132 OFFCURVE",
"749 353 CURVE SMOOTH",
"760 487 OFFCURVE",
"722 590 OFFCURVE",
"637 651 CURVE",
"619 630 LINE",
"711 630 OFFCURVE",
"777 702 OFFCURVE",
"783 781 CURVE SMOOTH",
"787 833 OFFCURVE",
"767 859 OFFCURVE",
"725 859 CURVE SMOOTH",
"681 859 OFFCURVE",
"653 834 OFFCURVE",
"644 777 CURVE SMOOTH",
"635 723 OFFCURVE",
"613 705 OFFCURVE",
"557 705 CURVE SMOOTH",
"513 705 OFFCURVE",
"480 714 OFFCURVE",
"435 714 CURVE SMOOTH",
"220 714 OFFCURVE",
"76 574 OFFCURVE",
"58 353 CURVE SMOOTH",
"40 132 OFFCURVE",
"162 -9 OFFCURVE",
"375 -9 CURVE SMOOTH"
);
},
{
closed = 1;
nodes = (
"271 116 OFFCURVE",
"207 196 OFFCURVE",
"219 353 CURVE SMOOTH",
"232 510 OFFCURVE",
"309 589 OFFCURVE",
"423 589 CURVE SMOOTH",
"537 589 OFFCURVE",
"601 509 OFFCURVE",
"589 353 CURVE SMOOTH",
"577 197 OFFCURVE",
"499 116 OFFCURVE",
"385 116 CURVE SMOOTH"
);
}
);
};
guideLines = (
{
angle = 90;
position = "{959, 1000}";
}
);
layerId = "E1B555A7-F4E1-459C-9C1A-AE952106EEF9";
paths = (
{
closed = 1;
nodes = (
"610 -10 OFFCURVE",
"749 143 OFFCURVE",
"749 376 CURVE SMOOTH",
"749 500 OFFCURVE",
"704 595 OFFCURVE",
"626 651 CURVE",
"621 630 LINE",
"718 630 OFFCURVE",
"783 706 OFFCURVE",
"783 796 CURVE SMOOTH",
"783 836 OFFCURVE",
"762 859 OFFCURVE",
"722 859 CURVE SMOOTH",
"679 859 OFFCURVE",
"656 834 OFFCURVE",
"649 796 CURVE SMOOTH",
"637 727 OFFCURVE",
"623 705 OFFCURVE",
"556 705 CURVE SMOOTH",
"512 705 OFFCURVE",
"476 715 OFFCURVE",
"418 715 CURVE SMOOTH",
"196 715 OFFCURVE",
"57 562 OFFCURVE",
"57 329 CURVE SMOOTH",
"57 119 OFFCURVE",
"189 -10 OFFCURVE",
"398 -10 CURVE SMOOTH"
);
},
{
closed = 1;
nodes = (
"282 116 OFFCURVE",
"218 192 OFFCURVE",
"218 329 CURVE SMOOTH",
"218 491 OFFCURVE",
"290 589 OFFCURVE",
"410 589 CURVE SMOOTH",
"522 589 OFFCURVE",
"588 513 OFFCURVE",
"588 376 CURVE SMOOTH",
"588 212 OFFCURVE",
"514 116 OFFCURVE",
"397 116 CURVE SMOOTH"
);
}
);
width = 789;
}
);
leftKerningGroup = O;
rightKerningGroup = O;
unicode = 01A0;
},
{
glyphname = Oogonek;
layers = (
{
anchors = (
{
name = top;
position = "{430, 705}";
}
);
background = {
paths = (
{
closed = 1;
nodes = (
"472 -197 OFFCURVE",
"501 -190 OFFCURVE",
"529 -174 CURVE SMOOTH",
"564 -155 OFFCURVE",
"553 -98 OFFCURVE",
"516 -109 CURVE SMOOTH",
"491 -115 OFFCURVE",
"482 -117 OFFCURVE",
"468 -117 CURVE SMOOTH",
"437 -117 OFFCURVE",
"417 -96 OFFCURVE",
"420 -64 CURVE SMOOTH",
"423 -31 OFFCURVE",
"445 -7 OFFCURVE",
"488 5 CURVE SMOOTH",
"640 49 OFFCURVE",
"735 174 OFFCURVE",
"749 353 CURVE SMOOTH",
"767 574 OFFCURVE",
"646 714 OFFCURVE",
"433 714 CURVE SMOOTH",
"220 714 OFFCURVE",
"76 574 OFFCURVE",
"58 353 CURVE SMOOTH",
"40 125 OFFCURVE",
"170 -16 OFFCURVE",
"391 -9 CURVE",
"380 12 LINE",
"344 -11 OFFCURVE",
"322 -48 OFFCURVE",
"319 -87 CURVE SMOOTH",
"314 -151 OFFCURVE",
"363 -197 OFFCURVE",
"438 -197 CURVE SMOOTH"
);
},
{
closed = 1;
nodes = (
"271 116 OFFCURVE",
"207 196 OFFCURVE",
"219 353 CURVE SMOOTH",
"232 510 OFFCURVE",
"309 589 OFFCURVE",
"423 589 CURVE SMOOTH",
"537 589 OFFCURVE",
"601 509 OFFCURVE",
"589 353 CURVE SMOOTH",
"577 197 OFFCURVE",
"499 116 OFFCURVE",
"385 116 CURVE SMOOTH"
);
}
);
};
layerId = "E1B555A7-F4E1-459C-9C1A-AE952106EEF9";
paths = (
{
closed = 1;
nodes = (
"640 34 OFFCURVE",
"749 167 OFFCURVE",
"749 376 CURVE SMOOTH",
"749 586 OFFCURVE",
"621 715 OFFCURVE",
"408 715 CURVE SMOOTH",
"196 715 OFFCURVE",
"57 562 OFFCURVE",
"57 329 CURVE SMOOTH",
"57 119 OFFCURVE",
"189 -10 OFFCURVE",
"391 -9 CURVE",
"380 12 LINE",
"339 -13 OFFCURVE",
"319 -48 OFFCURVE",
"319 -91 CURVE SMOOTH",
"319 -153 OFFCURVE",
"368 -197 OFFCURVE",
"446 -197 CURVE SMOOTH",
"472 -197 OFFCURVE",
"501 -190 OFFCURVE",
"529 -174 CURVE SMOOTH",
"564 -154 OFFCURVE",
"554 -100 OFFCURVE",
"516 -109 CURVE SMOOTH",
"495 -114 OFFCURVE",
"482 -117 OFFCURVE",
"473 -117 CURVE SMOOTH",
"441 -117 OFFCURVE",
"420 -99 OFFCURVE",
"420 -67 CURVE SMOOTH",
"420 -34 OFFCURVE",
"444 -10 OFFCURVE",
"491 1 CURVE SMOOTH"
);
},
{
closed = 1;
nodes = (
"282 116 OFFCURVE",
"218 192 OFFCURVE",
"218 329 CURVE SMOOTH",
"218 491 OFFCURVE",
"290 589 OFFCURVE",
"410 589 CURVE SMOOTH",
"522 589 OFFCURVE",
"588 513 OFFCURVE",
"588 376 CURVE SMOOTH",
"588 212 OFFCURVE",
"514 116 OFFCURVE",
"397 116 CURVE SMOOTH"
);
}
);
width = 789;
}
);
leftKerningGroup = O;
rightKerningGroup = O;
unicode = 01EA;
},
{
glyphname = Oslash;
layers = (
{
anchors = (
{
name = bottom;
position = "{376, 0}";
},
{
name = top;
position = "{430, 705}";
}
);
background = {
paths = (
{
closed = 1;
nodes = (
"610 -10 OFFCURVE",
"749 143 OFFCURVE",
"749 376 CURVE SMOOTH",
"749 586 OFFCURVE",
"617 715 OFFCURVE",
"408 715 CURVE SMOOTH",
"196 715 OFFCURVE",
"57 562 OFFCURVE",
"57 329 CURVE SMOOTH",
"57 119 OFFCURVE",
"189 -10 OFFCURVE",
"398 -10 CURVE SMOOTH"
);
},
{
closed = 1;
nodes = (
"282 116 OFFCURVE",
"218 192 OFFCURVE",
"218 329 CURVE SMOOTH",
"218 491 OFFCURVE",
"290 589 OFFCURVE",
"410 589 CURVE SMOOTH",
"522 589 OFFCURVE",
"588 513 OFFCURVE",
"588 376 CURVE SMOOTH",
"588 212 OFFCURVE",
"514 116 OFFCURVE",
"397 116 CURVE SMOOTH"
);
},
{
closed = 1;
nodes = (
"710 713 LINE",
"613 774 LINE",
"96 -8 LINE",
"194 -69 LINE"
);
}
);
};
layerId = "E1B555A7-F4E1-459C-9C1A-AE952106EEF9";
paths = (
{
closed = 1;
nodes = (
"610 -10 OFFCURVE",
"749 143 OFFCURVE",
"749 376 CURVE SMOOTH",
"749 586 OFFCURVE",
"617 715 OFFCURVE",
"408 715 CURVE SMOOTH",
"196 715 OFFCURVE",
"57 562 OFFCURVE",
"57 329 CURVE SMOOTH",
"57 119 OFFCURVE",
"189 -10 OFFCURVE",
"398 -10 CURVE SMOOTH"
);
},
{
closed = 1;
nodes = (
"282 116 OFFCURVE",
"218 192 OFFCURVE",
"218 329 CURVE SMOOTH",
"218 491 OFFCURVE",
"290 589 OFFCURVE",
"410 589 CURVE SMOOTH",
"522 589 OFFCURVE",
"588 513 OFFCURVE",
"588 376 CURVE SMOOTH",
"588 212 OFFCURVE",
"514 116 OFFCURVE",
"397 116 CURVE SMOOTH"
);
},
{
closed = 1;
nodes = (
"686 676 LINE SMOOTH",
"732 746 OFFCURVE",
"634 805 OFFCURVE",
"588 735 CURVE SMOOTH",
"121 29 LINE SMOOTH",
"75 -41 OFFCURVE",
"173 -100 OFFCURVE",
"219 -30 CURVE SMOOTH"
);
}
);
width = 789;
}
);
leftKerningGroup = O;
rightKerningGroup = O;
unicode = 00D8;
userData = {
com.typemytype.robofont.layerData = {
b = {
anchors = (
);
components = (
);
contours = (
);
lib = {
};
name = Oslash;
unicodes = (
);
width = 1597;
};
};
};
},
{
glyphname = OE;
layers = (
{
anchors = (
{
name = bottom;
position = "{510, 0}";
},
{
name = top;
position = "{565, 705}";
}
);
background = {
paths = (
{
closed = 1;
nodes = (
"769 0 LINE",
"928 0 LINE SMOOTH",
"981 0 OFFCURVE",
"1009 21 OFFCURVE",
"1009 66 CURVE SMOOTH",
"1009 102 OFFCURVE",
"985 125 OFFCURVE",
"938 125 CURVE SMOOTH",
"769 125 LINE"
);
},
{
closed = 1;
nodes = (
"769 296 LINE",
"932 296 LINE SMOOTH",
"985 296 OFFCURVE",
"1012 318 OFFCURVE",
"1012 363 CURVE SMOOTH",
"1012 399 OFFCURVE",
"988 421 OFFCURVE",
"941 421 CURVE SMOOTH",
"769 421 LINE"
);
},
{
closed = 1;
nodes = (
"769 580 LINE",
"974 580 LINE SMOOTH",
"1027 580 OFFCURVE",
"1055 601 OFFCURVE",
"1055 647 CURVE SMOOTH",
"1055 682 OFFCURVE",
"1031 705 OFFCURVE",
"984 705 CURVE SMOOTH",
"769 705 LINE"
);
},
{
closed = 1;
nodes = (
"769 421 LINE",
"674 421 LINE",
"665 296 LINE",
"769 296 LINE"
);
},
{
closed = 1;
nodes = (
"769 705 LINE",
"631 705 LINE SMOOTH",
"583 705 OFFCURVE",
"554 678 OFFCURVE",
"550 630 CURVE SMOOTH",
"506 75 LINE SMOOTH",
"502 27 OFFCURVE",
"527 0 OFFCURVE",
"575 0 CURVE SMOOTH",
"769 0 LINE",
"769 125 LINE",
"667 125 LINE",
"703 580 LINE",
"769 580 LINE"
);
}
);
};
layerId = "E1B555A7-F4E1-459C-9C1A-AE952106EEF9";
paths = (
{
closed = 1;
nodes = (
"444 705 LINE SMOOTH",
"200 705 OFFCURVE",
"57 567 OFFCURVE",
"57 329 CURVE SMOOTH",
"57 126 OFFCURVE",
"189 0 OFFCURVE",
"402 0 CURVE SMOOTH",
"928 0 LINE SMOOTH",
"981 0 OFFCURVE",
"1009 21 OFFCURVE",
"1009 66 CURVE SMOOTH",
"1009 102 OFFCURVE",
"985 125 OFFCURVE",
"938 125 CURVE SMOOTH",
"667 125 LINE",
"703 580 LINE",
"974 580 LINE SMOOTH",
"1027 580 OFFCURVE",
"1055 601 OFFCURVE",
"1055 647 CURVE SMOOTH",
"1055 682 OFFCURVE",
"1031 705 OFFCURVE",
"984 705 CURVE SMOOTH"
);
},
{
closed = 1;
nodes = (
"422 125 LINE SMOOTH",
"289 125 OFFCURVE",
"218 199 OFFCURVE",
"218 328 CURVE SMOOTH",
"218 496 OFFCURVE",
"296 580 OFFCURVE",
"458 580 CURVE SMOOTH",
"546 580 LINE",
"510 125 LINE"
);
},
{
closed = 1;
nodes = (
"665 296 LINE",
"932 296 LINE SMOOTH",
"985 296 OFFCURVE",
"1012 318 OFFCURVE",
"1012 363 CURVE SMOOTH",
"1012 399 OFFCURVE",
"988 421 OFFCURVE",
"941 421 CURVE SMOOTH",
"674 421 LINE"
);
}
);
width = 1044;
}
);
leftKerningGroup = O;
rightKerningGroup = E;
unicode = 0152;
},
{
glyphname = P;
layers = (
{
anchors = (
{
name = bottom;
position = "{319, 0}";
},
{
name = top;
position = "{373, 705}";
}
);
background = {
paths = (
{
closed = 1;
nodes = (
"257 582 LINE",
"401 582 LINE SMOOTH",
"474 582 OFFCURVE",
"508 552 OFFCURVE",
"508 489 CURVE SMOOTH",
"508 420 OFFCURVE",
"467 385 OFFCURVE",
"386 385 CURVE SMOOTH",
"223 385 LINE",
"216 263 LINE",
"401 263 LINE SMOOTH",
"567 263 OFFCURVE",
"659 347 OFFCURVE",
"659 498 CURVE SMOOTH",
"659 624 OFFCURVE",
"573 705 OFFCURVE",
"422 705 CURVE SMOOTH",
"106 705 LINE",
"50 0 LINE",
"211 0 LINE"
);
}
);
};
layerId = "E1B555A7-F4E1-459C-9C1A-AE952106EEF9";
paths = (
{
closed = 1;
nodes = (
"257 582 LINE",
"401 582 LINE SMOOTH",
"474 582 OFFCURVE",
"508 552 OFFCURVE",
"508 489 CURVE SMOOTH",
"508 420 OFFCURVE",
"467 385 OFFCURVE",
"386 385 CURVE SMOOTH",
"226 385 LINE",
"216 263 LINE",
"401 263 LINE SMOOTH",
"567 263 OFFCURVE",
"659 347 OFFCURVE",
"659 498 CURVE SMOOTH",
"659 624 OFFCURVE",
"573 705 OFFCURVE",
"422 705 CURVE SMOOTH",
"181 705 LINE SMOOTH",
"133 705 OFFCURVE",
"104 678 OFFCURVE",
"100 630 CURVE SMOOTH",
"56 74 LINE SMOOTH",
"52 25 OFFCURVE",
"81 -6 OFFCURVE",
"130 -6 CURVE SMOOTH",
"180 -6 OFFCURVE",
"213 25 OFFCURVE",
"217 74 CURVE"
);
}
);
width = 670;
}
);
leftKerningGroup = H;
rightKerningGroup = P;
unicode = 0050;
userData = {
anchors = (
);
b = {
};
com.typemytype.robofont.layerData = {
b = {
anchors = (
);
components = (
);
contours = (
{
points = (
{
segmentType = curve;
smooth = 1;
x = 266;
y = 0;
},
{
segmentType = line;
smooth = 1;
x = 1035;
y = 0;
},
{
smooth = 0;
x = 1084;
y = 0;
},
{
smooth = 0;
x = 1108;
y = 34;
},
{
segmentType = curve;
smooth = 1;
x = 1108;
y = 71;
},
{
smooth = 0;
x = 1108;
y = 107;
},
{
smooth = 0;
x = 1084;
y = 141;
},
{
segmentType = curve;
smooth = 1;
x = 1035;
y = 141;
},
{
segmentType = line;
smooth = 0;
x = 356;
y = 141;
},
{
segmentType = line;
smooth = 0;
x = 356;
y = 665;
},
{
segmentType = line;
smooth = 1;
x = 975;
y = 665;
},
{
smooth = 0;
x = 1024;
y = 665;
},
{
smooth = 0;
x = 1049;
y = 698;
},
{
segmentType = curve;
smooth = 1;
x = 1049;
y = 734;
},
{
smooth = 0;
x = 1049;
y = 770;
},
{
smooth = 0;
x = 1026;
y = 803;
},
{
segmentType = curve;
smooth = 1;
x = 975;
y = 803;
},
{
segmentType = line;
smooth = 0;
x = 356;
y = 803;
},
{
segmentType = line;
smooth = 0;
x = 356;
y = 1285;
},
{
segmentType = line;
smooth = 1;
x = 1007;
y = 1285;
},
{
smooth = 0;
x = 1056;
y = 1285;
},
{
smooth = 0;
x = 1080;
y = 1319;
},
{
segmentType = curve;
smooth = 1;
x = 1080;
y = 1356;
},
{
smooth = 0;
x = 1080;
y = 1392;
},
{
smooth = 0;
x = 1056;
y = 1426;
},
{
segmentType = curve;
smooth = 1;
x = 1007;
y = 1426;
},
{
segmentType = line;
smooth = 1;
x = 261;
y = 1426;
},
{
smooth = 0;
x = 213;
y = 1426;
},
{
smooth = 0;
x = 178;
y = 1383;
},
{
segmentType = curve;
smooth = 1;
x = 178;
y = 1340;
},
{
segmentType = line;
smooth = 1;
x = 178;
y = 86;
},
{
smooth = 0;
x = 178;
y = 41;
},
{
smooth = 0;
x = 222;
y = 0;
}
);
}
);
lib = {
};
name = P;
unicodes = (
);
width = 1201;
};
};
components = (
);
contours = (
);
lib = {
};
name = P;
unicodes = (
);
width = 1319;
};
},
{
glyphname = Thorn;
layers = (
{
anchors = (
{
name = bottom;
position = "{319, 0}";
},
{
name = top;
position = "{373, 705}";
}
);
background = {
paths = (
{
closed = 1;
nodes = (
"390 152 LINE SMOOTH",
"541 152 OFFCURVE",
"639 230 OFFCURVE",
"649 358 CURVE SMOOTH",
"660 487 OFFCURVE",
"576 564 OFFCURVE",
"423 564 CURVE SMOOTH",
"233 564 LINE",
"223 441 LINE",
"386 441 LINE SMOOTH",
"468 441 OFFCURVE",
"503 416 OFFCURVE",
"498 358 CURVE SMOOTH",
"494 300 OFFCURVE",
"455 275 OFFCURVE",
"373 275 CURVE SMOOTH",
"210 275 LINE",
"200 152 LINE"
);
},
{
closed = 1;
nodes = (
"177 -6 OFFCURVE",
"210 26 OFFCURVE",
"214 74 CURVE SMOOTH",
"258 631 LINE SMOOTH",
"262 679 OFFCURVE",
"233 710 OFFCURVE",
"185 710 CURVE SMOOTH",
"137 710 OFFCURVE",
"104 679 OFFCURVE",
"100 631 CURVE SMOOTH",
"56 74 LINE SMOOTH",
"52 25 OFFCURVE",
"81 -6 OFFCURVE",
"129 -6 CURVE SMOOTH"
);
}
);
};
layerId = "E1B555A7-F4E1-459C-9C1A-AE952106EEF9";
paths = (
{
closed = 1;
nodes = (
"409 152 LINE SMOOTH",
"563 152 OFFCURVE",
"649 230 OFFCURVE",
"649 371 CURVE SMOOTH",
"649 492 OFFCURVE",
"566 564 OFFCURVE",
"428 564 CURVE SMOOTH",
"194 564 LINE",
"194 441 LINE",
"409 441 LINE SMOOTH",
"470 441 OFFCURVE",
"499 416 OFFCURVE",
"499 362 CURVE SMOOTH",
"499 304 OFFCURVE",
"464 274 OFFCURVE",
"396 274 CURVE SMOOTH",
"177 274 LINE",
"177 152 LINE"
);
},
{
closed = 1;
nodes = (
"177 -6 OFFCURVE",
"210 26 OFFCURVE",
"214 74 CURVE SMOOTH",
"258 631 LINE SMOOTH",
"262 679 OFFCURVE",
"233 710 OFFCURVE",
"185 710 CURVE SMOOTH",
"137 710 OFFCURVE",
"104 679 OFFCURVE",
"100 631 CURVE SMOOTH",
"56 74 LINE SMOOTH",
"52 25 OFFCURVE",
"81 -6 OFFCURVE",
"129 -6 CURVE SMOOTH"
);
}
);
width = 671;
}
);
leftKerningGroup = H;
rightKerningGroup = THORN;
unicode = 00DE;
},
{
glyphname = Q;
layers = (
{
anchors = (
{
name = bottom;
position = "{376, 0}";
},
{
name = top;
position = "{430, 705}";
}
);
background = {
anchors = (
{
name = bottom;
position = "{395, 0}";
},
{
name = top;
position = "{449, 705}";
}
);
paths = (
{
closed = 1;
nodes = (
"551 -228 OFFCURVE",
"700 -173 OFFCURVE",
"648 -76 CURVE SMOOTH",
"624 -32 LINE SMOOTH",
"598 19 OFFCURVE",
"555 39 OFFCURVE",
"490 39 CURVE",
"514 16 LINE",
"651 64 OFFCURVE",
"736 186 OFFCURVE",
"749 353 CURVE SMOOTH",
"767 574 OFFCURVE",
"646 714 OFFCURVE",
"433 714 CURVE SMOOTH",
"220 714 OFFCURVE",
"76 574 OFFCURVE",
"58 353 CURVE SMOOTH",
"40 132 OFFCURVE",
"162 -9 OFFCURVE",
"375 -9 CURVE SMOOTH",
"421 -9 OFFCURVE",
"443 -21 OFFCURVE",
"456 -46 CURVE SMOOTH",
"508 -146 LINE SMOOTH"
);
},
{
closed = 1;
nodes = (
"271 116 OFFCURVE",
"207 196 OFFCURVE",
"219 353 CURVE SMOOTH",
"232 510 OFFCURVE",
"309 589 OFFCURVE",
"423 589 CURVE SMOOTH",
"537 589 OFFCURVE",
"601 509 OFFCURVE",
"589 353 CURVE SMOOTH",
"577 197 OFFCURVE",
"499 116 OFFCURVE",
"385 116 CURVE SMOOTH"
);
}
);
};
layerId = "E1B555A7-F4E1-459C-9C1A-AE952106EEF9";
paths = (
{
closed = 1;
nodes = (
"551 -228 OFFCURVE",
"700 -173 OFFCURVE",
"647 -76 CURVE SMOOTH",
"624 -34 LINE SMOOTH",
"596 17 OFFCURVE",
"562 34 OFFCURVE",
"500 29 CURVE",
"512 6 LINE",
"662 54 OFFCURVE",
"749 190 OFFCURVE",
"749 376 CURVE SMOOTH",
"749 587 OFFCURVE",
"620 715 OFFCURVE",
"408 715 CURVE SMOOTH",
"196 715 OFFCURVE",
"57 562 OFFCURVE",
"57 329 CURVE SMOOTH",
"57 126 OFFCURVE",
"182 -5 OFFCURVE",
"380 -9 CURVE SMOOTH",
"417 -10 OFFCURVE",
"443 -23 OFFCURVE",
"456 -48 CURVE SMOOTH",
"508 -146 LINE SMOOTH"
);
},
{
closed = 1;
nodes = (
"282 116 OFFCURVE",
"218 192 OFFCURVE",
"218 329 CURVE SMOOTH",
"218 491 OFFCURVE",
"290 589 OFFCURVE",
"410 589 CURVE SMOOTH",
"523 589 OFFCURVE",
"588 512 OFFCURVE",
"588 376 CURVE SMOOTH",
"588 214 OFFCURVE",
"516 116 OFFCURVE",
"397 116 CURVE SMOOTH"
);
}
);
width = 789;
}
);
leftKerningGroup = O;
rightKerningGroup = O;
unicode = 0051;
userData = {
anchors = (
);
b = {
};
com.typemytype.robofont.layerData = {
b = {
anchors = (
);
components = (
);
contours = (
);
lib = {
};
name = Q;
unicodes = (
);
width = 1597;
};
};
components = (
);
contours = (
);
lib = {
};
name = Q;
unicodes = (
);
width = 1604;
};
},
{
glyphname = R;
layers = (
{
anchors = (
{
name = bottom;
position = "{335, 0}";
},
{
name = top;
position = "{389, 705}";
}
);
background = {
paths = (
{
closed = 1;
nodes = (
"253 582 LINE",
"415 582 LINE SMOOTH",
"485 582 OFFCURVE",
"517 553 OFFCURVE",
"517 493 CURVE SMOOTH",
"517 428 OFFCURVE",
"478 394 OFFCURVE",
"401 394 CURVE SMOOTH",
"222 394 LINE",
"214 272 LINE",
"302 272 LINE SMOOTH",
"342 272 OFFCURVE",
"368 259 OFFCURVE",
"384 225 CURVE SMOOTH",
"493 0 LINE",
"667 0 LINE",
"565 207 LINE SMOOTH",
"538 263 OFFCURVE",
"503 290 OFFCURVE",
"434 290 CURVE",
"401 278 LINE",
"585 278 OFFCURVE",
"668 354 OFFCURVE",
"668 502 CURVE SMOOTH",
"668 626 OFFCURVE",
"584 705 OFFCURVE",
"436 705 CURVE SMOOTH",
"105 705 LINE",
"50 0 LINE",
"209 0 LINE"
);
}
);
};
layerId = "E1B555A7-F4E1-459C-9C1A-AE952106EEF9";
paths = (
{
closed = 1;
nodes = (
"253 582 LINE",
"415 582 LINE SMOOTH",
"485 582 OFFCURVE",
"517 553 OFFCURVE",
"517 493 CURVE SMOOTH",
"517 428 OFFCURVE",
"478 394 OFFCURVE",
"401 394 CURVE SMOOTH",
"222 394 LINE",
"215 272 LINE",
"307 272 LINE SMOOTH",
"344 272 OFFCURVE",
"368 259 OFFCURVE",
"384 225 CURVE SMOOTH",
"476 36 LINE SMOOTH",
"522 -58 OFFCURVE",
"663 9 OFFCURVE",
"620 96 CURVE SMOOTH",
"563 211 LINE SMOOTH",
"533 272 OFFCURVE",
"500 290 OFFCURVE",
"429 290 CURVE",
"401 278 LINE",
"585 278 OFFCURVE",
"668 354 OFFCURVE",
"668 502 CURVE SMOOTH",
"668 626 OFFCURVE",
"584 705 OFFCURVE",
"436 705 CURVE SMOOTH",
"181 705 LINE SMOOTH",
"133 705 OFFCURVE",
"104 678 OFFCURVE",
"100 630 CURVE SMOOTH",
"56 74 LINE SMOOTH",
"52 25 OFFCURVE",
"81 -6 OFFCURVE",
"130 -6 CURVE SMOOTH",
"179 -6 OFFCURVE",
"211 25 OFFCURVE",
"215 74 CURVE"
);
}
);
width = 702;
}
);
leftKerningGroup = H;
rightKerningGroup = R;
unicode = 0052;
userData = {
anchors = (
);
b = {
};
com.typemytype.robofont.guides = (
);
com.typemytype.robofont.layerData = {
b = {
anchors = (
);
components = (
);
contours = (
{
points = (
{
segmentType = curve;
smooth = 1;
x = 267;
y = 0;
},
{
smooth = 0;
x = 311;
y = 0;
},
{
smooth = 0;
x = 356;
y = 27;
},
{
segmentType = curve;
smooth = 1;
x = 356;
y = 84;
},
{
segmentType = line;
smooth = 0;
x = 356;
y = 628;
},
{
segmentType = line;
smooth = 1;
x = 669;
y = 628;
},
{
smooth = 0;
x = 962;
y = 628;
},
{
smooth = 0;
x = 1182;
y = 722;
},
{
segmentType = curve;
smooth = 1;
x = 1182;
y = 1026;
},
{
smooth = 0;
x = 1182;
y = 1324;
},
{
smooth = 0;
x = 993;
y = 1426;
},
{
segmentType = curve;
smooth = 1;
x = 684;
y = 1426;
},
{
segmentType = line;
smooth = 1;
x = 268;
y = 1426;
},
{
smooth = 0;
x = 217;
y = 1426;
},
{
smooth = 0;
x = 178;
y = 1387;
},
{
segmentType = curve;
smooth = 1;
x = 178;
y = 1339;
},
{
segmentType = line;
smooth = 1;
x = 178;
y = 84;
},
{
smooth = 0;
x = 178;
y = 28;
},
{
smooth = 0;
x = 222;
y = 0;
}
);
},
{
points = (
{
segmentType = line;
smooth = 0;
x = 356;
y = 764;
},
{
segmentType = line;
smooth = 0;
x = 356;
y = 1285;
},
{
segmentType = line;
smooth = 1;
x = 684;
y = 1285;
},
{
smooth = 0;
x = 914;
y = 1285;
},
{
smooth = 0;
x = 1008;
y = 1210;
},
{
segmentType = curve;
smooth = 1;
x = 1008;
y = 1026;
},
{
smooth = 0;
x = 1008;
y = 838;
},
{
smooth = 0;
x = 901;
y = 764;
},
{
segmentType = curve;
smooth = 1;
x = 670;
y = 764;
}
);
}
);
lib = {
};
name = R;
unicodes = (
);
width = 1363;
};
};
components = (
);
contours = (
);
lib = {
};
name = R;
unicodes = (
);
width = 1408;
};
},
{
glyphname = S;
layers = (
{
anchors = (
{
name = bottom;
position = "{306, 0}";
},
{
name = top;
position = "{366, 705}";
}
);
background = {
paths = (
{
closed = 1;
nodes = (
"477 -9 OFFCURVE",
"599 78 OFFCURVE",
"610 208 CURVE SMOOTH",
"618 317 OFFCURVE",
"551 375 OFFCURVE",
"371 415 CURVE SMOOTH",
"259 440 OFFCURVE",
"229 460 OFFCURVE",
"232 504 CURVE SMOOTH",
"236 556 OFFCURVE",
"288 589 OFFCURVE",
"366 589 CURVE SMOOTH",
"446 589 OFFCURVE",
"486 563 OFFCURVE",
"523 539 CURVE SMOOTH",
"546 525 OFFCURVE",
"555 522 OFFCURVE",
"570 522 CURVE SMOOTH",
"598 522 OFFCURVE",
"625 552 OFFCURVE",
"628 587 CURVE SMOOTH",
"630 612 OFFCURVE",
"623 628 OFFCURVE",
"603 644 CURVE SMOOTH",
"545 691 OFFCURVE",
"471 714 OFFCURVE",
"375 714 CURVE SMOOTH",
"211 714 OFFCURVE",
"83 620 OFFCURVE",
"73 492 CURVE SMOOTH",
"64 379 OFFCURVE",
"127 320 OFFCURVE",
"311 281 CURVE SMOOTH",
"418 258 OFFCURVE",
"454 237 OFFCURVE",
"451 198 CURVE SMOOTH",
"447 145 OFFCURVE",
"397 116 OFFCURVE",
"311 116 CURVE SMOOTH",
"240 116 OFFCURVE",
"186 131 OFFCURVE",
"133 166 CURVE SMOOTH",
"112 179 OFFCURVE",
"101 183 OFFCURVE",
"86 183 CURVE SMOOTH",
"58 183 OFFCURVE",
"31 153 OFFCURVE",
"28 118 CURVE SMOOTH",
"26 92 OFFCURVE",
"33 76 OFFCURVE",
"52 61 CURVE SMOOTH",
"106 17 OFFCURVE",
"200 -9 OFFCURVE",
"305 -9 CURVE SMOOTH"
);
},
{
closed = 1;
nodes = (
"500 -9 OFFCURVE",
"609 70 OFFCURVE",
"609 207 CURVE SMOOTH",
"609 444 OFFCURVE",
"231 379 OFFCURVE",
"231 509 CURVE SMOOTH",
"231 559 OFFCURVE",
"280 589 OFFCURVE",
"362 589 CURVE SMOOTH",
"431 589 OFFCURVE",
"504 564 OFFCURVE",
"563 519 CURVE",
"583 557 OFFCURVE",
"603 596 OFFCURVE",
"623 634 CURVE",
"566 683 OFFCURVE",
"467 714 OFFCURVE",
"366 714 CURVE SMOOTH",
"187 714 OFFCURVE",
"71 628 OFFCURVE",
"71 495 CURVE SMOOTH",
"71 252 OFFCURVE",
"449 316 OFFCURVE",
"449 189 CURVE SMOOTH",
"449 142 OFFCURVE",
"403 116 OFFCURVE",
"318 116 CURVE SMOOTH",
"233 116 OFFCURVE",
"157 139 OFFCURVE",
"86 186 CURVE",
"66 148 OFFCURVE",
"46 109 OFFCURVE",
"26 71 CURVE",
"100 20 OFFCURVE",
"203 -9 OFFCURVE",
"312 -9 CURVE SMOOTH"
);
}
);
};
layerId = "E1B555A7-F4E1-459C-9C1A-AE952106EEF9";
paths = (
{
closed = 1;
nodes = (
"500 -9 OFFCURVE",
"609 70 OFFCURVE",
"609 207 CURVE SMOOTH",
"609 444 OFFCURVE",
"231 379 OFFCURVE",
"231 509 CURVE SMOOTH",
"231 559 OFFCURVE",
"280 589 OFFCURVE",
"362 589 CURVE SMOOTH",
"431 589 OFFCURVE",
"493 566 OFFCURVE",
"529 544 CURVE SMOOTH",
"613 492 OFFCURVE",
"666 600 OFFCURVE",
"605 648 CURVE SMOOTH",
"556 687 OFFCURVE",
"467 714 OFFCURVE",
"366 714 CURVE SMOOTH",
"187 714 OFFCURVE",
"71 628 OFFCURVE",
"71 495 CURVE SMOOTH",
"71 252 OFFCURVE",
"449 316 OFFCURVE",
"449 189 CURVE SMOOTH",
"449 142 OFFCURVE",
"403 116 OFFCURVE",
"318 116 CURVE SMOOTH",
"233 116 OFFCURVE",
"163 139 OFFCURVE",
"121 164 CURVE SMOOTH",
"33 216 OFFCURVE",
"-11 96 OFFCURVE",
"61 50 CURVE SMOOTH",
"114 16 OFFCURVE",
"203 -9 OFFCURVE",
"312 -9 CURVE SMOOTH"
);
}
);
width = 653;
}
);
leftKerningGroup = S;
rightKerningGroup = S;
unicode = 0053;
userData = {
anchors = (
);
b = {
};
com.typemytype.robofont.layerData = {
b = {
anchors = (
);
components = (
);
contours = (
);
lib = {
};
name = S;
unicodes = (
);
width = 1274;
};
};
components = (
);
contours = (
);
lib = {
};
name = S;
unicodes = (
);
width = 1317;
};
},
{
glyphname = Germandbls;
layers = (
{
background = {
paths = (
{
closed = 1;
nodes = (
"208 0 LINE",
"244 457 LINE SMOOTH",
"251 543 OFFCURVE",
"299 587 OFFCURVE",
"388 587 CURVE SMOOTH",
"451 587 OFFCURVE",
"493 556 OFFCURVE",
"493 506 CURVE SMOOTH",
"493 450 OFFCURVE",
"460 419 OFFCURVE",
"399 419 CURVE SMOOTH",
"309 419 LINE",
"299 294 LINE",
"397 294 LINE SMOOTH",
"487 294 OFFCURVE",
"521 268 OFFCURVE",
"521 205 CURVE SMOOTH",
"521 146 OFFCURVE",
"490 113 OFFCURVE",
"433 113 CURVE SMOOTH",
"394 113 OFFCURVE",
"348 130 OFFCURVE",
"300 163 CURVE",
"249 50 LINE",
"310 10 OFFCURVE",
"363 -6 OFFCURVE",
"436 -6 CURVE SMOOTH",
"576 -6 OFFCURVE",
"674 84 OFFCURVE",
"674 202 CURVE SMOOTH",
"674 299 OFFCURVE",
"612 359 OFFCURVE",
"514 372 CURVE",
"513 358 LINE",
"602 381 OFFCURVE",
"645 442 OFFCURVE",
"645 522 CURVE SMOOTH",
"645 635 OFFCURVE",
"551 712 OFFCURVE",
"396 712 CURVE SMOOTH",
"211 712 OFFCURVE",
"100 618 OFFCURVE",
"86 451 CURVE SMOOTH",
"50 0 LINE"
);
}
);
};
layerId = "E1B555A7-F4E1-459C-9C1A-AE952106EEF9";
paths = (
{
closed = 1;
nodes = (
"176 -7 OFFCURVE",
"210 25 OFFCURVE",
"214 72 CURVE SMOOTH",
"244 457 LINE SMOOTH",
"251 543 OFFCURVE",
"299 587 OFFCURVE",
"388 587 CURVE SMOOTH",
"451 587 OFFCURVE",
"493 556 OFFCURVE",
"493 506 CURVE SMOOTH",
"493 450 OFFCURVE",
"460 419 OFFCURVE",
"399 419 CURVE SMOOTH",
"356 419 LINE SMOOTH",
"271 419 OFFCURVE",
"261 294 OFFCURVE",
"346 294 CURVE SMOOTH",
"397 294 LINE SMOOTH",
"487 294 OFFCURVE",
"521 268 OFFCURVE",
"521 205 CURVE SMOOTH",
"521 146 OFFCURVE",
"490 113 OFFCURVE",
"433 113 CURVE SMOOTH",
"397 113 OFFCURVE",
"371 129 OFFCURVE",
"348 140 CURVE SMOOTH",
"260 182 OFFCURVE",
"218 80 OFFCURVE",
"280 36 CURVE SMOOTH",
"321 7 OFFCURVE",
"373 -6 OFFCURVE",
"436 -6 CURVE SMOOTH",
"576 -6 OFFCURVE",
"674 84 OFFCURVE",
"674 202 CURVE SMOOTH",
"674 299 OFFCURVE",
"612 359 OFFCURVE",
"514 372 CURVE",
"513 358 LINE",
"602 381 OFFCURVE",
"645 442 OFFCURVE",
"645 522 CURVE SMOOTH",
"645 635 OFFCURVE",
"551 712 OFFCURVE",
"396 712 CURVE SMOOTH",
"211 712 OFFCURVE",
"99 618 OFFCURVE",
"86 451 CURVE SMOOTH",
"56 72 LINE SMOOTH",
"52 24 OFFCURVE",
"80 -7 OFFCURVE",
"128 -7 CURVE SMOOTH"
);
}
);
width = 712;
}
);
leftKerningGroup = H;
rightKerningGroup = Germandbls;
unicode = 1E9E;
},
{
glyphname = Schwa;
layers = (
{
anchors = (
{
name = bottom;
position = "{366, 0}";
},
{
name = top;
position = "{420, 705}";
}
);
background = {
paths = (
{
closed = 1;
nodes = (
"589 -9 OFFCURVE",
"729 142 OFFCURVE",
"729 376 CURVE SMOOTH",
"729 584 OFFCURVE",
"597 714 OFFCURVE",
"392 714 CURVE SMOOTH",
"289 714 OFFCURVE",
"194 683 OFFCURVE",
"130 634 CURVE",
"172 519 LINE",
"241 564 OFFCURVE",
"294 585 OFFCURVE",
"375 586 CURVE SMOOTH",
"498 587 OFFCURVE",
"569 512 OFFCURVE",
"569 376 CURVE SMOOTH",
"569 218 OFFCURVE",
"499 116 OFFCURVE",
"380 116 CURVE SMOOTH",
"262 116 OFFCURVE",
"191 196 OFFCURVE",
"219 353 CURVE",
"173 295 LINE",
"623 295 LINE",
"633 418 LINE",
"63 418 LINE",
"59 366 LINE SMOOTH",
"41 128 OFFCURVE",
"160 -9 OFFCURVE",
"382 -9 CURVE SMOOTH"
);
}
);
};
layerId = "E1B555A7-F4E1-459C-9C1A-AE952106EEF9";
paths = (
{
closed = 1;
nodes = (
"589 -9 OFFCURVE",
"729 142 OFFCURVE",
"729 376 CURVE SMOOTH",
"729 574 OFFCURVE",
"604 714 OFFCURVE",
"395 714 CURVE SMOOTH",
"303 714 OFFCURVE",
"214 691 OFFCURVE",
"151 645 CURVE SMOOTH",
"89 599 OFFCURVE",
"113 483 OFFCURVE",
"216 543 CURVE SMOOTH",
"273 576 OFFCURVE",
"329 586 OFFCURVE",
"375 586 CURVE SMOOTH",
"498 587 OFFCURVE",
"569 512 OFFCURVE",
"569 376 CURVE SMOOTH",
"569 218 OFFCURVE",
"499 116 OFFCURVE",
"380 116 CURVE SMOOTH",
"262 116 OFFCURVE",
"191 196 OFFCURVE",
"219 353 CURVE",
"173 295 LINE",
"625 295 LINE",
"635 418 LINE",
"127 418 LINE SMOOTH",
"87 418 OFFCURVE",
"61 393 OFFCURVE",
"58 350 CURVE SMOOTH",
"57 335 OFFCURVE",
"56 320 OFFCURVE",
"56 306 CURVE SMOOTH",
"56 135 OFFCURVE",
"160 -9 OFFCURVE",
"382 -9 CURVE SMOOTH"
);
}
);
width = 769;
}
);
leftKerningGroup = O;
rightKerningGroup = O;
unicode = 018F;
},
{
glyphname = T;
layers = (
{
anchors = (
{
name = bottom;
position = "{293, 0}";
},
{
name = center;
position = "{321, 353}";
},
{
name = top;
position = "{348, 705}";
}
);
background = {
paths = (
{
closed = 1;
nodes = (
"374 0 LINE",
"419 574 LINE",
"638 574 LINE",
"648 705 LINE",
"48 705 LINE",
"38 574 LINE",
"257 574 LINE",
"212 0 LINE"
);
}
);
};
layerId = "E1B555A7-F4E1-459C-9C1A-AE952106EEF9";
paths = (
{
closed = 1;
nodes = (
"342 -5 OFFCURVE",
"376 26 OFFCURVE",
"380 74 CURVE SMOOTH",
"420 574 LINE",
"578 574 LINE SMOOTH",
"632 574 OFFCURVE",
"659 594 OFFCURVE",
"659 644 CURVE SMOOTH",
"659 683 OFFCURVE",
"636 705 OFFCURVE",
"588 705 CURVE SMOOTH",
"110 705 LINE SMOOTH",
"56 705 OFFCURVE",
"29 684 OFFCURVE",
"29 634 CURVE SMOOTH",
"29 595 OFFCURVE",
"53 574 OFFCURVE",
"100 574 CURVE SMOOTH",
"258 574 LINE",
"218 74 LINE SMOOTH",
"214 26 OFFCURVE",
"244 -5 OFFCURVE",
"293 -5 CURVE SMOOTH"
);
}
);
width = 624;
}
);
leftKerningGroup = T;
rightKerningGroup = T;
unicode = 0054;
userData = {
anchors = (
);
b = {
};
com.typemytype.robofont.layerData = {
b = {
anchors = (
);
components = (
);
contours = (
{
points = (
{
segmentType = curve;
smooth = 1;
x = 581;
y = 0;
},
{
segmentType = line;
smooth = 1;
x = 1350;
y = 0;
},
{
smooth = 0;
x = 1399;
y = 0;
},
{
smooth = 0;
x = 1423;
y = 34;
},
{
segmentType = curve;
smooth = 1;
x = 1423;
y = 71;
},
{
smooth = 0;
x = 1423;
y = 107;
},
{
smooth = 0;
x = 1399;
y = 141;
},
{
segmentType = curve;
smooth = 1;
x = 1350;
y = 141;
},
{
segmentType = line;
smooth = 0;
x = 671;
y = 141;
},
{
segmentType = line;
smooth = 0;
x = 671;
y = 665;
},
{
segmentType = line;
smooth = 1;
x = 1290;
y = 665;
},
{
smooth = 0;
x = 1339;
y = 665;
},
{
smooth = 0;
x = 1364;
y = 698;
},
{
segmentType = curve;
smooth = 1;
x = 1364;
y = 734;
},
{
smooth = 0;
x = 1364;
y = 770;
},
{
smooth = 0;
x = 1341;
y = 803;
},
{
segmentType = curve;
smooth = 1;
x = 1290;
y = 803;
},
{
segmentType = line;
smooth = 0;
x = 671;
y = 803;
},
{
segmentType = line;
smooth = 0;
x = 671;
y = 1285;
},
{
segmentType = line;
smooth = 1;
x = 1322;
y = 1285;
},
{
smooth = 0;
x = 1371;
y = 1285;
},
{
smooth = 0;
x = 1395;
y = 1319;
},
{
segmentType = curve;
smooth = 1;
x = 1395;
y = 1356;
},
{
smooth = 0;
x = 1395;
y = 1392;
},
{
smooth = 0;
x = 1371;
y = 1426;
},
{
segmentType = curve;
smooth = 1;
x = 1322;
y = 1426;
},
{
segmentType = line;
smooth = 1;
x = 576;
y = 1426;
},
{
smooth = 0;
x = 528;
y = 1426;
},
{
smooth = 0;
x = 493;
y = 1383;
},
{
segmentType = curve;
smooth = 1;
x = 493;
y = 1340;
},
{
segmentType = line;
smooth = 1;
x = 493;
y = 86;
},
{
smooth = 0;
x = 493;
y = 41;
},
{
smooth = 0;
x = 537;
y = 0;
}
);
}
);
lib = {
};
name = T;
unicodes = (
);
width = 1158;
};
};
components = (
);
contours = (
);
lib = {
};
name = T;
unicodes = (
);
width = 1199;
};
},
{
glyphname = Tbar;
layers = (
{
background = {
paths = (
{
closed = 1;
nodes = (
"532 295 LINE",
"542 417 LINE",
"110 417 LINE",
"100 295 LINE"
);
},
{
closed = 1;
nodes = (
"374 0 LINE",
"419 574 LINE",
"638 574 LINE",
"648 705 LINE",
"48 705 LINE",
"38 574 LINE",
"257 574 LINE",
"212 0 LINE"
);
}
);
};
layerId = "E1B555A7-F4E1-459C-9C1A-AE952106EEF9";
paths = (
{
closed = 1;
nodes = (
"342 -5 OFFCURVE",
"376 26 OFFCURVE",
"380 74 CURVE SMOOTH",
"420 574 LINE",
"578 574 LINE SMOOTH",
"632 574 OFFCURVE",
"659 594 OFFCURVE",
"659 644 CURVE SMOOTH",
"659 683 OFFCURVE",
"636 705 OFFCURVE",
"588 705 CURVE SMOOTH",
"110 705 LINE SMOOTH",
"56 705 OFFCURVE",
"29 684 OFFCURVE",
"29 634 CURVE SMOOTH",
"29 595 OFFCURVE",
"53 574 OFFCURVE",
"100 574 CURVE SMOOTH",
"258 574 LINE",
"218 74 LINE SMOOTH",
"214 26 OFFCURVE",
"244 -5 OFFCURVE",
"293 -5 CURVE SMOOTH"
);
},
{
closed = 1;
nodes = (
"475 295 LINE SMOOTH",
"523 295 OFFCURVE",
"552 316 OFFCURVE",
"552 359 CURVE SMOOTH",
"552 394 OFFCURVE",
"528 417 OFFCURVE",
"485 417 CURVE SMOOTH",
"167 417 LINE SMOOTH",
"119 417 OFFCURVE",
"90 396 OFFCURVE",
"90 353 CURVE SMOOTH",
"90 318 OFFCURVE",
"114 295 OFFCURVE",
"157 295 CURVE SMOOTH"
);
}
);
width = 624;
}
);
leftKerningGroup = T;
rightKerningGroup = T;
unicode = 0166;
userData = {
com.typemytype.robofont.layerData = {
b = {
anchors = (
);
components = (
);
contours = (
);
lib = {
};
name = Tbar;
unicodes = (
);
width = 1158;
};
};
};
},
{
glyphname = U;
layers = (
{
anchors = (
{
name = bottom;
position = "{351, 0}";
},
{
name = ogonek;
position = "{474, 10}";
},
{
name = top;
position = "{406, 705}";
},
{
name = topright;
position = "{632, 705}";
}
);
background = {
paths = (
{
closed = 1;
nodes = (
"557 -9 OFFCURVE",
"663 91 OFFCURVE",
"678 288 CURVE SMOOTH",
"711 705 LINE",
"553 705 LINE",
"519 277 LINE SMOOTH",
"509 157 OFFCURVE",
"455 116 OFFCURVE",
"373 116 CURVE SMOOTH",
"264 116 OFFCURVE",
"217 175 OFFCURVE",
"227 297 CURVE SMOOTH",
"259 705 LINE",
"101 705 LINE",
"69 302 LINE SMOOTH",
"53 96 OFFCURVE",
"153 -9 OFFCURVE",
"365 -9 CURVE SMOOTH"
);
}
);
};
layerId = "E1B555A7-F4E1-459C-9C1A-AE952106EEF9";
paths = (
{
closed = 1;
nodes = (
"557 -9 OFFCURVE",
"662 91 OFFCURVE",
"678 288 CURVE SMOOTH",
"705 631 LINE SMOOTH",
"709 679 OFFCURVE",
"680 710 OFFCURVE",
"632 710 CURVE SMOOTH",
"584 710 OFFCURVE",
"551 679 OFFCURVE",
"547 631 CURVE SMOOTH",
"519 277 LINE SMOOTH",
"510 157 OFFCURVE",
"455 116 OFFCURVE",
"373 116 CURVE SMOOTH",
"264 116 OFFCURVE",
"217 175 OFFCURVE",
"227 297 CURVE SMOOTH",
"253 631 LINE SMOOTH",
"257 679 OFFCURVE",
"228 710 OFFCURVE",
"180 710 CURVE SMOOTH",
"132 710 OFFCURVE",
"99 679 OFFCURVE",
"95 631 CURVE SMOOTH",
"69 302 LINE SMOOTH",
"53 96 OFFCURVE",
"153 -9 OFFCURVE",
"365 -9 CURVE SMOOTH"
);
}
);
width = 740;
}
);
leftKerningGroup = U;
rightKerningGroup = U;
unicode = 0055;
userData = {
anchors = (
);
b = {
};
com.typemytype.robofont.layerData = {
b = {
anchors = (
);
components = (
);
contours = (
);
lib = {
};
name = U;
unicodes = (
);
width = 1490;
};
};
components = (
);
contours = (
);
lib = {
};
name = U;
unicodes = (
);
width = 1513;
};
},
{
glyphname = Uhorn;
layers = (
{
anchors = (
{
name = bottom;
position = "{351, 0}";
},
{
name = top;
position = "{406, 705}";
}
);
background = {
paths = (
{
closed = 1;
nodes = (
"857 -9 OFFCURVE",
"962 91 OFFCURVE",
"978 288 CURVE SMOOTH",
"1005 631 LINE SMOOTH",
"1009 679 OFFCURVE",
"980 710 OFFCURVE",
"932 710 CURVE SMOOTH",
"884 710 OFFCURVE",
"851 679 OFFCURVE",
"847 631 CURVE SMOOTH",
"819 277 LINE SMOOTH",
"810 157 OFFCURVE",
"755 116 OFFCURVE",
"673 116 CURVE SMOOTH",
"564 116 OFFCURVE",
"517 175 OFFCURVE",
"527 297 CURVE SMOOTH",
"553 631 LINE SMOOTH",
"557 679 OFFCURVE",
"528 710 OFFCURVE",
"480 710 CURVE SMOOTH",
"432 710 OFFCURVE",
"399 679 OFFCURVE",
"395 631 CURVE SMOOTH",
"369 302 LINE SMOOTH",
"353 96 OFFCURVE",
"453 -9 OFFCURVE",
"665 -9 CURVE SMOOTH"
);
},
{
closed = 1;
nodes = (
"657 -10 OFFCURVE",
"796 143 OFFCURVE",
"796 376 CURVE SMOOTH",
"796 500 OFFCURVE",
"751 595 OFFCURVE",
"673 651 CURVE",
"668 630 LINE",
"765 630 OFFCURVE",
"830 706 OFFCURVE",
"830 796 CURVE SMOOTH",
"830 836 OFFCURVE",
"809 859 OFFCURVE",
"769 859 CURVE SMOOTH",
"726 859 OFFCURVE",
"703 834 OFFCURVE",
"696 796 CURVE SMOOTH",
"683 727 OFFCURVE",
"670 705 OFFCURVE",
"603 705 CURVE SMOOTH",
"559 705 OFFCURVE",
"523 715 OFFCURVE",
"465 715 CURVE SMOOTH",
"243 715 OFFCURVE",
"104 562 OFFCURVE",
"104 329 CURVE SMOOTH",
"104 119 OFFCURVE",
"236 -10 OFFCURVE",
"445 -10 CURVE SMOOTH"
);
},
{
closed = 1;
nodes = (
"329 116 OFFCURVE",
"265 192 OFFCURVE",
"265 329 CURVE SMOOTH",
"265 491 OFFCURVE",
"337 589 OFFCURVE",
"457 589 CURVE SMOOTH",
"569 589 OFFCURVE",
"635 513 OFFCURVE",
"635 376 CURVE SMOOTH",
"635 212 OFFCURVE",
"561 116 OFFCURVE",
"444 116 CURVE SMOOTH"
);
}
);
};
layerId = "E1B555A7-F4E1-459C-9C1A-AE952106EEF9";
paths = (
{
closed = 1;
nodes = (
"557 -9 OFFCURVE",
"662 91 OFFCURVE",
"678 288 CURVE SMOOTH",
"709 674 LINE",
"673 631 LINE",
"765 630 OFFCURVE",
"830 706 OFFCURVE",
"830 796 CURVE SMOOTH",
"830 836 OFFCURVE",
"809 859 OFFCURVE",
"769 859 CURVE SMOOTH",
"726 859 OFFCURVE",
"703 834 OFFCURVE",
"696 796 CURVE SMOOTH",
"683 727 OFFCURVE",
"668 712 OFFCURVE",
"628 711 CURVE SMOOTH",
"583 710 OFFCURVE",
"551 677 OFFCURVE",
"547 631 CURVE SMOOTH",
"519 277 LINE SMOOTH",
"510 168 OFFCURVE",
"468 116 OFFCURVE",
"373 116 CURVE SMOOTH",
"264 116 OFFCURVE",
"219 175 OFFCURVE",
"227 285 CURVE SMOOTH",
"253 631 LINE SMOOTH",
"257 679 OFFCURVE",
"228 710 OFFCURVE",
"180 710 CURVE SMOOTH",
"132 710 OFFCURVE",
"99 679 OFFCURVE",
"95 631 CURVE SMOOTH",
"69 302 LINE SMOOTH",
"53 96 OFFCURVE",
"153 -9 OFFCURVE",
"365 -9 CURVE SMOOTH"
);
}
);
width = 740;
}
);
leftKerningGroup = U;
rightKerningGroup = Uhorn;
unicode = 01AF;
},
{
glyphname = Uogonek;
layers = (
{
background = {
paths = (
{
closed = 1;
nodes = (
"451 -197 OFFCURVE",
"480 -190 OFFCURVE",
"508 -174 CURVE SMOOTH",
"543 -154 OFFCURVE",
"532 -97 OFFCURVE",
"495 -109 CURVE SMOOTH",
"476 -115 OFFCURVE",
"464 -117 OFFCURVE",
"447 -117 CURVE SMOOTH",
"416 -117 OFFCURVE",
"396 -96 OFFCURVE",
"399 -64 CURVE SMOOTH",
"402 -30 OFFCURVE",
"425 -5 OFFCURVE",
"466 6 CURVE SMOOTH",
"593 40 OFFCURVE",
"667 139 OFFCURVE",
"679 292 CURVE SMOOTH",
"706 631 LINE SMOOTH",
"710 679 OFFCURVE",
"681 710 OFFCURVE",
"633 710 CURVE SMOOTH",
"585 710 OFFCURVE",
"552 679 OFFCURVE",
"548 631 CURVE SMOOTH",
"521 285 LINE SMOOTH",
"512 176 OFFCURVE",
"455 116 OFFCURVE",
"360 116 CURVE SMOOTH",
"264 116 OFFCURVE",
"218 175 OFFCURVE",
"227 285 CURVE SMOOTH",
"254 631 LINE SMOOTH",
"258 679 OFFCURVE",
"229 710 OFFCURVE",
"181 710 CURVE SMOOTH",
"133 710 OFFCURVE",
"100 679 OFFCURVE",
"96 631 CURVE SMOOTH",
"69 292 LINE SMOOTH",
"53 95 OFFCURVE",
"150 -9 OFFCURVE",
"351 -9 CURVE SMOOTH",
"372 -9 LINE",
"363 11 LINE",
"325 -11 OFFCURVE",
"301 -48 OFFCURVE",
"298 -87 CURVE SMOOTH",
"293 -151 OFFCURVE",
"342 -197 OFFCURVE",
"417 -197 CURVE SMOOTH"
);
}
);
};
layerId = "E1B555A7-F4E1-459C-9C1A-AE952106EEF9";
paths = (
{
closed = 1;
nodes = (
"519 277 LINE SMOOTH",
"510 157 OFFCURVE",
"455 116 OFFCURVE",
"373 116 CURVE SMOOTH",
"264 116 OFFCURVE",
"217 175 OFFCURVE",
"227 297 CURVE SMOOTH",
"253 631 LINE SMOOTH",
"257 679 OFFCURVE",
"228 710 OFFCURVE",
"180 710 CURVE SMOOTH",
"132 710 OFFCURVE",
"99 679 OFFCURVE",
"95 631 CURVE SMOOTH",
"69 302 LINE SMOOTH",
"53 96 OFFCURVE",
"153 -9 OFFCURVE",
"360 -9 CURVE SMOOTH",
"372 -9 LINE",
"364 11 LINE",
"317 -11 OFFCURVE",
"298 -50 OFFCURVE",
"298 -91 CURVE SMOOTH",
"298 -153 OFFCURVE",
"347 -197 OFFCURVE",
"425 -197 CURVE SMOOTH",
"451 -197 OFFCURVE",
"480 -190 OFFCURVE",
"508 -174 CURVE SMOOTH",
"543 -154 OFFCURVE",
"532 -97 OFFCURVE",
"495 -109 CURVE SMOOTH",
"476 -115 OFFCURVE",
"464 -117 OFFCURVE",
"452 -117 CURVE SMOOTH",
"420 -117 OFFCURVE",
"399 -99 OFFCURVE",
"399 -67 CURVE SMOOTH",
"399 -32 OFFCURVE",
"425 -10 OFFCURVE",
"464 0 CURVE SMOOTH",
"600 35 OFFCURVE",
"666 134 OFFCURVE",
"678 288 CURVE SMOOTH",
"705 631 LINE SMOOTH",
"709 679 OFFCURVE",
"680 710 OFFCURVE",
"632 710 CURVE SMOOTH",
"584 710 OFFCURVE",
"551 679 OFFCURVE",
"547 631 CURVE SMOOTH"
);
}
);
width = 740;
}
);
leftKerningGroup = U;
rightKerningGroup = U;
unicode = 0172;
},
{
glyphname = V;
layers = (
{
anchors = (
{
name = bottom;
position = "{347, 0}";
},
{
name = top;
position = "{401, 705}";
}
);
background = {
paths = (
{
closed = 1;
nodes = (
"411 0 LINE",
"784 705 LINE",
"620 705 LINE",
"337 147 LINE",
"383 147 LINE",
"186 705 LINE",
"19 705 LINE",
"282 0 LINE"
);
}
);
};
layerId = "E1B555A7-F4E1-459C-9C1A-AE952106EEF9";
paths = (
{
closed = 1;
nodes = (
"734 609 LINE SMOOTH",
"781 697 OFFCURVE",
"645 756 OFFCURVE",
"601 668 CURVE SMOOTH",
"337 147 LINE",
"383 147 LINE",
"199 668 LINE SMOOTH",
"168 756 OFFCURVE",
"22 696 OFFCURVE",
"55 609 CURVE SMOOTH",
"266 43 LINE SMOOTH",
"291 -25 OFFCURVE",
"398 -22 OFFCURVE",
"433 43 CURVE SMOOTH"
);
}
);
width = 731;
}
);
leftKerningGroup = V;
rightKerningGroup = V;
unicode = 0056;
userData = {
anchors = (
);
b = {
};
com.typemytype.robofont.guides = (
);
com.typemytype.robofont.layerData = {
b = {
anchors = (
);
components = (
);
contours = (
{
points = (
{
segmentType = curve;
smooth = 1;
x = 644;
y = "-5";
},
{
smooth = 0;
x = 712;
y = "-5";
},
{
smooth = 0;
x = 764;
y = 38;
},
{
segmentType = curve;
smooth = 1;
x = 793;
y = 117;
},
{
segmentType = line;
smooth = 1;
x = 1243;
y = 1324;
},
{
smooth = 0;
x = 1247;
y = 1335;
},
{
smooth = 0;
x = 1248;
y = 1342;
},
{
segmentType = curve;
smooth = 1;
x = 1248;
y = 1351;
},
{
smooth = 0;
x = 1248;
y = 1395;
},
{
smooth = 0;
x = 1203;
y = 1427;
},
{
segmentType = curve;
smooth = 1;
x = 1160;
y = 1427;
},
{
smooth = 0;
x = 1125;
y = 1427;
},
{
smooth = 0;
x = 1090;
y = 1408;
},
{
segmentType = curve;
smooth = 1;
x = 1076;
y = 1369;
},
{
segmentType = line;
smooth = 0;
x = 651;
y = 192;
},
{
segmentType = line;
smooth = 0;
x = 650;
y = 190;
},
{
segmentType = line;
smooth = 1;
x = 214;
y = 1370;
},
{
smooth = 0;
x = 200;
y = 1407;
},
{
smooth = 0;
x = 170;
y = 1427;
},
{
segmentType = curve;
smooth = 1;
x = 135;
y = 1427;
},
{
smooth = 0;
x = 90;
y = 1427;
},
{
smooth = 0;
x = 43;
y = 1392;
},
{
segmentType = curve;
smooth = 1;
x = 43;
y = 1344;
},
{
smooth = 0;
x = 43;
y = 1336;
},
{
smooth = 0;
x = 44;
y = 1326;
},
{
segmentType = curve;
smooth = 0;
x = 48;
y = 1318;
},
{
segmentType = line;
smooth = 1;
x = 501;
y = 117;
},
{
smooth = 0;
x = 532;
y = 35;
},
{
smooth = 0;
x = 581;
y = "-5";
}
);
}
);
lib = {
};
name = V;
unicodes = (
);
width = 1289;
};
};
components = (
);
contours = (
);
lib = {
};
name = V;
unicodes = (
);
width = 1365;
};
},
{
glyphname = W;
layers = (
{
anchors = (
{
name = bottom;
position = "{539, 0}";
},
{
name = top;
position = "{594, 705}";
}
);
background = {
paths = (
{
closed = 1;
nodes = (
"377 0 LINE",
"589 492 LINE",
"565 492 LINE",
"700 0 LINE",
"829 0 LINE",
"1135 705 LINE",
"981 705 LINE",
"756 167 LINE",
"791 167 LINE",
"654 705 LINE",
"542 705 LINE",
"311 167 LINE",
"351 167 LINE",
"215 705 LINE",
"53 705 LINE",
"248 0 LINE"
);
}
);
};
layerId = "E1B555A7-F4E1-459C-9C1A-AE952106EEF9";
paths = (
{
closed = 1;
nodes = (
"256 -26 OFFCURVE",
"366 -26 OFFCURVE",
"396 44 CURVE SMOOTH",
"589 492 LINE",
"565 492 LINE",
"688 44 LINE SMOOTH",
"707 -25 OFFCURVE",
"818 -25 OFFCURVE",
"848 44 CURVE SMOOTH",
"1094 609 LINE SMOOTH",
"1141 716 OFFCURVE",
"998 751 OFFCURVE",
"961 661 CURVE SMOOTH",
"756 167 LINE",
"791 167 LINE",
"666 659 LINE SMOOTH",
"648 729 OFFCURVE",
"553 729 OFFCURVE",
"523 660 CURVE SMOOTH",
"311 167 LINE",
"351 167 LINE",
"226 661 LINE SMOOTH",
"204 750 OFFCURVE",
"49 716 OFFCURVE",
"79 609 CURVE SMOOTH",
"236 44 LINE SMOOTH"
);
}
);
width = 1116;
}
);
leftKerningGroup = V;
rightKerningGroup = V;
unicode = 0057;
userData = {
anchors = (
);
b = {
};
com.typemytype.robofont.layerData = {
b = {
anchors = (
);
components = (
);
contours = (
);
lib = {
};
name = W;
unicodes = (
);
width = 2126;
};
};
components = (
);
contours = (
);
lib = {
};
name = W;
unicodes = (
);
width = 2070;
};
},
{
glyphname = X;
layers = (
{
anchors = (
{
name = bottom;
position = "{320, 0}";
},
{
name = top;
position = "{374, 705}";
}
);
background = {
paths = (
{
closed = 1;
nodes = (
"1139 236 LINE",
"1237 355 LINE",
"1528 705 LINE",
"1338 705 LINE",
"1155 478 LINE",
"1057 359 LINE",
"759 0 LINE",
"949 0 LINE"
);
},
{
closed = 1;
nodes = (
"1479 0 LINE",
"1237 355 LINE",
"1155 478 LINE",
"1005 705 LINE",
"821 705 LINE",
"1057 359 LINE",
"1139 236 LINE",
"1295 0 LINE"
);
},
{
closed = 1;
nodes = (
"348 455 LINE",
"246 348 LINE",
"41 115 LINE SMOOTH",
"-26 39 OFFCURVE",
"79 -55 OFFCURVE",
"144 20 CURVE SMOOTH",
"330 233 LINE",
"433 344 LINE",
"645 588 LINE SMOOTH",
"712 666 OFFCURVE",
"605 759 OFFCURVE",
"542 684 CURVE SMOOTH"
);
},
{
closed = 1;
nodes = (
"125 758 OFFCURVE",
"5 664 OFFCURVE",
"63 588 CURVE SMOOTH",
"246 348 LINE",
"330 233 LINE",
"483 20 LINE SMOOTH",
"537 -55 OFFCURVE",
"655 39 OFFCURVE",
"600 115 CURVE SMOOTH",
"433 344 LINE",
"348 455 LINE",
"180 684 LINE SMOOTH"
);
}
);
};
layerId = "E1B555A7-F4E1-459C-9C1A-AE952106EEF9";
paths = (
{
closed = 1;
nodes = (
"339 249 LINE",
"441 356 LINE",
"646 589 LINE SMOOTH",
"713 665 OFFCURVE",
"608 759 OFFCURVE",
"543 684 CURVE SMOOTH",
"357 471 LINE",
"254 360 LINE",
"42 116 LINE SMOOTH",
"-25 38 OFFCURVE",
"80 -55 OFFCURVE",
"144 20 CURVE SMOOTH"
);
},
{
closed = 1;
nodes = (
"561 -54 OFFCURVE",
"680 40 OFFCURVE",
"622 116 CURVE SMOOTH",
"441 356 LINE",
"357 471 LINE",
"204 684 LINE SMOOTH",
"150 759 OFFCURVE",
"32 665 OFFCURVE",
"87 589 CURVE SMOOTH",
"254 360 LINE",
"339 249 LINE",
"507 20 LINE SMOOTH"
);
}
);
width = 677;
}
);
leftKerningGroup = X;
rightKerningGroup = X;
unicode = 0058;
userData = {
anchors = (
);
b = {
};
com.typemytype.robofont.layerData = {
b = {
anchors = (
);
components = (
);
contours = (
{
points = (
{
segmentType = curve;
smooth = 1;
x = 151;
y = 0;
},
{
smooth = 0;
x = 176;
y = 0;
},
{
smooth = 0;
x = 201;
y = 12;
},
{
segmentType = curve;
smooth = 1;
x = 222;
y = 41;
},
{
segmentType = line;
smooth = 0;
x = 641;
y = 616;
},
{
segmentType = line;
smooth = 0;
x = 746;
y = 734;
},
{
segmentType = line;
smooth = 1;
x = 1175;
y = 1310;
},
{
smooth = 0;
x = 1186;
y = 1325;
},
{
smooth = 0;
x = 1190;
y = 1338;
},
{
segmentType = curve;
smooth = 1;
x = 1190;
y = 1353;
},
{
smooth = 0;
x = 1190;
y = 1393;
},
{
smooth = 0;
x = 1153;
y = 1426;
},
{
segmentType = curve;
smooth = 1;
x = 1110;
y = 1426;
},
{
smooth = 0;
x = 1083;
y = 1426;
},
{
smooth = 0;
x = 1058;
y = 1414;
},
{
segmentType = curve;
smooth = 1;
x = 1037;
y = 1385;
},
{
segmentType = line;
smooth = 0;
x = 648;
y = 844;
},
{
segmentType = line;
smooth = 0;
x = 542;
y = 732;
},
{
segmentType = line;
smooth = 1;
x = 84;
y = 121;
},
{
smooth = 0;
x = 73;
y = 106;
},
{
smooth = 0;
x = 68;
y = 91;
},
{
segmentType = curve;
smooth = 1;
x = 68;
y = 76;
},
{
smooth = 0;
x = 68;
y = 35;
},
{
smooth = 0;
x = 108;
y = 0;
}
);
},
{
points = (
{
segmentType = curve;
smooth = 1;
x = 1104;
y = 0;
},
{
smooth = 0;
x = 1151;
y = 0;
},
{
smooth = 0;
x = 1200;
y = 40;
},
{
segmentType = curve;
smooth = 1;
x = 1200;
y = 85;
},
{
smooth = 0;
x = 1200;
y = 98;
},
{
smooth = 0;
x = 1195;
y = 113;
},
{
segmentType = curve;
smooth = 0;
x = 1186;
y = 126;
},
{
segmentType = line;
smooth = 0;
x = 272;
y = 1385;
},
{
smooth = 0;
x = 252;
y = 1414;
},
{
smooth = 0;
x = 225;
y = 1426;
},
{
segmentType = curve;
smooth = 1;
x = 197;
y = 1426;
},
{
smooth = 0;
x = 149;
y = 1426;
},
{
smooth = 0;
x = 100;
y = 1388;
},
{
segmentType = curve;
smooth = 1;
x = 100;
y = 1343;
},
{
smooth = 0;
x = 100;
y = 1328;
},
{
smooth = 0;
x = 105;
y = 1315;
},
{
segmentType = curve;
smooth = 0;
x = 114;
y = 1303;
},
{
segmentType = line;
smooth = 0;
x = 1033;
y = 40;
},
{
smooth = 0;
x = 1052;
y = 13;
},
{
smooth = 0;
x = 1076;
y = 0;
}
);
}
);
lib = {
};
name = X;
unicodes = (
);
width = 1274;
};
};
components = (
);
contours = (
);
lib = {
};
name = X;
unicodes = (
);
width = 1322;
};
},
{
glyphname = Y;
layers = (
{
anchors = (
{
name = bottom;
position = "{301, 0}";
},
{
name = top;
position = "{355, 705}";
},
{
name = topleft;
position = "{55, 705}";
}
);
background = {
paths = (
{
closed = 1;
nodes = (
"381 0 LINE",
"410 367 LINE",
"370 275 LINE",
"729 705 LINE",
"544 705 LINE",
"314 424 LINE",
"349 424 LINE",
"162 705 LINE",
"-17 705 LINE",
"275 275 LINE",
"249 367 LINE",
"220 0 LINE"
);
}
);
};
layerId = "E1B555A7-F4E1-459C-9C1A-AE952106EEF9";
paths = (
{
closed = 1;
nodes = (
"345 -6 OFFCURVE",
"383 20 OFFCURVE",
"387 74 CURVE SMOOTH",
"410 367 LINE",
"370 275 LINE",
"638 589 LINE SMOOTH",
"704 667 OFFCURVE",
"596 761 OFFCURVE",
"531 684 CURVE SMOOTH",
"314 424 LINE",
"349 424 LINE",
"175 680 LINE SMOOTH",
"121 759 OFFCURVE",
"2 666 OFFCURVE",
"53 593 CURVE SMOOTH",
"275 275 LINE",
"249 367 LINE",
"226 74 LINE SMOOTH",
"222 20 OFFCURVE",
"256 -6 OFFCURVE",
"301 -6 CURVE SMOOTH"
);
}
);
width = 639;
}
);
leftKerningGroup = Y;
rightKerningGroup = Y;
unicode = 0059;
userData = {
anchors = (
);
b = {
};
com.typemytype.robofont.guides = (
);
com.typemytype.robofont.layerData = {
b = {
anchors = (
);
components = (
);
contours = (
{
points = (
{
segmentType = curve;
smooth = 1;
x = 641;
y = 0;
},
{
smooth = 0;
x = 685;
y = 0;
},
{
smooth = 0;
x = 730;
y = 29;
},
{
segmentType = curve;
smooth = 1;
x = 730;
y = 85;
},
{
segmentType = line;
smooth = 0;
x = 730;
y = 1285;
},
{
segmentType = line;
smooth = 1;
x = 1115;
y = 1285;
},
{
smooth = 0;
x = 1164;
y = 1285;
},
{
smooth = 0;
x = 1190;
y = 1319;
},
{
segmentType = curve;
smooth = 1;
x = 1190;
y = 1355;
},
{
smooth = 0;
x = 1190;
y = 1392;
},
{
smooth = 0;
x = 1166;
y = 1426;
},
{
segmentType = curve;
smooth = 1;
x = 1115;
y = 1426;
},
{
segmentType = line;
smooth = 1;
x = 160;
y = 1426;
},
{
smooth = 0;
x = 111;
y = 1426;
},
{
smooth = 0;
x = 86;
y = 1392;
},
{
segmentType = curve;
smooth = 1;
x = 86;
y = 1355;
},
{
smooth = 0;
x = 86;
y = 1319;
},
{
smooth = 0;
x = 111;
y = 1285;
},
{
segmentType = curve;
smooth = 1;
x = 160;
y = 1285;
},
{
segmentType = line;
smooth = 0;
x = 552;
y = 1285;
},
{
segmentType = line;
smooth = 1;
x = 552;
y = 85;
},
{
smooth = 0;
x = 552;
y = 29;
},
{
smooth = 0;
x = 596;
y = 0;
}
);
}
);
lib = {
};
name = Y;
unicodes = (
);
width = 1278;
};
};
components = (
);
contours = (
);
lib = {
};
name = Y;
unicodes = (
);
width = 1321;
};
},
{
glyphname = Z;
layers = (
{
anchors = (
{
name = bottom;
position = "{284, 0}";
},
{
name = top;
position = "{343, 705}";
}
);
background = {
paths = (
{
closed = 1;
nodes = (
"557 0 LINE",
"567 127 LINE",
"190 127 LINE",
"190 83 LINE",
"592 589 LINE",
"601 705 LINE",
"86 705 LINE",
"76 578 LINE",
"441 578 LINE",
"441 622 LINE",
"40 118 LINE",
"31 0 LINE"
);
}
);
};
layerId = "E1B555A7-F4E1-459C-9C1A-AE952106EEF9";
paths = (
{
closed = 1;
nodes = (
"497 0 LINE SMOOTH",
"551 0 OFFCURVE",
"578 19 OFFCURVE",
"578 68 CURVE SMOOTH",
"578 106 OFFCURVE",
"555 127 OFFCURVE",
"507 127 CURVE SMOOTH",
"190 127 LINE",
"190 83 LINE",
"585 580 LINE SMOOTH",
"630 636 OFFCURVE",
"612 705 OFFCURVE",
"545 705 CURVE SMOOTH",
"149 705 LINE SMOOTH",
"95 705 OFFCURVE",
"68 685 OFFCURVE",
"68 635 CURVE SMOOTH",
"68 598 OFFCURVE",
"92 578 OFFCURVE",
"139 578 CURVE SMOOTH",
"441 578 LINE",
"441 622 LINE",
"46 125 LINE SMOOTH",
"1 69 OFFCURVE",
"19 0 OFFCURVE",
"86 0 CURVE SMOOTH"
);
}
);
width = 611;
}
);
leftKerningGroup = Z;
rightKerningGroup = Z;
unicode = 005A;
userData = {
anchors = (
);
b = {
};
com.typemytype.robofont.layerData = {
b = {
anchors = (
);
components = (
);
contours = (
{
points = (
{
segmentType = curve;
smooth = 1;
x = 266;
y = 0;
},
{
segmentType = line;
smooth = 1;
x = 1035;
y = 0;
},
{
smooth = 0;
x = 1084;
y = 0;
},
{
smooth = 0;
x = 1108;
y = 34;
},
{
segmentType = curve;
smooth = 1;
x = 1108;
y = 71;
},
{
smooth = 0;
x = 1108;
y = 107;
},
{
smooth = 0;
x = 1084;
y = 141;
},
{
segmentType = curve;
smooth = 1;
x = 1035;
y = 141;
},
{
segmentType = line;
smooth = 0;
x = 356;
y = 141;
},
{
segmentType = line;
smooth = 0;
x = 356;
y = 665;
},
{
segmentType = line;
smooth = 1;
x = 975;
y = 665;
},
{
smooth = 0;
x = 1024;
y = 665;
},
{
smooth = 0;
x = 1049;
y = 698;
},
{
segmentType = curve;
smooth = 1;
x = 1049;
y = 734;
},
{
smooth = 0;
x = 1049;
y = 770;
},
{
smooth = 0;
x = 1026;
y = 803;
},
{
segmentType = curve;
smooth = 1;
x = 975;
y = 803;
},
{
segmentType = line;
smooth = 0;
x = 356;
y = 803;
},
{
segmentType = line;
smooth = 0;
x = 356;
y = 1285;
},
{
segmentType = line;
smooth = 1;
x = 1007;
y = 1285;
},
{
smooth = 0;
x = 1056;
y = 1285;
},
{
smooth = 0;
x = 1080;
y = 1319;
},
{
segmentType = curve;
smooth = 1;
x = 1080;
y = 1356;
},
{
smooth = 0;
x = 1080;
y = 1392;
},
{
smooth = 0;
x = 1056;
y = 1426;
},
{
segmentType = curve;
smooth = 1;
x = 1007;
y = 1426;
},
{
segmentType = line;
smooth = 1;
x = 261;
y = 1426;
},
{
smooth = 0;
x = 213;
y = 1426;
},
{
smooth = 0;
x = 178;
y = 1383;
},
{
segmentType = curve;
smooth = 1;
x = 178;
y = 1340;
},
{
segmentType = line;
smooth = 1;
x = 178;
y = 86;
},
{
smooth = 0;
x = 178;
y = 41;
},
{
smooth = 0;
x = 222;
y = 0;
}
);
}
);
lib = {
};
name = Z;
unicodes = (
);
width = 1165;
};
};
components = (
);
contours = (
);
lib = {
};
name = Z;
unicodes = (
);
width = 1222;
};
},
{
glyphname = a;
layers = (
{
anchors = (
{
name = bottom;
position = "{256, 0}";
},
{
name = ogonek;
position = "{451, 10}";
},
{
name = top;
position = "{299, 495}";
}
);
background = {
paths = (
{
closed = 1;
nodes = (
"269 -8 OFFCURVE",
"326 33 OFFCURVE",
"343 98 CURVE",
"335 101 LINE",
"332 66 LINE SMOOTH",
"329 23 OFFCURVE",
"357 -6 OFFCURVE",
"400 -6 CURVE SMOOTH",
"447 -6 OFFCURVE",
"476 21 OFFCURVE",
"479 66 CURVE SMOOTH",
"497 289 LINE SMOOTH",
"508 433 OFFCURVE",
"446 503 OFFCURVE",
"300 503 CURVE SMOOTH",
"235 503 OFFCURVE",
"160 487 OFFCURVE",
"111 462 CURVE SMOOTH",
"84 448 OFFCURVE",
"70 432 OFFCURVE",
"68 405 CURVE SMOOTH",
"65 370 OFFCURVE",
"84 347 OFFCURVE",
"113 347 CURVE SMOOTH",
"123 347 OFFCURVE",
"135 350 OFFCURVE",
"152 357 CURVE",
"210 378 OFFCURVE",
"248 387 OFFCURVE",
"279 387 CURVE SMOOTH",
"335 387 OFFCURVE",
"355 364 OFFCURVE",
"351 310 CURVE SMOOTH",
"342 202 LINE SMOOTH",
"337 141 OFFCURVE",
"295 99 OFFCURVE",
"239 99 CURVE SMOOTH",
"203 99 OFFCURVE",
"178 124 OFFCURVE",
"181 160 CURVE SMOOTH",
"184 203 OFFCURVE",
"222 218 OFFCURVE",
"326 218 CURVE SMOOTH",
"359 218 LINE",
"365 293 LINE",
"323 293 LINE SMOOTH",
"116 293 OFFCURVE",
"38 255 OFFCURVE",
"30 149 CURVE SMOOTH",
"23 58 OFFCURVE",
"94 -8 OFFCURVE",
"195 -8 CURVE SMOOTH"
);
}
);
};
layerId = "E1B555A7-F4E1-459C-9C1A-AE952106EEF9";
paths = (
{
closed = 1;
nodes = (
"270 -8 OFFCURVE",
"322 28 OFFCURVE",
"343 90 CURVE",
"335 100 LINE",
"332 66 LINE SMOOTH",
"328 24 OFFCURVE",
"356 -6 OFFCURVE",
"400 -6 CURVE SMOOTH",
"446 -6 OFFCURVE",
"475 20 OFFCURVE",
"479 66 CURVE SMOOTH",
"496 281 LINE SMOOTH",
"508 430 OFFCURVE",
"438 503 OFFCURVE",
"285 503 CURVE SMOOTH",
"214 503 OFFCURVE",
"148 486 OFFCURVE",
"101 459 CURVE SMOOTH",
"29 417 OFFCURVE",
"69 323 OFFCURVE",
"144 356 CURVE SMOOTH",
"186 374 OFFCURVE",
"229 387 OFFCURVE",
"266 387 CURVE SMOOTH",
"326 387 OFFCURVE",
"354 361 OFFCURVE",
"350 305 CURVE SMOOTH",
"342 202 LINE SMOOTH",
"337 141 OFFCURVE",
"297 99 OFFCURVE",
"245 99 CURVE SMOOTH",
"206 99 OFFCURVE",
"181 121 OFFCURVE",
"181 154 CURVE SMOOTH",
"181 201 OFFCURVE",
"217 218 OFFCURVE",
"316 218 CURVE SMOOTH",
"359 218 LINE",
"365 293 LINE",
"313 293 LINE SMOOTH",
"109 293 OFFCURVE",
"30 249 OFFCURVE",
"30 137 CURVE SMOOTH",
"30 54 OFFCURVE",
"103 -8 OFFCURVE",
"201 -8 CURVE SMOOTH"
);
}
);
width = 547;
}
);
leftKerningGroup = a;
rightKerningGroup = n;
unicode = 0061;
userData = {
anchors = (
);
b = {
};
com.typemytype.robofont.layerData = {
b = {
anchors = (
);
components = (
);
contours = (
);
lib = {
};
name = a;
unicodes = (
);
width = 1040;
};
};
components = (
);
contours = (
);
lib = {
};
name = a;
unicodes = (
);
width = 1101;
};
},
{
glyphname = aogonek;
layers = (
{
background = {
paths = (
{
closed = 1;
nodes = (
"428 -197 OFFCURVE",
"457 -190 OFFCURVE",
"485 -174 CURVE SMOOTH",
"520 -154 OFFCURVE",
"509 -99 OFFCURVE",
"472 -109 CURVE SMOOTH",
"447 -116 OFFCURVE",
"438 -117 OFFCURVE",
"424 -117 CURVE SMOOTH",
"393 -117 OFFCURVE",
"373 -96 OFFCURVE",
"376 -64 CURVE SMOOTH",
"379 -36 OFFCURVE",
"398 -17 OFFCURVE",
"438 2 CURVE SMOOTH",
"463 14 OFFCURVE",
"477 35 OFFCURVE",
"479 66 CURVE SMOOTH",
"497 289 LINE SMOOTH",
"509 433 OFFCURVE",
"446 503 OFFCURVE",
"300 503 CURVE SMOOTH",
"235 503 OFFCURVE",
"160 487 OFFCURVE",
"111 462 CURVE SMOOTH",
"84 448 OFFCURVE",
"70 432 OFFCURVE",
"68 405 CURVE SMOOTH",
"65 370 OFFCURVE",
"84 347 OFFCURVE",
"113 347 CURVE SMOOTH",
"123 347 OFFCURVE",
"135 350 OFFCURVE",
"152 357 CURVE",
"210 378 OFFCURVE",
"248 387 OFFCURVE",
"279 387 CURVE SMOOTH",
"335 387 OFFCURVE",
"355 364 OFFCURVE",
"351 310 CURVE SMOOTH",
"342 202 LINE SMOOTH",
"337 141 OFFCURVE",
"295 99 OFFCURVE",
"239 99 CURVE SMOOTH",
"203 99 OFFCURVE",
"178 124 OFFCURVE",
"181 160 CURVE SMOOTH",
"184 202 OFFCURVE",
"222 218 OFFCURVE",
"326 218 CURVE SMOOTH",
"359 218 LINE",
"365 293 LINE",
"323 293 LINE SMOOTH",
"116 293 OFFCURVE",
"38 254 OFFCURVE",
"30 149 CURVE SMOOTH",
"23 58 OFFCURVE",
"94 -8 OFFCURVE",
"197 -8 CURVE SMOOTH",
"269 -8 OFFCURVE",
"326 33 OFFCURVE",
"343 98 CURVE",
"335 101 LINE",
"332 66 LINE SMOOTH",
"330 38 OFFCURVE",
"341 15 OFFCURVE",
"363 2 CURVE",
"379 37 LINE",
"317 13 OFFCURVE",
"280 -31 OFFCURVE",
"275 -84 CURVE SMOOTH",
"269 -151 OFFCURVE",
"318 -197 OFFCURVE",
"394 -197 CURVE SMOOTH"
);
}
);
};
layerId = "E1B555A7-F4E1-459C-9C1A-AE952106EEF9";
paths = (
{
closed = 1;
nodes = (
"428 -197 OFFCURVE",
"457 -190 OFFCURVE",
"485 -174 CURVE SMOOTH",
"520 -154 OFFCURVE",
"509 -99 OFFCURVE",
"472 -109 CURVE SMOOTH",
"447 -116 OFFCURVE",
"438 -117 OFFCURVE",
"429 -117 CURVE SMOOTH",
"396 -117 OFFCURVE",
"376 -98 OFFCURVE",
"376 -67 CURVE SMOOTH",
"376 -38 OFFCURVE",
"398 -17 OFFCURVE",
"438 2 CURVE SMOOTH",
"463 14 OFFCURVE",
"477 35 OFFCURVE",
"479 66 CURVE SMOOTH",
"496 281 LINE SMOOTH",
"508 430 OFFCURVE",
"438 503 OFFCURVE",
"285 503 CURVE SMOOTH",
"217 503 OFFCURVE",
"150 487 OFFCURVE",
"101 459 CURVE SMOOTH",
"29 417 OFFCURVE",
"69 323 OFFCURVE",
"144 356 CURVE SMOOTH",
"191 377 OFFCURVE",
"232 387 OFFCURVE",
"266 387 CURVE SMOOTH",
"327 387 OFFCURVE",
"354 360 OFFCURVE",
"350 305 CURVE SMOOTH",
"342 202 LINE SMOOTH",
"337 141 OFFCURVE",
"297 99 OFFCURVE",
"245 99 CURVE SMOOTH",
"206 99 OFFCURVE",
"181 120 OFFCURVE",
"181 151 CURVE SMOOTH",
"181 200 OFFCURVE",
"217 218 OFFCURVE",
"316 218 CURVE SMOOTH",
"359 218 LINE",
"365 293 LINE",
"313 293 LINE SMOOTH",
"109 293 OFFCURVE",
"30 249 OFFCURVE",
"30 137 CURVE SMOOTH",
"30 54 OFFCURVE",
"101 -8 OFFCURVE",
"197 -8 CURVE SMOOTH",
"269 -8 OFFCURVE",
"322 27 OFFCURVE",
"343 90 CURVE",
"335 100 LINE",
"332 66 LINE SMOOTH",
"330 38 OFFCURVE",
"341 15 OFFCURVE",
"363 2 CURVE",
"379 33 LINE",
"314 12 OFFCURVE",
"275 -34 OFFCURVE",
"275 -91 CURVE SMOOTH",
"275 -155 OFFCURVE",
"326 -197 OFFCURVE",
"402 -197 CURVE SMOOTH"
);
}
);
width = 547;
}
);
leftKerningGroup = a;
rightKerningGroup = n;
unicode = 0105;
userData = {
com.typemytype.robofont.layerData = {
b = {
anchors = (
);
components = (
);
contours = (
);
lib = {
};
name = aogonek;
unicodes = (
);
width = 1040;
};
};
};
},
{
glyphname = aringacute;
layers = (
{
background = {
paths = (
{
closed = 1;
nodes = (
"269 -8 OFFCURVE",
"326 33 OFFCURVE",
"343 98 CURVE",
"335 101 LINE",
"332 66 LINE SMOOTH",
"329 23 OFFCURVE",
"357 -6 OFFCURVE",
"400 -6 CURVE SMOOTH",
"447 -6 OFFCURVE",
"476 21 OFFCURVE",
"479 66 CURVE SMOOTH",
"497 289 LINE SMOOTH",
"508 433 OFFCURVE",
"446 503 OFFCURVE",
"300 503 CURVE SMOOTH",
"235 503 OFFCURVE",
"160 487 OFFCURVE",
"111 462 CURVE SMOOTH",
"84 448 OFFCURVE",
"70 432 OFFCURVE",
"68 405 CURVE SMOOTH",
"65 370 OFFCURVE",
"84 347 OFFCURVE",
"113 347 CURVE SMOOTH",
"123 347 OFFCURVE",
"135 350 OFFCURVE",
"152 357 CURVE",
"210 378 OFFCURVE",
"248 387 OFFCURVE",
"279 387 CURVE SMOOTH",
"335 387 OFFCURVE",
"355 364 OFFCURVE",
"351 310 CURVE SMOOTH",
"342 202 LINE SMOOTH",
"337 141 OFFCURVE",
"295 99 OFFCURVE",
"239 99 CURVE SMOOTH",
"203 99 OFFCURVE",
"178 124 OFFCURVE",
"181 160 CURVE SMOOTH",
"184 203 OFFCURVE",
"222 218 OFFCURVE",
"326 218 CURVE SMOOTH",
"359 218 LINE",
"365 293 LINE",
"323 293 LINE SMOOTH",
"116 293 OFFCURVE",
"38 255 OFFCURVE",
"30 149 CURVE SMOOTH",
"23 58 OFFCURVE",
"94 -8 OFFCURVE",
"195 -8 CURVE SMOOTH"
);
},
{
closed = 1;
nodes = (
"365 550 OFFCURVE",
"417 597 OFFCURVE",
"422 658 CURVE SMOOTH",
"427 719 OFFCURVE",
"382 766 OFFCURVE",
"321 766 CURVE SMOOTH",
"260 766 OFFCURVE",
"207 719 OFFCURVE",
"202 658 CURVE SMOOTH",
"197 597 OFFCURVE",
"243 550 OFFCURVE",
"304 550 CURVE SMOOTH"
);
},
{
closed = 1;
nodes = (
"284 613 OFFCURVE",
"267 633 OFFCURVE",
"269 658 CURVE SMOOTH",
"271 683 OFFCURVE",
"291 703 OFFCURVE",
"316 703 CURVE SMOOTH",
"341 703 OFFCURVE",
"357 683 OFFCURVE",
"355 658 CURVE SMOOTH",
"353 633 OFFCURVE",
"334 613 OFFCURVE",
"309 613 CURVE SMOOTH"
);
},
{
closed = 1;
nodes = (
"516 749 LINE SMOOTH",
"613 793 OFFCURVE",
"536 908 OFFCURVE",
"457 836 CURVE SMOOTH",
"366 753 LINE SMOOTH",
"330 721 OFFCURVE",
"363 679 OFFCURVE",
"403 697 CURVE SMOOTH"
);
}
);
};
layerId = "E1B555A7-F4E1-459C-9C1A-AE952106EEF9";
paths = (
{
closed = 1;
nodes = (
"270 -8 OFFCURVE",
"322 28 OFFCURVE",
"343 90 CURVE",
"335 100 LINE",
"332 66 LINE SMOOTH",
"328 24 OFFCURVE",
"356 -6 OFFCURVE",
"400 -6 CURVE SMOOTH",
"446 -6 OFFCURVE",
"475 20 OFFCURVE",
"479 66 CURVE SMOOTH",
"496 281 LINE SMOOTH",
"508 430 OFFCURVE",
"438 503 OFFCURVE",
"285 503 CURVE SMOOTH",
"214 503 OFFCURVE",
"148 486 OFFCURVE",
"101 459 CURVE SMOOTH",
"29 417 OFFCURVE",
"69 323 OFFCURVE",
"144 356 CURVE SMOOTH",
"186 374 OFFCURVE",
"229 387 OFFCURVE",
"266 387 CURVE SMOOTH",
"326 387 OFFCURVE",
"354 361 OFFCURVE",
"350 305 CURVE SMOOTH",
"342 202 LINE SMOOTH",
"337 141 OFFCURVE",
"297 99 OFFCURVE",
"245 99 CURVE SMOOTH",
"206 99 OFFCURVE",
"181 121 OFFCURVE",
"181 154 CURVE SMOOTH",
"181 201 OFFCURVE",
"217 218 OFFCURVE",
"316 218 CURVE SMOOTH",
"359 218 LINE",
"365 293 LINE",
"313 293 LINE SMOOTH",
"109 293 OFFCURVE",
"30 249 OFFCURVE",
"30 137 CURVE SMOOTH",
"30 54 OFFCURVE",
"103 -8 OFFCURVE",
"201 -8 CURVE SMOOTH"
);
},
{
closed = 1;
nodes = (
"373 550 OFFCURVE",
"422 597 OFFCURVE",
"422 658 CURVE SMOOTH",
"422 719 OFFCURVE",
"373 766 OFFCURVE",
"312 766 CURVE SMOOTH",
"251 766 OFFCURVE",
"202 719 OFFCURVE",
"202 658 CURVE SMOOTH",
"202 597 OFFCURVE",
"251 550 OFFCURVE",
"312 550 CURVE SMOOTH"
);
},
{
closed = 1;
nodes = (
"287 613 OFFCURVE",
"269 633 OFFCURVE",
"269 658 CURVE SMOOTH",
"269 683 OFFCURVE",
"287 703 OFFCURVE",
"312 703 CURVE SMOOTH",
"337 703 OFFCURVE",
"355 683 OFFCURVE",
"355 658 CURVE SMOOTH",
"355 633 OFFCURVE",
"337 613 OFFCURVE",
"312 613 CURVE SMOOTH"
);
},
{
closed = 1;
nodes = (
"509 749 LINE SMOOTH",
"602 793 OFFCURVE",
"516 908 OFFCURVE",
"443 836 CURVE SMOOTH",
"358 753 LINE SMOOTH",
"325 721 OFFCURVE",
"361 679 OFFCURVE",
"400 697 CURVE SMOOTH"
);
}
);
width = 547;
}
);
leftKerningGroup = a;
rightKerningGroup = n;
unicode = 01FB;
},
{
glyphname = ae;
layers = (
{
anchors = (
{
name = bottom;
position = "{398, 0}";
},
{
name = top;
position = "{437, 495}";
}
);
background = {
paths = (
{
closed = 1;
nodes = (
"656 -8 OFFCURVE",
"716 8 OFFCURVE",
"751 31 CURVE SMOOTH",
"809 69 OFFCURVE",
"784 172 OFFCURVE",
"712 136 CURVE SMOOTH",
"678 119 OFFCURVE",
"650 108 OFFCURVE",
"605 108 CURVE SMOOTH",
"525 108 OFFCURVE",
"484 151 OFFCURVE",
"484 237 CURVE SMOOTH",
"484 343 OFFCURVE",
"519 396 OFFCURVE",
"590 396 CURVE SMOOTH",
"649 396 OFFCURVE",
"679 355 OFFCURVE",
"675 278 CURVE",
"714 293 LINE",
"478 293 LINE",
"471 216 LINE",
"761 216 LINE SMOOTH",
"788 216 OFFCURVE",
"805 233 OFFCURVE",
"805 262 CURVE SMOOTH",
"805 415 OFFCURVE",
"725 503 OFFCURVE",
"585 503 CURVE SMOOTH",
"439 503 OFFCURVE",
"335 390 OFFCURVE",
"335 233 CURVE SMOOTH",
"335 87 OFFCURVE",
"438 -8 OFFCURVE",
"594 -8 CURVE SMOOTH"
);
},
{
closed = 1;
nodes = (
"1228 -8 OFFCURVE",
"1311 65 OFFCURVE",
"1321 193 CURVE",
"1372 202 LINE",
"1379 289 LINE SMOOTH",
"1391 436 OFFCURVE",
"1333 503 OFFCURVE",
"1196 503 CURVE SMOOTH",
"1128 503 OFFCURVE",
"1060 488 OFFCURVE",
"1011 462 CURVE SMOOTH",
"985 448 OFFCURVE",
"970 429 OFFCURVE",
"968 405 CURVE SMOOTH",
"965 370 OFFCURVE",
"983 347 OFFCURVE",
"1010 347 CURVE SMOOTH",
"1049 347 OFFCURVE",
"1089 387 OFFCURVE",
"1178 387 CURVE SMOOTH",
"1232 387 OFFCURVE",
"1253 364 OFFCURVE",
"1249 310 CURVE SMOOTH",
"1240 202 LINE SMOOTH",
"1235 144 OFFCURVE",
"1194 99 OFFCURVE",
"1144 99 CURVE SMOOTH",
"1104 99 OFFCURVE",
"1078 123 OFFCURVE",
"1081 160 CURVE SMOOTH",
"1084 203 OFFCURVE",
"1122 218 OFFCURVE",
"1224 218 CURVE SMOOTH",
"1247 218 LINE",
"1253 293 LINE",
"1221 293 LINE SMOOTH",
"1016 293 OFFCURVE",
"938 255 OFFCURVE",
"930 149 CURVE SMOOTH",
"923 57 OFFCURVE",
"1000 -8 OFFCURVE",
"1114 -8 CURVE SMOOTH"
);
},
{
closed = 1;
nodes = (
"1533 -8 OFFCURVE",
"1601 9 OFFCURVE",
"1647 33 CURVE SMOOTH",
"1672 46 OFFCURVE",
"1687 66 OFFCURVE",
"1689 90 CURVE SMOOTH",
"1692 125 OFFCURVE",
"1675 148 OFFCURVE",
"1648 148 CURVE SMOOTH",
"1611 148 OFFCURVE",
"1565 108 OFFCURVE",
"1496 108 CURVE SMOOTH",
"1415 108 OFFCURVE",
"1384 155 OFFCURVE",
"1393 263 CURVE SMOOTH",
"1400 349 OFFCURVE",
"1438 396 OFFCURVE",
"1501 396 CURVE SMOOTH",
"1555 396 OFFCURVE",
"1582 354 OFFCURVE",
"1576 278 CURVE",
"1615 293 LINE",
"1385 293 LINE",
"1378 216 LINE",
"1662 216 LINE SMOOTH",
"1688 216 OFFCURVE",
"1703 232 OFFCURVE",
"1706 262 CURVE SMOOTH",
"1720 406 OFFCURVE",
"1639 503 OFFCURVE",
"1513 503 CURVE SMOOTH",
"1376 503 OFFCURVE",
"1276 400 OFFCURVE",
"1264 247 CURVE SMOOTH",
"1251 84 OFFCURVE",
"1330 -8 OFFCURVE",
"1483 -8 CURVE SMOOTH"
);
}
);
};
layerId = "E1B555A7-F4E1-459C-9C1A-AE952106EEF9";
paths = (
{
closed = 1;
nodes = (
"328 -8 OFFCURVE",
"421 65 OFFCURVE",
"431 193 CURVE",
"472 202 LINE",
"479 289 LINE SMOOTH",
"489 414 OFFCURVE",
"442 503 OFFCURVE",
"295 503 CURVE SMOOTH",
"214 503 OFFCURVE",
"148 486 OFFCURVE",
"101 459 CURVE SMOOTH",
"29 417 OFFCURVE",
"69 323 OFFCURVE",
"144 356 CURVE SMOOTH",
"186 374 OFFCURVE",
"229 387 OFFCURVE",
"264 387 CURVE SMOOTH",
"326 387 OFFCURVE",
"352 362 OFFCURVE",
"348 305 CURVE SMOOTH",
"340 202 LINE SMOOTH",
"335 141 OFFCURVE",
"295 99 OFFCURVE",
"244 99 CURVE SMOOTH",
"206 99 OFFCURVE",
"181 120 OFFCURVE",
"181 151 CURVE SMOOTH",
"181 200 OFFCURVE",
"216 218 OFFCURVE",
"316 218 CURVE SMOOTH",
"347 218 LINE",
"353 293 LINE",
"313 293 LINE SMOOTH",
"109 293 OFFCURVE",
"30 249 OFFCURVE",
"30 137 CURVE SMOOTH",
"30 53 OFFCURVE",
"102 -8 OFFCURVE",
"214 -8 CURVE SMOOTH"
);
},
{
closed = 1;
nodes = (
"656 -8 OFFCURVE",
"716 8 OFFCURVE",
"751 31 CURVE SMOOTH",
"809 69 OFFCURVE",
"784 172 OFFCURVE",
"712 136 CURVE SMOOTH",
"678 119 OFFCURVE",
"650 108 OFFCURVE",
"610 108 CURVE SMOOTH",
"533 108 OFFCURVE",
"491 150 OFFCURVE",
"491 237 CURVE SMOOTH",
"491 349 OFFCURVE",
"530 396 OFFCURVE",
"595 396 CURVE SMOOTH",
"649 396 OFFCURVE",
"679 355 OFFCURVE",
"675 278 CURVE",
"715 293 LINE",
"485 293 LINE",
"478 216 LINE",
"761 216 LINE SMOOTH",
"788 216 OFFCURVE",
"805 233 OFFCURVE",
"805 262 CURVE SMOOTH",
"805 415 OFFCURVE",
"725 503 OFFCURVE",
"599 503 CURVE SMOOTH",
"461 503 OFFCURVE",
"362 393 OFFCURVE",
"362 233 CURVE SMOOTH",
"362 87 OFFCURVE",
"447 -8 OFFCURVE",
"598 -8 CURVE SMOOTH"
);
}
);
width = 836;
}
);
leftKerningGroup = a;
rightKerningGroup = e;
unicode = 00E6;
userData = {
com.typemytype.robofont.layerData = {
b = {
anchors = (
);
components = (
);
contours = (
);
lib = {
};
name = ae;
unicodes = (
);
width = 1734;
};
};
};
},
{
glyphname = b;
layers = (
{
anchors = (
{
name = bottom;
position = "{289, 0}";
},
{
name = top;
position = "{385, 495}";
}
);
background = {
paths = (
{
closed = 1;
nodes = (
"488 -8 OFFCURVE",
"583 105 OFFCURVE",
"583 267 CURVE SMOOTH",
"583 414 OFFCURVE",
"498 503 OFFCURVE",
"374 503 CURVE SMOOTH",
"300 503 OFFCURVE",
"240 468 OFFCURVE",
"212 411 CURVE",
"223 380 LINE",
"249 705 LINE",
"93 705 LINE",
"38 0 LINE",
"192 0 LINE",
"201 118 LINE",
"190 79 LINE",
"221 24 OFFCURVE",
"274 -8 OFFCURVE",
"348 -8 CURVE SMOOTH"
);
},
{
closed = 1;
nodes = (
"249 109 OFFCURVE",
"211 153 OFFCURVE",
"211 240 CURVE SMOOTH",
"211 328 OFFCURVE",
"253 386 OFFCURVE",
"321 386 CURVE SMOOTH",
"389 386 OFFCURVE",
"428 340 OFFCURVE",
"428 257 CURVE SMOOTH",
"428 166 OFFCURVE",
"386 109 OFFCURVE",
"316 109 CURVE SMOOTH"
);
}
);
};
layerId = "E1B555A7-F4E1-459C-9C1A-AE952106EEF9";
paths = (
{
closed = 1;
nodes = (
"488 -8 OFFCURVE",
"583 105 OFFCURVE",
"583 267 CURVE SMOOTH",
"583 414 OFFCURVE",
"498 503 OFFCURVE",
"374 503 CURVE SMOOTH",
"300 503 OFFCURVE",
"240 468 OFFCURVE",
"212 411 CURVE",
"223 380 LINE",
"244 642 LINE SMOOTH",
"247 683 OFFCURVE",
"220 710 OFFCURVE",
"174 710 CURVE SMOOTH",
"126 710 OFFCURVE",
"91 681 OFFCURVE",
"88 639 CURVE SMOOTH",
"43 67 LINE SMOOTH",
"40 23 OFFCURVE",
"68 -6 OFFCURVE",
"115 -6 CURVE SMOOTH",
"162 -6 OFFCURVE",
"194 23 OFFCURVE",
"197 67 CURVE SMOOTH",
"201 118 LINE",
"190 79 LINE",
"221 24 OFFCURVE",
"274 -8 OFFCURVE",
"348 -8 CURVE SMOOTH"
);
},
{
closed = 1;
nodes = (
"249 109 OFFCURVE",
"211 153 OFFCURVE",
"211 240 CURVE SMOOTH",
"211 328 OFFCURVE",
"253 386 OFFCURVE",
"321 386 CURVE SMOOTH",
"389 386 OFFCURVE",
"428 340 OFFCURVE",
"428 257 CURVE SMOOTH",
"428 166 OFFCURVE",
"386 109 OFFCURVE",
"316 109 CURVE SMOOTH"
);
}
);
width = 615;
}
);
leftKerningGroup = h;
rightKerningGroup = o;
unicode = 0062;
userData = {
anchors = (
);
b = {
};
com.typemytype.robofont.layerData = {
b = {
anchors = (
);
components = (
);
contours = (
{
points = (
{
segmentType = curve;
smooth = 1;
x = 238;
y = 1425;
},
{
smooth = 0;
x = 198;
y = 1425;
},
{
smooth = 0;
x = 158;
y = 1400;
},
{
segmentType = curve;
smooth = 1;
x = 158;
y = 1351;
},
{
segmentType = line;
smooth = 1;
x = 158;
y = 76;
},
{
smooth = 0;
x = 158;
y = 27;
},
{
smooth = 0;
x = 197;
y = 3;
},
{
segmentType = curve;
smooth = 1;
x = 237;
y = 3;
},
{
smooth = 0;
x = 297;
y = 3;
},
{
smooth = 0;
x = 318;
y = 38;
},
{
segmentType = curve;
smooth = 1;
x = 318;
y = 76;
},
{
segmentType = line;
smooth = 0;
x = 318;
y = 183;
},
{
smooth = 0;
x = 384;
y = 46;
},
{
smooth = 0;
x = 516;
y = "-20";
},
{
segmentType = curve;
smooth = 1;
x = 666;
y = "-20";
},
{
smooth = 0;
x = 957;
y = "-20";
},
{
smooth = 0;
x = 1095;
y = 225;
},
{
segmentType = curve;
smooth = 1;
x = 1095;
y = 502;
},
{
smooth = 0;
x = 1095;
y = 777;
},
{
smooth = 0;
x = 939;
y = 1013;
},
{
segmentType = curve;
smooth = 1;
x = 650;
y = 1013;
},
{
smooth = 0;
x = 503;
y = 1013;
},
{
smooth = 0;
x = 376;
y = 942;
},
{
segmentType = curve;
smooth = 0;
x = 318;
y = 814;
},
{
segmentType = line;
smooth = 1;
x = 318;
y = 1351;
},
{
smooth = 0;
x = 318;
y = 1400;
},
{
smooth = 0;
x = 278;
y = 1425;
}
);
},
{
points = (
{
segmentType = curve;
smooth = 1;
x = 632;
y = 903;
},
{
smooth = 0;
x = 859;
y = 903;
},
{
smooth = 0;
x = 935;
y = 685;
},
{
segmentType = curve;
smooth = 1;
x = 935;
y = 496;
},
{
smooth = 0;
x = 935;
y = 316;
},
{
smooth = 0;
x = 869;
y = 93;
},
{
segmentType = curve;
smooth = 0;
x = 645;
y = 90;
},
{
smooth = 0;
x = 395;
y = 90;
},
{
smooth = 0;
x = 319;
y = 279;
},
{
segmentType = curve;
smooth = 1;
x = 319;
y = 501;
},
{
smooth = 0;
x = 319;
y = 701;
},
{
smooth = 0;
x = 407;
y = 903;
}
);
}
);
lib = {
};
name = b;
unicodes = (
);
width = 1181;
};
};
components = (
);
contours = (
);
lib = {
};
name = b;
unicodes = (
);
width = 1203;
};
},
{
glyphname = c;
layers = (
{
anchors = (
{
name = bottom;
position = "{267, 0}";
},
{
name = top;
position = "{315, 495}";
}
);
background = {
anchors = (
{
name = bottom;
position = "{286, 0}";
},
{
name = top;
position = "{373, 495}";
}
);
paths = (
{
closed = 1;
nodes = (
"327 -8 OFFCURVE",
"387 7 OFFCURVE",
"433 34 CURVE SMOOTH",
"455 47 OFFCURVE",
"466 66 OFFCURVE",
"468 90 CURVE SMOOTH",
"471 126 OFFCURVE",
"454 151 OFFCURVE",
"427 151 CURVE SMOOTH",
"384 151 OFFCURVE",
"352 111 OFFCURVE",
"295 111 CURVE SMOOTH",
"223 111 OFFCURVE",
"187 159 OFFCURVE",
"194 248 CURVE SMOOTH",
"201 337 OFFCURVE",
"244 384 OFFCURVE",
"316 384 CURVE SMOOTH",
"373 384 OFFCURVE",
"399 344 OFFCURVE",
"442 344 CURVE SMOOTH",
"469 344 OFFCURVE",
"490 369 OFFCURVE",
"493 405 CURVE SMOOTH",
"495 429 OFFCURVE",
"487 448 OFFCURVE",
"467 461 CURVE SMOOTH",
"427 487 OFFCURVE",
"370 503 OFFCURVE",
"316 503 CURVE SMOOTH",
"160 503 OFFCURVE",
"46 400 OFFCURVE",
"33 245 CURVE SMOOTH",
"21 90 OFFCURVE",
"111 -8 OFFCURVE",
"266 -8 CURVE SMOOTH"
);
},
{
closed = 1;
nodes = (
"359 -8 OFFCURVE",
"426 14 OFFCURVE",
"471 52 CURVE",
"460 88 OFFCURVE",
"450 123 OFFCURVE",
"439 159 CURVE",
"397 129 OFFCURVE",
"354 111 OFFCURVE",
"304 111 CURVE SMOOTH",
"237 111 OFFCURVE",
"193 153 OFFCURVE",
"193 235 CURVE SMOOTH",
"193 330 OFFCURVE",
"239 384 OFFCURVE",
"318 384 CURVE SMOOTH",
"363 384 OFFCURVE",
"410 367 OFFCURVE",
"452 336 CURVE",
"469 372 OFFCURVE",
"485 407 OFFCURVE",
"502 443 CURVE",
"455 480 OFFCURVE",
"391 503 OFFCURVE",
"309 503 CURVE SMOOTH",
"142 503 OFFCURVE",
"33 402 OFFCURVE",
"33 232 CURVE SMOOTH",
"33 88 OFFCURVE",
"133 -8 OFFCURVE",
"293 -8 CURVE SMOOTH"
);
}
);
};
layerId = "E1B555A7-F4E1-459C-9C1A-AE952106EEF9";
paths = (
{
closed = 1;
nodes = (
"347 -8 OFFCURVE",
"407 8 OFFCURVE",
"442 31 CURVE SMOOTH",
"500 69 OFFCURVE",
"475 172 OFFCURVE",
"403 136 CURVE SMOOTH",
"369 119 OFFCURVE",
"341 111 OFFCURVE",
"304 111 CURVE SMOOTH",
"234 111 OFFCURVE",
"193 157 OFFCURVE",
"193 235 CURVE SMOOTH",
"193 330 OFFCURVE",
"239 384 OFFCURVE",
"318 384 CURVE SMOOTH",
"355 384 OFFCURVE",
"392 372 OFFCURVE",
"421 357 CURVE SMOOTH",
"489 322 OFFCURVE",
"524 433 OFFCURVE",
"468 466 CURVE SMOOTH",
"432 488 OFFCURVE",
"375 503 OFFCURVE",
"309 503 CURVE SMOOTH",
"139 503 OFFCURVE",
"33 399 OFFCURVE",
"33 232 CURVE SMOOTH",
"33 86 OFFCURVE",
"135 -8 OFFCURVE",
"293 -8 CURVE SMOOTH"
);
}
);
width = 495;
}
);
leftKerningGroup = o;
rightKerningGroup = c;
unicode = 0063;
userData = {
anchors = (
);
b = {
};
com.typemytype.robofont.layerData = {
b = {
anchors = (
);
components = (
);
contours = (
);
lib = {
};
name = c;
unicodes = (
);
width = 956.14099;
};
};
components = (
);
contours = (
);
lib = {
};
name = c;
unicodes = (
);
width = 992;
};
},
{
glyphname = d;
layers = (
{
anchors = (
{
name = bottom;
position = "{289, 0}";
},
{
name = center;
position = "{309, 248}";
},
{
name = top;
position = "{328, 495}";
},
{
name = topright;
position = "{619, 705}";
}
);
background = {
paths = (
{
closed = 1;
nodes = (
"316 -8 OFFCURVE",
"376 27 OFFCURVE",
"404 84 CURVE",
"393 118 LINE",
"384 0 LINE",
"538 0 LINE",
"594 705 LINE",
"438 705 LINE",
"412 380 LINE",
"426 416 LINE",
"395 471 OFFCURVE",
"342 503 OFFCURVE",
"268 503 CURVE SMOOTH",
"128 503 OFFCURVE",
"33 390 OFFCURVE",
"33 228 CURVE SMOOTH",
"33 81 OFFCURVE",
"118 -8 OFFCURVE",
"242 -8 CURVE SMOOTH"
);
},
{
closed = 1;
nodes = (
"227 109 OFFCURVE",
"188 155 OFFCURVE",
"188 238 CURVE SMOOTH",
"188 329 OFFCURVE",
"230 386 OFFCURVE",
"300 386 CURVE SMOOTH",
"367 386 OFFCURVE",
"405 342 OFFCURVE",
"405 255 CURVE SMOOTH",
"405 167 OFFCURVE",
"363 109 OFFCURVE",
"295 109 CURVE SMOOTH"
);
}
);
};
guideLines = (
{
angle = 89.3795;
position = "{267, 248}";
}
);
layerId = "E1B555A7-F4E1-459C-9C1A-AE952106EEF9";
paths = (
{
closed = 1;
nodes = (
"316 -8 OFFCURVE",
"376 27 OFFCURVE",
"404 84 CURVE",
"394 118 LINE",
"390 67 LINE SMOOTH",
"387 23 OFFCURVE",
"415 -6 OFFCURVE",
"462 -6 CURVE SMOOTH",
"509 -6 OFFCURVE",
"540 23 OFFCURVE",
"543 67 CURVE SMOOTH",
"588 639 LINE SMOOTH",
"591 681 OFFCURVE",
"561 710 OFFCURVE",
"513 710 CURVE SMOOTH",
"467 710 OFFCURVE",
"435 683 OFFCURVE",
"432 642 CURVE SMOOTH",
"411 380 LINE",
"426 416 LINE",
"395 471 OFFCURVE",
"342 503 OFFCURVE",
"268 503 CURVE SMOOTH",
"128 503 OFFCURVE",
"33 390 OFFCURVE",
"33 228 CURVE SMOOTH",
"33 81 OFFCURVE",
"118 -8 OFFCURVE",
"242 -8 CURVE SMOOTH"
);
},
{
closed = 1;
nodes = (
"227 109 OFFCURVE",
"188 155 OFFCURVE",
"188 238 CURVE SMOOTH",
"188 329 OFFCURVE",
"230 386 OFFCURVE",
"300 386 CURVE SMOOTH",
"367 386 OFFCURVE",
"405 342 OFFCURVE",
"405 255 CURVE SMOOTH",
"405 167 OFFCURVE",
"363 109 OFFCURVE",
"295 109 CURVE SMOOTH"
);
}
);
width = 615;
}
);
leftKerningGroup = o;
rightKerningGroup = l;
unicode = 0064;
userData = {
anchors = (
);
b = {
};
com.typemytype.robofont.layerData = {
b = {
anchors = (
);
components = (
);
contours = (
);
lib = {
};
name = d;
unicodes = (
);
width = 1181;
};
};
components = (
);
contours = (
);
lib = {
};
name = d;
unicodes = (
);
width = 1207;
};
},
{
glyphname = eth;
layers = (
{
background = {
paths = (
{
closed = 1;
nodes = (
"450 -8 OFFCURVE",
"569 84 OFFCURVE",
"569 318 CURVE SMOOTH",
"569 504 OFFCURVE",
"454 684 OFFCURVE",
"218 716 CURVE SMOOTH",
"181 721 OFFCURVE",
"139 615 OFFCURVE",
"176 610 CURVE SMOOTH",
"323 590 OFFCURVE",
"437 482 OFFCURVE",
"425 326 CURVE",
"465 321 LINE",
"439 424 OFFCURVE",
"368 455 OFFCURVE",
"282 455 CURVE SMOOTH",
"141 455 OFFCURVE",
"31 363 OFFCURVE",
"31 214 CURVE SMOOTH",
"31 79 OFFCURVE",
"131 -8 OFFCURVE",
"291 -8 CURVE SMOOTH"
);
},
{
closed = 1;
nodes = (
"220 110 OFFCURVE",
"186 156 OFFCURVE",
"186 216 CURVE SMOOTH",
"186 281 OFFCURVE",
"217 340 OFFCURVE",
"298 340 CURVE SMOOTH",
"367 340 OFFCURVE",
"401 298 OFFCURVE",
"401 237 CURVE SMOOTH",
"401 168 OFFCURVE",
"370 110 OFFCURVE",
"289 110 CURVE SMOOTH"
);
},
{
closed = 1;
nodes = (
"557 564 LINE SMOOTH",
"609 577 OFFCURVE",
"595 656 OFFCURVE",
"535 640 CURVE SMOOTH",
"199 552 LINE SMOOTH",
"148 539 OFFCURVE",
"162 460 OFFCURVE",
"222 476 CURVE SMOOTH"
);
}
);
};
guideLines = (
{
angle = 90;
position = "{284, 652}";
},
{
angle = 90;
position = "{699, 652}";
}
);
layerId = "E1B555A7-F4E1-459C-9C1A-AE952106EEF9";
paths = (
{
closed = 1;
nodes = (
"450 -8 OFFCURVE",
"569 84 OFFCURVE",
"569 318 CURVE SMOOTH",
"569 504 OFFCURVE",
"454 673 OFFCURVE",
"248 711 CURVE SMOOTH",
"153 729 OFFCURVE",
"135 623 OFFCURVE",
"209 606 CURVE SMOOTH",
"323 579 OFFCURVE",
"437 482 OFFCURVE",
"425 326 CURVE",
"465 321 LINE",
"439 424 OFFCURVE",
"368 455 OFFCURVE",
"282 455 CURVE SMOOTH",
"141 455 OFFCURVE",
"31 363 OFFCURVE",
"31 214 CURVE SMOOTH",
"31 79 OFFCURVE",
"131 -8 OFFCURVE",
"291 -8 CURVE SMOOTH"
);
},
{
closed = 1;
nodes = (
"220 110 OFFCURVE",
"186 156 OFFCURVE",
"186 216 CURVE SMOOTH",
"186 281 OFFCURVE",
"217 340 OFFCURVE",
"298 340 CURVE SMOOTH",
"367 340 OFFCURVE",
"401 298 OFFCURVE",
"401 237 CURVE SMOOTH",
"401 168 OFFCURVE",
"370 110 OFFCURVE",
"289 110 CURVE SMOOTH"
);
},
{
closed = 1;
nodes = (
"557 564 LINE SMOOTH",
"609 577 OFFCURVE",
"595 656 OFFCURVE",
"535 640 CURVE SMOOTH",
"199 552 LINE SMOOTH",
"148 539 OFFCURVE",
"162 460 OFFCURVE",
"222 476 CURVE SMOOTH"
);
}
);
width = 597;
}
);
leftKerningGroup = o;
rightKerningGroup = o;
unicode = 00F0;
userData = {
com.typemytype.robofont.layerData = {
b = {
anchors = (
);
components = (
);
contours = (
);
lib = {
};
name = eth;
unicodes = (
);
width = 1230;
};
};
};
},
{
glyphname = dcaron;
layers = (
{
background = {
paths = (
{
closed = 1;
nodes = (
"698 705 LINE",
"619 705 LINE",
"604 511 LINE",
"657 511 LINE"
);
}
);
};
components = (
{
name = d;
}
);
layerId = "E1B555A7-F4E1-459C-9C1A-AE952106EEF9";
paths = (
{
closed = 1;
nodes = (
"690 665 LINE SMOOTH",
"703 724 OFFCURVE",
"621 728 OFFCURVE",
"616 667 CURVE SMOOTH",
"605 526 LINE SMOOTH",
"602 486 OFFCURVE",
"650 481 OFFCURVE",
"659 521 CURVE SMOOTH"
);
}
);
width = 615;
}
);
leftKerningGroup = o;
rightKerningGroup = lcaron;
unicode = 010F;
},
{
glyphname = dcroat;
layers = (
{
background = {
paths = (
{
closed = 1;
nodes = (
"308 -8 OFFCURVE",
"377 32 OFFCURVE",
"404 96 CURVE",
"394 118 LINE",
"390 67 LINE SMOOTH",
"387 23 OFFCURVE",
"415 -6 OFFCURVE",
"462 -6 CURVE SMOOTH",
"509 -6 OFFCURVE",
"541 23 OFFCURVE",
"544 67 CURVE SMOOTH",
"590 639 LINE SMOOTH",
"593 681 OFFCURVE",
"563 710 OFFCURVE",
"515 710 CURVE SMOOTH",
"469 710 OFFCURVE",
"437 683 OFFCURVE",
"434 642 CURVE SMOOTH",
"413 380 LINE",
"428 399 LINE",
"411 463 OFFCURVE",
"349 503 OFFCURVE",
"271 503 CURVE SMOOTH",
"135 503 OFFCURVE",
"33 391 OFFCURVE",
"33 220 CURVE SMOOTH",
"33 83 OFFCURVE",
"111 -8 OFFCURVE",
"230 -8 CURVE SMOOTH"
);
},
{
closed = 1;
nodes = (
"224 110 OFFCURVE",
"188 153 OFFCURVE",
"188 229 CURVE SMOOTH",
"188 329 OFFCURVE",
"234 385 OFFCURVE",
"308 385 CURVE SMOOTH",
"371 385 OFFCURVE",
"406 344 OFFCURVE",
"406 269 CURVE SMOOTH",
"406 167 OFFCURVE",
"360 110 OFFCURVE",
"286 110 CURVE SMOOTH"
);
},
{
closed = 1;
nodes = (
"616 531 LINE SMOOTH",
"662 531 OFFCURVE",
"685 553 OFFCURVE",
"685 589 CURVE SMOOTH",
"685 619 OFFCURVE",
"665 639 OFFCURVE",
"625 639 CURVE SMOOTH",
"299 639 LINE SMOOTH",
"254 639 OFFCURVE",
"229 617 OFFCURVE",
"229 582 CURVE SMOOTH",
"229 551 OFFCURVE",
"249 531 OFFCURVE",
"290 531 CURVE SMOOTH"
);
}
);
};
layerId = "E1B555A7-F4E1-459C-9C1A-AE952106EEF9";
paths = (
{
closed = 1;
nodes = (
"316 -8 OFFCURVE",
"376 27 OFFCURVE",
"404 84 CURVE",
"394 118 LINE",
"390 67 LINE SMOOTH",
"387 23 OFFCURVE",
"415 -6 OFFCURVE",
"462 -6 CURVE SMOOTH",
"509 -6 OFFCURVE",
"539 23 OFFCURVE",
"543 67 CURVE SMOOTH",
"589 639 LINE SMOOTH",
"592 681 OFFCURVE",
"562 710 OFFCURVE",
"514 710 CURVE SMOOTH",
"468 710 OFFCURVE",
"436 683 OFFCURVE",
"433 642 CURVE SMOOTH",
"413 380 LINE",
"426 416 LINE",
"395 471 OFFCURVE",
"342 503 OFFCURVE",
"268 503 CURVE SMOOTH",
"128 503 OFFCURVE",
"33 390 OFFCURVE",
"33 228 CURVE SMOOTH",
"33 81 OFFCURVE",
"118 -8 OFFCURVE",
"242 -8 CURVE SMOOTH"
);
},
{
closed = 1;
nodes = (
"227 109 OFFCURVE",
"188 155 OFFCURVE",
"188 238 CURVE SMOOTH",
"188 329 OFFCURVE",
"230 386 OFFCURVE",
"300 386 CURVE SMOOTH",
"367 386 OFFCURVE",
"405 342 OFFCURVE",
"405 255 CURVE SMOOTH",
"405 167 OFFCURVE",
"363 109 OFFCURVE",
"295 109 CURVE SMOOTH"
);
},
{
closed = 1;
nodes = (
"616 531 LINE SMOOTH",
"662 531 OFFCURVE",
"685 553 OFFCURVE",
"685 589 CURVE SMOOTH",
"685 619 OFFCURVE",
"665 639 OFFCURVE",
"625 639 CURVE SMOOTH",
"299 639 LINE SMOOTH",
"254 639 OFFCURVE",
"229 617 OFFCURVE",
"229 582 CURVE SMOOTH",
"229 551 OFFCURVE",
"249 531 OFFCURVE",
"290 531 CURVE SMOOTH"
);
}
);
width = 615;
}
);
leftKerningGroup = o;
rightKerningGroup = l;
unicode = 0111;
userData = {
com.typemytype.robofont.layerData = {
b = {
anchors = (
);
components = (
);
contours = (
);
lib = {
};
name = dcroat;
unicodes = (
);
width = 1181;
};
};
};
},
{
glyphname = e;
layers = (
{
anchors = (
{
name = bottom;
position = "{278, 0}";
},
{
name = ogonek;
position = "{380, 10}";
},
{
name = top;
position = "{296, 495}";
}
);
background = {
paths = (
{
closed = 1;
nodes = (
"445 156 LINE",
"402 125 OFFCURVE",
"356 108 OFFCURVE",
"303 108 CURVE SMOOTH",
"224 108 OFFCURVE",
"182 150 OFFCURVE",
"182 237 CURVE SMOOTH",
"182 349 OFFCURVE",
"221 396 OFFCURVE",
"288 396 CURVE SMOOTH",
"343 396 OFFCURVE",
"377 360 OFFCURVE",
"373 278 CURVE",
"412 293 LINE",
"176 293 LINE",
"169 216 LINE",
"499 216 LINE",
"520 405 OFFCURVE",
"428 503 OFFCURVE",
"283 503 CURVE SMOOTH",
"140 503 OFFCURVE",
"33 393 OFFCURVE",
"33 233 CURVE SMOOTH",
"33 87 OFFCURVE",
"136 -8 OFFCURVE",
"292 -8 CURVE SMOOTH",
"364 -8 OFFCURVE",
"435 15 OFFCURVE",
"478 52 CURVE"
);
}
);
};
guideLines = (
{
angle = 90;
position = "{613, 546}";
}
);
layerId = "E1B555A7-F4E1-459C-9C1A-AE952106EEF9";
paths = (
{
closed = 1;
nodes = (
"354 -8 OFFCURVE",
"414 8 OFFCURVE",
"449 31 CURVE SMOOTH",
"507 69 OFFCURVE",
"482 172 OFFCURVE",
"410 136 CURVE SMOOTH",
"376 119 OFFCURVE",
"348 108 OFFCURVE",
"303 108 CURVE SMOOTH",
"223 108 OFFCURVE",
"182 151 OFFCURVE",
"182 237 CURVE SMOOTH",
"182 343 OFFCURVE",
"217 396 OFFCURVE",
"288 396 CURVE SMOOTH",
"347 396 OFFCURVE",
"377 355 OFFCURVE",
"373 278 CURVE",
"412 293 LINE",
"176 293 LINE",
"169 216 LINE",
"459 216 LINE SMOOTH",
"486 216 OFFCURVE",
"503 233 OFFCURVE",
"503 262 CURVE SMOOTH",
"503 415 OFFCURVE",
"423 503 OFFCURVE",
"283 503 CURVE SMOOTH",
"137 503 OFFCURVE",
"33 390 OFFCURVE",
"33 233 CURVE SMOOTH",
"33 87 OFFCURVE",
"136 -8 OFFCURVE",
"292 -8 CURVE SMOOTH"
);
}
);
width = 533;
}
);
leftKerningGroup = o;
rightKerningGroup = e;
unicode = 0065;
userData = {
anchors = (
);
b = {
};
com.typemytype.robofont.layerData = {
b = {
anchors = (
);
components = (
);
contours = (
);
lib = {
};
name = e;
unicodes = (
);
width = 1132;
};
};
components = (
);
contours = (
);
lib = {
};
name = e;
unicodes = (
);
width = 1132;
};
},
{
glyphname = eogonek;
layers = (
{
anchors = (
{
name = top;
position = "{296, 495}";
}
);
background = {
anchors = (
{
name = top;
position = "{315, 495}";
}
);
paths = (
{
closed = 1;
nodes = (
"354 -8 OFFCURVE",
"414 8 OFFCURVE",
"449 31 CURVE SMOOTH",
"507 69 OFFCURVE",
"482 172 OFFCURVE",
"410 136 CURVE SMOOTH",
"376 119 OFFCURVE",
"348 108 OFFCURVE",
"303 108 CURVE SMOOTH",
"223 108 OFFCURVE",
"182 151 OFFCURVE",
"182 237 CURVE SMOOTH",
"182 343 OFFCURVE",
"217 396 OFFCURVE",
"288 396 CURVE SMOOTH",
"347 396 OFFCURVE",
"377 355 OFFCURVE",
"373 278 CURVE",
"412 293 LINE",
"176 293 LINE",
"169 216 LINE",
"459 216 LINE SMOOTH",
"486 216 OFFCURVE",
"503 233 OFFCURVE",
"503 262 CURVE SMOOTH",
"503 415 OFFCURVE",
"423 503 OFFCURVE",
"283 503 CURVE SMOOTH",
"137 503 OFFCURVE",
"33 390 OFFCURVE",
"33 233 CURVE SMOOTH",
"33 87 OFFCURVE",
"136 -8 OFFCURVE",
"292 -8 CURVE SMOOTH"
);
}
);
};
guideLines = (
{
angle = 90;
position = "{603, 515}";
}
);
layerId = "E1B555A7-F4E1-459C-9C1A-AE952106EEF9";
paths = (
{
closed = 1;
nodes = (
"33 88 OFFCURVE",
"136 -8 OFFCURVE",
"290 -8 CURVE SMOOTH",
"304 -8 OFFCURVE",
"316 -6 OFFCURVE",
"333 -3 CURVE",
"305 13 LINE",
"264 -10 OFFCURVE",
"237 -44 OFFCURVE",
"237 -94 CURVE SMOOTH",
"237 -158 OFFCURVE",
"285 -197 OFFCURVE",
"356 -197 CURVE SMOOTH",
"390 -197 OFFCURVE",
"419 -190 OFFCURVE",
"447 -174 CURVE SMOOTH",
"482 -154 OFFCURVE",
"469 -97 OFFCURVE",
"434 -109 CURVE SMOOTH",
"414 -116 OFFCURVE",
"404 -117 OFFCURVE",
"386 -117 CURVE SMOOTH",
"357 -117 OFFCURVE",
"338 -99 OFFCURVE",
"338 -70 CURVE SMOOTH",
"338 -37 OFFCURVE",
"358 -9 OFFCURVE",
"402 9 CURVE SMOOTH",
"423 17 OFFCURVE",
"435 22 OFFCURVE",
"449 31 CURVE SMOOTH",
"507 69 OFFCURVE",
"482 172 OFFCURVE",
"410 136 CURVE SMOOTH",
"376 119 OFFCURVE",
"348 108 OFFCURVE",
"303 108 CURVE SMOOTH",
"223 108 OFFCURVE",
"182 151 OFFCURVE",
"182 237 CURVE SMOOTH",
"182 343 OFFCURVE",
"217 396 OFFCURVE",
"288 396 CURVE SMOOTH",
"347 396 OFFCURVE",
"377 355 OFFCURVE",
"373 278 CURVE",
"402 293 LINE",
"176 293 LINE",
"169 216 LINE",
"459 216 LINE SMOOTH",
"486 216 OFFCURVE",
"503 233 OFFCURVE",
"503 262 CURVE SMOOTH",
"503 415 OFFCURVE",
"423 503 OFFCURVE",
"283 503 CURVE SMOOTH",
"137 503 OFFCURVE",
"33 390 OFFCURVE",
"33 233 CURVE SMOOTH"
);
}
);
width = 533;
}
);
leftKerningGroup = o;
rightKerningGroup = e;
unicode = 0119;
},
{
glyphname = schwa;
layers = (
{
background = {
paths = (
{
closed = 1;
nodes = (
"89 339 LINE",
"135 370 OFFCURVE",
"181 387 OFFCURVE",
"237 387 CURVE SMOOTH",
"312 387 OFFCURVE",
"353 345 OFFCURVE",
"353 260 CURVE SMOOTH",
"353 146 OFFCURVE",
"316 99 OFFCURVE",
"247 99 CURVE SMOOTH",
"191 99 OFFCURVE",
"157 135 OFFCURVE",
"164 217 CURVE",
"122 202 LINE",
"358 202 LINE",
"365 279 LINE",
"34 279 LINE",
"13 90 OFFCURVE",
"106 -8 OFFCURVE",
"251 -8 CURVE SMOOTH",
"394 -8 OFFCURVE",
"501 102 OFFCURVE",
"501 262 CURVE SMOOTH",
"501 408 OFFCURVE",
"408 503 OFFCURVE",
"252 503 CURVE SMOOTH",
"180 503 OFFCURVE",
"103 480 OFFCURVE",
"56 443 CURVE"
);
}
);
};
layerId = "E1B555A7-F4E1-459C-9C1A-AE952106EEF9";
paths = (
{
closed = 1;
nodes = (
"397 -8 OFFCURVE",
"501 105 OFFCURVE",
"501 262 CURVE SMOOTH",
"501 408 OFFCURVE",
"408 503 OFFCURVE",
"250 503 CURVE SMOOTH",
"180 503 OFFCURVE",
"120 487 OFFCURVE",
"85 464 CURVE SMOOTH",
"27 426 OFFCURVE",
"52 323 OFFCURVE",
"124 359 CURVE SMOOTH",
"158 376 OFFCURVE",
"186 387 OFFCURVE",
"237 387 CURVE SMOOTH",
"312 387 OFFCURVE",
"353 345 OFFCURVE",
"353 260 CURVE SMOOTH",
"353 146 OFFCURVE",
"316 99 OFFCURVE",
"247 99 CURVE SMOOTH",
"191 99 OFFCURVE",
"157 135 OFFCURVE",
"164 217 CURVE",
"122 202 LINE",
"358 202 LINE",
"365 279 LINE",
"75 279 LINE SMOOTH",
"48 279 OFFCURVE",
"31 262 OFFCURVE",
"31 233 CURVE SMOOTH",
"31 80 OFFCURVE",
"111 -8 OFFCURVE",
"251 -8 CURVE SMOOTH"
);
}
);
width = 533;
}
);
leftKerningGroup = o;
rightKerningGroup = o;
unicode = 0259;
},
{
glyphname = f;
layers = (
{
anchors = (
{
name = bottom;
position = "{156, 0}";
},
{
name = top;
position = "{195, 495}";
}
);
background = {
paths = (
{
closed = 1;
nodes = (
"234 0 LINE",
"275 515 LINE SMOOTH",
"279 571 OFFCURVE",
"308 591 OFFCURVE",
"365 593 CURVE SMOOTH",
"432 596 LINE",
"429 710 LINE",
"372 707 LINE SMOOTH",
"210 698 OFFCURVE",
"128 632 OFFCURVE",
"118 504 CURVE SMOOTH",
"78 0 LINE"
);
},
{
closed = 1;
nodes = (
"386 375 LINE",
"395 491 LINE",
"24 491 LINE",
"15 375 LINE"
);
}
);
};
layerId = "E1B555A7-F4E1-459C-9C1A-AE952106EEF9";
paths = (
{
closed = 1;
nodes = (
"197 -5 OFFCURVE",
"235 17 OFFCURVE",
"239 68 CURVE SMOOTH",
"274 507 LINE SMOOTH",
"278 556 OFFCURVE",
"300 588 OFFCURVE",
"355 592 CURVE SMOOTH",
"381 594 LINE SMOOTH",
"420 597 OFFCURVE",
"446 614 OFFCURVE",
"446 656 CURVE SMOOTH",
"446 702 OFFCURVE",
"410 710 OFFCURVE",
"360 706 CURVE SMOOTH",
"334 704 LINE SMOOTH",
"211 695 OFFCURVE",
"128 621 OFFCURVE",
"117 490 CURVE SMOOTH",
"83 68 LINE SMOOTH",
"79 17 OFFCURVE",
"115 -5 OFFCURVE",
"156 -5 CURVE SMOOTH"
);
},
{
closed = 1;
nodes = (
"331 375 LINE SMOOTH",
"382 375 OFFCURVE",
"405 396 OFFCURVE",
"405 437 CURVE SMOOTH",
"405 470 OFFCURVE",
"385 491 OFFCURVE",
"340 491 CURVE SMOOTH",
"79 491 LINE SMOOTH",
"28 491 OFFCURVE",
"4 471 OFFCURVE",
"4 429 CURVE SMOOTH",
"4 396 OFFCURVE",
"25 375 OFFCURVE",
"70 375 CURVE SMOOTH"
);
}
);
width = 379;
}
);
leftKerningGroup = f;
rightKerningGroup = f;
unicode = 0066;
userData = {
anchors = (
);
b = {
};
com.typemytype.robofont.layerData = {
b = {
anchors = (
);
components = (
);
contours = (
);
lib = {
};
name = f;
unicodes = (
);
width = 696;
};
};
components = (
);
contours = (
);
lib = {
};
name = f;
unicodes = (
);
width = 723;
};
},
{
glyphname = g;
layers = (
{
anchors = (
{
name = bottom;
position = "{291, 0}";
},
{
name = top;
position = "{330, 495}";
}
);
background = {
paths = (
{
closed = 1;
nodes = (
"435 -188 OFFCURVE",
"533 -115 OFFCURVE",
"547 60 CURVE SMOOTH",
"581 491 LINE",
"427 491 LINE",
"419 387 LINE",
"431 416 LINE",
"400 471 OFFCURVE",
"347 503 OFFCURVE",
"271 503 CURVE SMOOTH",
"129 503 OFFCURVE",
"34 390 OFFCURVE",
"34 240 CURVE SMOOTH",
"34 103 OFFCURVE",
"119 14 OFFCURVE",
"245 14 CURVE SMOOTH",
"325 14 OFFCURVE",
"385 49 OFFCURVE",
"413 106 CURVE",
"398 121 LINE",
"392 43 LINE SMOOTH",
"386 -39 OFFCURVE",
"343 -72 OFFCURVE",
"271 -72 CURVE SMOOTH",
"203 -72 OFFCURVE",
"140 -54 OFFCURVE",
"76 -20 CURVE",
"27 -127 LINE",
"90 -166 OFFCURVE",
"173 -188 OFFCURVE",
"266 -188 CURVE SMOOTH"
);
},
{
closed = 1;
nodes = (
"229 132 OFFCURVE",
"189 174 OFFCURVE",
"189 247 CURVE SMOOTH",
"189 334 OFFCURVE",
"232 386 OFFCURVE",
"302 386 CURVE SMOOTH",
"371 386 OFFCURVE",
"410 346 OFFCURVE",
"410 266 CURVE SMOOTH",
"410 185 OFFCURVE",
"367 132 OFFCURVE",
"297 132 CURVE SMOOTH"
);
},
{
closed = 1;
nodes = (
"434 -188 OFFCURVE",
"535 -105 OFFCURVE",
"547 54 CURVE SMOOTH",
"577 428 LINE SMOOTH",
"580 472 OFFCURVE",
"553 501 OFFCURVE",
"506 501 CURVE SMOOTH",
"459 501 OFFCURVE",
"427 473 OFFCURVE",
"423 430 CURVE SMOOTH",
"420 387 LINE",
"431 416 LINE",
"400 471 OFFCURVE",
"347 503 OFFCURVE",
"271 503 CURVE SMOOTH",
"129 503 OFFCURVE",
"34 390 OFFCURVE",
"34 240 CURVE SMOOTH",
"34 103 OFFCURVE",
"119 14 OFFCURVE",
"245 14 CURVE SMOOTH",
"325 14 OFFCURVE",
"385 49 OFFCURVE",
"413 106 CURVE",
"399 125 LINE",
"392 43 LINE SMOOTH",
"386 -35 OFFCURVE",
"343 -72 OFFCURVE",
"259 -72 CURVE SMOOTH",
"205 -72 OFFCURVE",
"162 -52 OFFCURVE",
"128 -40 CURVE SMOOTH",
"113 -36 OFFCURVE",
"101 -32 OFFCURVE",
"89 -32 CURVE SMOOTH",
"62 -32 OFFCURVE",
"42 -55 OFFCURVE",
"39 -90 CURVE SMOOTH",
"37 -114 OFFCURVE",
"49 -135 OFFCURVE",
"72 -148 CURVE SMOOTH",
"117 -174 OFFCURVE",
"181 -188 OFFCURVE",
"254 -188 CURVE SMOOTH"
);
},
{
closed = 1;
nodes = (
"229 132 OFFCURVE",
"189 174 OFFCURVE",
"189 247 CURVE SMOOTH",
"189 334 OFFCURVE",
"232 386 OFFCURVE",
"302 386 CURVE SMOOTH",
"371 386 OFFCURVE",
"410 346 OFFCURVE",
"410 266 CURVE SMOOTH",
"410 185 OFFCURVE",
"367 132 OFFCURVE",
"297 132 CURVE SMOOTH"
);
}
);
};
layerId = "E1B555A7-F4E1-459C-9C1A-AE952106EEF9";
paths = (
{
closed = 1;
nodes = (
"434 -188 OFFCURVE",
"535 -105 OFFCURVE",
"547 54 CURVE SMOOTH",
"577 428 LINE SMOOTH",
"580 472 OFFCURVE",
"553 501 OFFCURVE",
"506 501 CURVE SMOOTH",
"459 501 OFFCURVE",
"427 473 OFFCURVE",
"423 430 CURVE SMOOTH",
"420 387 LINE",
"431 416 LINE",
"400 471 OFFCURVE",
"347 503 OFFCURVE",
"271 503 CURVE SMOOTH",
"129 503 OFFCURVE",
"34 390 OFFCURVE",
"34 240 CURVE SMOOTH",
"34 103 OFFCURVE",
"119 14 OFFCURVE",
"245 14 CURVE SMOOTH",
"325 14 OFFCURVE",
"385 49 OFFCURVE",
"413 106 CURVE",
"399 125 LINE",
"392 43 LINE SMOOTH",
"386 -35 OFFCURVE",
"343 -72 OFFCURVE",
"259 -72 CURVE SMOOTH",
"205 -72 OFFCURVE",
"146 -52 OFFCURVE",
"113 -38 CURVE SMOOTH",
"51 -11 OFFCURVE",
"1 -109 OFFCURVE",
"72 -148 CURVE SMOOTH",
"120 -174 OFFCURVE",
"189 -188 OFFCURVE",
"254 -188 CURVE SMOOTH"
);
},
{
closed = 1;
nodes = (
"229 132 OFFCURVE",
"189 174 OFFCURVE",
"189 247 CURVE SMOOTH",
"189 334 OFFCURVE",
"232 386 OFFCURVE",
"302 386 CURVE SMOOTH",
"371 386 OFFCURVE",
"410 346 OFFCURVE",
"410 266 CURVE SMOOTH",
"410 185 OFFCURVE",
"367 132 OFFCURVE",
"297 132 CURVE SMOOTH"
);
}
);
width = 619;
}
);
leftKerningGroup = o;
rightKerningGroup = u;
unicode = 0067;
userData = {
anchors = (
);
b = {
};
com.typemytype.robofont.layerData = {
b = {
anchors = (
);
components = (
);
contours = (
);
lib = {
};
name = g;
unicodes = (
);
width = 1167;
};
};
components = (
);
contours = (
);
lib = {
};
name = g;
unicodes = (
);
width = 1207;
};
},
{
glyphname = h;
layers = (
{
anchors = (
{
name = bottom;
position = "{281, 0}";
},
{
name = center;
position = "{301, 248}";
},
{
name = top;
position = "{173, 705}";
}
);
background = {
paths = (
{
closed = 1;
nodes = (
"194 0 LINE",
"216 275 LINE SMOOTH",
"221 340 OFFCURVE",
"255 382 OFFCURVE",
"317 382 CURVE SMOOTH",
"371 382 OFFCURVE",
"396 348 OFFCURVE",
"391 285 CURVE SMOOTH",
"368 0 LINE",
"524 0 LINE",
"547 291 LINE SMOOTH",
"558 430 OFFCURVE",
"501 503 OFFCURVE",
"382 503 CURVE SMOOTH",
"303 503 OFFCURVE",
"239 468 OFFCURVE",
"209 411 CURVE",
"223 380 LINE",
"249 705 LINE",
"93 705 LINE",
"38 0 LINE"
);
}
);
};
layerId = "E1B555A7-F4E1-459C-9C1A-AE952106EEF9";
paths = (
{
closed = 1;
nodes = (
"164 -6 OFFCURVE",
"196 22 OFFCURVE",
"199 67 CURVE SMOOTH",
"216 275 LINE SMOOTH",
"221 340 OFFCURVE",
"255 382 OFFCURVE",
"317 382 CURVE SMOOTH",
"371 382 OFFCURVE",
"396 348 OFFCURVE",
"391 285 CURVE SMOOTH",
"373 67 LINE SMOOTH",
"369 22 OFFCURVE",
"398 -6 OFFCURVE",
"446 -6 CURVE SMOOTH",
"494 -6 OFFCURVE",
"525 22 OFFCURVE",
"529 67 CURVE SMOOTH",
"547 291 LINE SMOOTH",
"558 430 OFFCURVE",
"501 503 OFFCURVE",
"382 503 CURVE SMOOTH",
"303 503 OFFCURVE",
"239 468 OFFCURVE",
"209 411 CURVE",
"223 380 LINE",
"244 642 LINE SMOOTH",
"247 683 OFFCURVE",
"219 710 OFFCURVE",
"173 710 CURVE SMOOTH",
"125 710 OFFCURVE",
"91 681 OFFCURVE",
"88 639 CURVE SMOOTH",
"43 67 LINE SMOOTH",
"39 22 OFFCURVE",
"68 -6 OFFCURVE",
"116 -6 CURVE SMOOTH"
);
}
);
width = 597;
}
);
leftKerningGroup = h;
rightKerningGroup = n;
unicode = 0068;
userData = {
anchors = (
);
b = {
};
com.typemytype.robofont.layerData = {
b = {
anchors = (
);
components = (
);
contours = (
);
lib = {
};
name = h;
unicodes = (
);
width = 1148;
};
};
components = (
);
contours = {
};
lib = {
};
name = h;
points = {
};
segmentType = curve;
unicodes = (
);
width = 1195;
x = 137;
y = 113;
};
},
{
glyphname = hbar;
layers = (
{
background = {
paths = (
{
closed = 1;
nodes = (
"194 0 LINE",
"216 275 LINE SMOOTH",
"221 340 OFFCURVE",
"255 382 OFFCURVE",
"317 382 CURVE SMOOTH",
"371 382 OFFCURVE",
"396 348 OFFCURVE",
"391 285 CURVE SMOOTH",
"368 0 LINE",
"524 0 LINE",
"547 291 LINE SMOOTH",
"558 430 OFFCURVE",
"501 503 OFFCURVE",
"382 503 CURVE SMOOTH",
"303 503 OFFCURVE",
"239 468 OFFCURVE",
"209 411 CURVE",
"223 380 LINE",
"249 705 LINE",
"93 705 LINE",
"38 0 LINE"
);
},
{
closed = 1;
nodes = (
"421 531 LINE",
"429 639 LINE",
"3 639 LINE",
"-5 531 LINE"
);
}
);
};
layerId = "E1B555A7-F4E1-459C-9C1A-AE952106EEF9";
paths = (
{
closed = 1;
nodes = (
"164 -6 OFFCURVE",
"196 22 OFFCURVE",
"199 67 CURVE SMOOTH",
"216 275 LINE SMOOTH",
"221 340 OFFCURVE",
"255 382 OFFCURVE",
"317 382 CURVE SMOOTH",
"371 382 OFFCURVE",
"396 348 OFFCURVE",
"391 285 CURVE SMOOTH",
"373 67 LINE SMOOTH",
"369 22 OFFCURVE",
"398 -6 OFFCURVE",
"446 -6 CURVE SMOOTH",
"494 -6 OFFCURVE",
"525 22 OFFCURVE",
"529 67 CURVE SMOOTH",
"547 291 LINE SMOOTH",
"558 430 OFFCURVE",
"501 503 OFFCURVE",
"382 503 CURVE SMOOTH",
"303 503 OFFCURVE",
"239 468 OFFCURVE",
"209 411 CURVE",
"223 380 LINE",
"244 642 LINE SMOOTH",
"247 683 OFFCURVE",
"219 710 OFFCURVE",
"173 710 CURVE SMOOTH",
"125 710 OFFCURVE",
"91 681 OFFCURVE",
"88 639 CURVE SMOOTH",
"43 67 LINE SMOOTH",
"39 22 OFFCURVE",
"68 -6 OFFCURVE",
"116 -6 CURVE SMOOTH"
);
},
{
closed = 1;
nodes = (
"371 531 LINE SMOOTH",
"417 531 OFFCURVE",
"440 552 OFFCURVE",
"440 588 CURVE SMOOTH",
"440 618 OFFCURVE",
"420 639 OFFCURVE",
"380 639 CURVE SMOOTH",
"54 639 LINE SMOOTH",
"9 639 OFFCURVE",
"-16 619 OFFCURVE",
"-16 584 CURVE SMOOTH",
"-16 553 OFFCURVE",
"4 531 OFFCURVE",
"45 531 CURVE SMOOTH"
);
}
);
width = 597;
}
);
leftKerningGroup = h;
rightKerningGroup = n;
unicode = 0127;
},
{
glyphname = idotless;
layers = (
{
anchors = (
{
name = bottom;
position = "{116, 0}";
},
{
name = ogonek;
position = "{169, 10}";
},
{
name = top;
position = "{155, 495}";
}
);
background = {
paths = (
{
closed = 1;
nodes = (
"194 0 LINE",
"233 491 LINE",
"77 491 LINE",
"38 0 LINE"
);
}
);
};
layerId = "E1B555A7-F4E1-459C-9C1A-AE952106EEF9";
paths = (
{
closed = 1;
nodes = (
"157 -6 OFFCURVE",
"195 16 OFFCURVE",
"199 67 CURVE SMOOTH",
"228 428 LINE SMOOTH",
"232 479 OFFCURVE",
"197 501 OFFCURVE",
"156 501 CURVE SMOOTH",
"115 501 OFFCURVE",
"76 479 OFFCURVE",
"72 428 CURVE SMOOTH",
"43 67 LINE SMOOTH",
"39 16 OFFCURVE",
"75 -6 OFFCURVE",
"116 -6 CURVE SMOOTH"
);
}
);
width = 270;
}
);
leftKerningGroup = n;
rightKerningGroup = u;
unicode = 0131;
},
{
glyphname = iogonek;
layers = (
{
background = {
paths = (
{
closed = 1;
nodes = (
"145 -197 OFFCURVE",
"175 -191 OFFCURVE",
"205 -174 CURVE SMOOTH",
"240 -155 OFFCURVE",
"229 -98 OFFCURVE",
"192 -109 CURVE SMOOTH",
"170 -116 OFFCURVE",
"159 -117 OFFCURVE",
"144 -117 CURVE SMOOTH",
"116 -117 OFFCURVE",
"93 -99 OFFCURVE",
"96 -64 CURVE SMOOTH",
"99 -27 OFFCURVE",
"130 -9 OFFCURVE",
"158 4 CURVE SMOOTH",
"187 17 OFFCURVE",
"197 43 OFFCURVE",
"199 67 CURVE SMOOTH",
"228 428 LINE SMOOTH",
"232 479 OFFCURVE",
"197 501 OFFCURVE",
"156 501 CURVE SMOOTH",
"115 501 OFFCURVE",
"76 479 OFFCURVE",
"72 428 CURVE SMOOTH",
"43 67 LINE SMOOTH",
"41 33 OFFCURVE",
"56 13 OFFCURVE",
"74 2 CURVE",
"99 37 LINE",
"33 11 OFFCURVE",
"-1 -35 OFFCURVE",
"-5 -84 CURVE SMOOTH",
"-10 -154 OFFCURVE",
"42 -197 OFFCURVE",
"114 -197 CURVE SMOOTH"
);
},
{
closed = 1;
nodes = (
"216 579 OFFCURVE",
"252 610 OFFCURVE",
"256 657 CURVE SMOOTH",
"260 704 OFFCURVE",
"227 734 OFFCURVE",
"174 734 CURVE SMOOTH",
"120 734 OFFCURVE",
"84 704 OFFCURVE",
"80 657 CURVE SMOOTH",
"76 610 OFFCURVE",
"108 579 OFFCURVE",
"162 579 CURVE SMOOTH"
);
}
);
};
layerId = "E1B555A7-F4E1-459C-9C1A-AE952106EEF9";
paths = (
{
closed = 1;
nodes = (
"145 -197 OFFCURVE",
"175 -191 OFFCURVE",
"205 -174 CURVE SMOOTH",
"241 -155 OFFCURVE",
"227 -97 OFFCURVE",
"192 -109 CURVE SMOOTH",
"170 -116 OFFCURVE",
"159 -117 OFFCURVE",
"144 -117 CURVE SMOOTH",
"118 -117 OFFCURVE",
"96 -101 OFFCURVE",
"96 -70 CURVE SMOOTH",
"96 -29 OFFCURVE",
"129 -10 OFFCURVE",
"158 4 CURVE SMOOTH",
"187 17 OFFCURVE",
"197 43 OFFCURVE",
"199 67 CURVE SMOOTH",
"228 428 LINE SMOOTH",
"232 479 OFFCURVE",
"197 501 OFFCURVE",
"156 501 CURVE SMOOTH",
"115 501 OFFCURVE",
"76 479 OFFCURVE",
"72 428 CURVE SMOOTH",
"43 67 LINE SMOOTH",
"41 33 OFFCURVE",
"56 13 OFFCURVE",
"74 2 CURVE",
"99 37 LINE",
"29 9 OFFCURVE",
"-5 -41 OFFCURVE",
"-5 -93 CURVE SMOOTH",
"-5 -158 OFFCURVE",
"45 -197 OFFCURVE",
"114 -197 CURVE SMOOTH"
);
},
{
closed = 1;
nodes = (
"222 579 OFFCURVE",
"256 610 OFFCURVE",
"256 657 CURVE SMOOTH",
"256 704 OFFCURVE",
"221 734 OFFCURVE",
"168 734 CURVE SMOOTH",
"114 734 OFFCURVE",
"80 704 OFFCURVE",
"80 657 CURVE SMOOTH",
"80 610 OFFCURVE",
"114 579 OFFCURVE",
"168 579 CURVE SMOOTH"
);
}
);
width = 270;
}
);
leftKerningGroup = h;
rightKerningGroup = l;
unicode = 012F;
},
{
glyphname = jdotless;
layers = (
{
anchors = (
{
name = bottom;
position = "{115, 0}";
},
{
name = top;
position = "{154, 495}";
}
);
background = {
paths = (
{
closed = 1;
nodes = (
"77 491 LINE",
"38 1 LINE SMOOTH",
"34 -48 OFFCURVE",
"11 -67 OFFCURVE",
"-41 -71 CURVE SMOOTH",
"-98 -75 LINE",
"-94 -186 LINE",
"-43 -183 LINE SMOOTH",
"134 -173 OFFCURVE",
"185 -116 OFFCURVE",
"196 24 CURVE SMOOTH",
"233 491 LINE"
);
}
);
};
layerId = "E1B555A7-F4E1-459C-9C1A-AE952106EEF9";
paths = (
{
closed = 1;
nodes = (
"4 -180 LINE SMOOTH",
"124 -171 OFFCURVE",
"186 -106 OFFCURVE",
"194 4 CURVE SMOOTH",
"228 428 LINE SMOOTH",
"232 479 OFFCURVE",
"197 501 OFFCURVE",
"156 501 CURVE SMOOTH",
"115 501 OFFCURVE",
"76 479 OFFCURVE",
"72 428 CURVE SMOOTH",
"37 -8 LINE SMOOTH",
"34 -45 OFFCURVE",
"14 -66 OFFCURVE",
"-19 -68 CURVE SMOOTH",
"-48 -70 LINE SMOOTH",
"-90 -73 OFFCURVE",
"-109 -91 OFFCURVE",
"-112 -124 CURVE SMOOTH",
"-115 -167 OFFCURVE",
"-81 -186 OFFCURVE",
"-24 -182 CURVE SMOOTH"
);
}
);
width = 270;
}
);
leftKerningGroup = n;
rightKerningGroup = l;
unicode = 0237;
},
{
glyphname = k;
layers = (
{
anchors = (
{
name = bottom;
position = "{262, 0}";
},
{
name = top;
position = "{301, 495}";
}
);
background = {
paths = (
{
closed = 1;
nodes = (
"568 0 LINE",
"349 287 LINE",
"341 217 LINE",
"596 490 LINE",
"406 490 LINE",
"186 250 LINE",
"380 0 LINE"
);
},
{
closed = 1;
nodes = (
"194 0 LINE",
"249 705 LINE",
"93 705 LINE",
"38 0 LINE"
);
}
);
};
layerId = "E1B555A7-F4E1-459C-9C1A-AE952106EEF9";
paths = (
{
closed = 1;
nodes = (
"449 -53 OFFCURVE",
"559 45 OFFCURVE",
"501 111 CURVE SMOOTH",
"347 286 LINE",
"338 216 LINE",
"513 384 LINE SMOOTH",
"580 449 OFFCURVE",
"480 545 OFFCURVE",
"413 478 CURVE SMOOTH",
"181 249 LINE",
"387 17 LINE SMOOTH"
);
},
{
closed = 1;
nodes = (
"157 -5 OFFCURVE",
"195 17 OFFCURVE",
"199 68 CURVE SMOOTH",
"244 637 LINE SMOOTH",
"248 688 OFFCURVE",
"212 710 OFFCURVE",
"171 710 CURVE SMOOTH",
"130 710 OFFCURVE",
"92 688 OFFCURVE",
"88 637 CURVE SMOOTH",
"43 68 LINE SMOOTH",
"39 17 OFFCURVE",
"75 -5 OFFCURVE",
"116 -5 CURVE SMOOTH"
);
}
);
width = 562;
}
);
leftKerningGroup = h;
rightKerningGroup = k;
unicode = 006B;
userData = {
com.typemytype.robofont.layerData = {
b = {
anchors = (
);
components = (
);
contours = (
{
points = (
{
segmentType = line;
smooth = 0;
x = 318;
y = 536;
},
{
segmentType = line;
smooth = 1;
x = 793;
y = 27;
},
{
smooth = 0;
x = 809;
y = 9;
},
{
smooth = 0;
x = 828;
y = 1;
},
{
segmentType = curve;
smooth = 1;
x = 845;
y = 1;
},
{
smooth = 0;
x = 883;
y = 1;
},
{
smooth = 0;
x = 922;
y = 33;
},
{
segmentType = curve;
smooth = 1;
x = 922;
y = 71;
},
{
smooth = 0;
x = 922;
y = 84;
},
{
smooth = 0;
x = 918;
y = 99;
},
{
segmentType = curve;
smooth = 1;
x = 906;
y = 112;
},
{
segmentType = line;
smooth = 0;
x = 492;
y = 554;
},
{
segmentType = line;
smooth = 1;
x = 873;
y = 889;
},
{
smooth = 0;
x = 888;
y = 902;
},
{
smooth = 0;
x = 894;
y = 918;
},
{
segmentType = curve;
smooth = 1;
x = 894;
y = 933;
},
{
smooth = 0;
x = 894;
y = 968;
},
{
smooth = 0;
x = 858;
y = 1002;
},
{
segmentType = curve;
smooth = 1;
x = 821;
y = 1002;
},
{
smooth = 0;
x = 802;
y = 1002;
},
{
smooth = 0;
x = 785;
y = 994;
},
{
segmentType = curve;
smooth = 0;
x = 770;
y = 979;
},
{
segmentType = line;
smooth = 0;
x = 318;
y = 574;
}
);
}
);
lib = {
};
name = k;
unicodes = (
);
width = 984;
};
};
};
},
{
glyphname = kgreenlandic;
layers = (
{
anchors = (
{
name = bottom;
position = "{262, 0}";
},
{
name = top;
position = "{301, 495}";
}
);
background = {
paths = (
{
closed = 1;
nodes = (
"480 -52 OFFCURVE",
"578 59 OFFCURVE",
"516 121 CURVE SMOOTH",
"352 286 LINE",
"338 216 LINE",
"520 379 LINE SMOOTH",
"594 446 OFFCURVE",
"502 546 OFFCURVE",
"429 478 CURVE SMOOTH",
"181 249 LINE",
"411 17 LINE SMOOTH"
);
},
{
closed = 1;
nodes = (
"157 -5 OFFCURVE",
"195 17 OFFCURVE",
"199 68 CURVE SMOOTH",
"228 428 LINE SMOOTH",
"232 479 OFFCURVE",
"197 501 OFFCURVE",
"156 501 CURVE SMOOTH",
"115 501 OFFCURVE",
"76 479 OFFCURVE",
"72 428 CURVE SMOOTH",
"43 68 LINE SMOOTH",
"39 17 OFFCURVE",
"75 -5 OFFCURVE",
"116 -5 CURVE SMOOTH"
);
}
);
};
layerId = "E1B555A7-F4E1-459C-9C1A-AE952106EEF9";
paths = (
{
closed = 1;
nodes = (
"449 -53 OFFCURVE",
"559 45 OFFCURVE",
"501 111 CURVE SMOOTH",
"347 286 LINE",
"338 216 LINE",
"513 384 LINE SMOOTH",
"580 449 OFFCURVE",
"480 545 OFFCURVE",
"413 478 CURVE SMOOTH",
"181 249 LINE",
"387 17 LINE SMOOTH"
);
},
{
closed = 1;
nodes = (
"157 -5 OFFCURVE",
"195 17 OFFCURVE",
"199 68 CURVE SMOOTH",
"228 428 LINE SMOOTH",
"232 479 OFFCURVE",
"197 501 OFFCURVE",
"156 501 CURVE SMOOTH",
"115 501 OFFCURVE",
"76 479 OFFCURVE",
"72 428 CURVE SMOOTH",
"43 68 LINE SMOOTH",
"39 17 OFFCURVE",
"75 -5 OFFCURVE",
"116 -5 CURVE SMOOTH"
);
}
);
width = 562;
}
);
leftKerningGroup = n;
rightKerningGroup = k;
unicode = 0138;
userData = {
com.typemytype.robofont.layerData = {
b = {
anchors = (
);
components = (
);
contours = (
);
lib = {
};
name = kgreenlandic;
unicodes = (
);
width = 1047;
};
};
};
},
{
glyphname = l;
layers = (
{
anchors = (
{
name = bottom;
position = "{116, 0}";
},
{
name = center;
position = "{136, 248}";
},
{
name = top;
position = "{171, 705}";
},
{
name = topright;
position = "{274, 705}";
}
);
background = {
paths = (
{
closed = 1;
nodes = (
"157 -6 OFFCURVE",
"195 16 OFFCURVE",
"199 67 CURVE SMOOTH",
"245 637 LINE SMOOTH",
"249 688 OFFCURVE",
"213 710 OFFCURVE",
"172 710 CURVE SMOOTH",
"131 710 OFFCURVE",
"93 688 OFFCURVE",
"89 637 CURVE SMOOTH",
"43 67 LINE SMOOTH",
"39 16 OFFCURVE",
"75 -6 OFFCURVE",
"116 -6 CURVE SMOOTH"
);
}
);
};
layerId = "E1B555A7-F4E1-459C-9C1A-AE952106EEF9";
paths = (
{
closed = 1;
nodes = (
"157 -6 OFFCURVE",
"195 16 OFFCURVE",
"199 67 CURVE SMOOTH",
"244 637 LINE SMOOTH",
"248 688 OFFCURVE",
"212 710 OFFCURVE",
"171 710 CURVE SMOOTH",
"130 710 OFFCURVE",
"92 688 OFFCURVE",
"88 637 CURVE SMOOTH",
"43 67 LINE SMOOTH",
"39 16 OFFCURVE",
"75 -6 OFFCURVE",
"116 -6 CURVE SMOOTH"
);
}
);
width = 270;
}
);
leftKerningGroup = h;
rightKerningGroup = l;
unicode = 006C;
userData = {
com.typemytype.robofont.layerData = {
b = {
anchors = (
);
components = (
);
contours = (
);
lib = {
};
name = l;
unicodes = (
);
width = 511;
};
};
};
},
{
glyphname = lcaron;
layers = (
{
background = {
components = (
{
name = l;
}
);
paths = (
{
closed = 1;
nodes = (
"353 705 LINE",
"274 705 LINE",
"259 511 LINE",
"312 511 LINE"
);
}
);
};
components = (
{
name = l;
}
);
layerId = "E1B555A7-F4E1-459C-9C1A-AE952106EEF9";
paths = (
{
closed = 1;
nodes = (
"345 665 LINE SMOOTH",
"359 724 OFFCURVE",
"276 728 OFFCURVE",
"271 667 CURVE SMOOTH",
"260 526 LINE SMOOTH",
"257 486 OFFCURVE",
"303 481 OFFCURVE",
"312 521 CURVE SMOOTH"
);
}
);
width = 270;
}
);
leftKerningGroup = h;
rightKerningGroup = lcaron;
unicode = 013E;
},
{
glyphname = lslash;
layers = (
{
background = {
paths = (
{
closed = 1;
nodes = (
"385 398 LINE",
"336 502 LINE",
"-12 310 LINE",
"38 206 LINE"
);
},
{
closed = 1;
nodes = (
"237 0 LINE",
"293 705 LINE",
"137 705 LINE",
"81 0 LINE"
);
}
);
};
layerId = "E1B555A7-F4E1-459C-9C1A-AE952106EEF9";
paths = (
{
closed = 1;
nodes = (
"200 -6 OFFCURVE",
"238 16 OFFCURVE",
"242 67 CURVE SMOOTH",
"287 637 LINE SMOOTH",
"291 688 OFFCURVE",
"255 710 OFFCURVE",
"214 710 CURVE SMOOTH",
"173 710 OFFCURVE",
"135 688 OFFCURVE",
"131 637 CURVE SMOOTH",
"86 67 LINE SMOOTH",
"82 16 OFFCURVE",
"118 -6 OFFCURVE",
"159 -6 CURVE SMOOTH"
);
},
{
closed = 1;
nodes = (
"338 373 LINE SMOOTH",
"410 412 OFFCURVE",
"360 516 OFFCURVE",
"287 475 CURVE SMOOTH",
"36 337 LINE SMOOTH",
"-35 297 OFFCURVE",
"13 193 OFFCURVE",
"87 234 CURVE SMOOTH"
);
}
);
width = 356;
}
);
leftKerningGroup = l;
rightKerningGroup = l;
unicode = 0142;
},
{
glyphname = m;
layers = (
{
anchors = (
{
name = bottom;
position = "{426, 0}";
},
{
name = top;
position = "{465, 495}";
}
);
background = {
paths = (
{
closed = 1;
nodes = (
"194 0 LINE",
"215 266 LINE SMOOTH",
"221 347 OFFCURVE",
"253 382 OFFCURVE",
"308 382 CURVE SMOOTH",
"355 382 OFFCURVE",
"376 350 OFFCURVE",
"371 287 CURVE SMOOTH",
"348 0 LINE",
"504 0 LINE",
"525 266 LINE SMOOTH",
"531 347 OFFCURVE",
"563 382 OFFCURVE",
"618 382 CURVE SMOOTH",
"665 382 OFFCURVE",
"686 350 OFFCURVE",
"681 288 CURVE SMOOTH",
"658 0 LINE",
"814 0 LINE",
"837 292 LINE SMOOTH",
"847 430 OFFCURVE",
"792 503 OFFCURVE",
"680 503 CURVE SMOOTH",
"606 503 OFFCURVE",
"543 470 OFFCURVE",
"503 408 CURVE",
"527 366 LINE",
"518 453 OFFCURVE",
"461 503 OFFCURVE",
"373 503 CURVE SMOOTH",
"299 503 OFFCURVE",
"246 474 OFFCURVE",
"206 413 CURVE",
"221 397 LINE",
"229 490 LINE",
"77 490 LINE",
"38 0 LINE"
);
}
);
};
layerId = "E1B555A7-F4E1-459C-9C1A-AE952106EEF9";
paths = (
{
closed = 1;
nodes = (
"157 -6 OFFCURVE",
"195 16 OFFCURVE",
"199 67 CURVE SMOOTH",
"215 266 LINE SMOOTH",
"222 347 OFFCURVE",
"253 382 OFFCURVE",
"308 382 CURVE SMOOTH",
"355 382 OFFCURVE",
"376 350 OFFCURVE",
"371 287 CURVE SMOOTH",
"353 67 LINE SMOOTH",
"349 16 OFFCURVE",
"385 -6 OFFCURVE",
"426 -6 CURVE SMOOTH",
"468 -6 OFFCURVE",
"505 16 OFFCURVE",
"509 67 CURVE SMOOTH",
"525 266 LINE SMOOTH",
"532 347 OFFCURVE",
"563 382 OFFCURVE",
"618 382 CURVE SMOOTH",
"665 382 OFFCURVE",
"686 350 OFFCURVE",
"681 288 CURVE SMOOTH",
"663 67 LINE SMOOTH",
"659 16 OFFCURVE",
"695 -6 OFFCURVE",
"736 -6 CURVE SMOOTH",
"778 -6 OFFCURVE",
"815 16 OFFCURVE",
"819 67 CURVE SMOOTH",
"837 292 LINE SMOOTH",
"848 430 OFFCURVE",
"792 503 OFFCURVE",
"680 503 CURVE SMOOTH",
"606 503 OFFCURVE",
"543 470 OFFCURVE",
"503 408 CURVE",
"527 366 LINE",
"518 453 OFFCURVE",
"461 503 OFFCURVE",
"373 503 CURVE SMOOTH",
"299 503 OFFCURVE",
"246 474 OFFCURVE",
"206 413 CURVE",
"221 395 LINE",
"224 433 LINE SMOOTH",
"228 478 OFFCURVE",
"197 501 OFFCURVE",
"157 501 CURVE SMOOTH",
"117 501 OFFCURVE",
"76 478 OFFCURVE",
"72 430 CURVE SMOOTH",
"43 67 LINE SMOOTH",
"39 16 OFFCURVE",
"75 -6 OFFCURVE",
"116 -6 CURVE SMOOTH"
);
}
);
width = 887;
}
);
leftKerningGroup = n;
rightKerningGroup = n;
unicode = 006D;
userData = {
anchors = (
);
b = {
};
com.typemytype.robofont.layerData = {
b = {
anchors = (
);
components = (
);
contours = (
);
lib = {
};
name = m;
unicodes = (
);
width = 1838;
};
};
components = (
);
contours = (
);
lib = {
};
name = m;
unicodes = (
);
width = 1877;
};
},
{
glyphname = n;
layers = (
{
anchors = (
{
name = bottom;
position = "{281, 0}";
},
{
name = top;
position = "{320, 495}";
}
);
background = {
paths = (
{
closed = 1;
nodes = (
"194 0 LINE",
"216 275 LINE SMOOTH",
"221 340 OFFCURVE",
"255 382 OFFCURVE",
"317 382 CURVE SMOOTH",
"371 382 OFFCURVE",
"396 348 OFFCURVE",
"391 285 CURVE SMOOTH",
"368 0 LINE",
"524 0 LINE",
"547 291 LINE SMOOTH",
"558 430 OFFCURVE",
"501 503 OFFCURVE",
"382 503 CURVE SMOOTH",
"303 503 OFFCURVE",
"239 468 OFFCURVE",
"209 411 CURVE",
"221 397 LINE",
"229 491 LINE",
"77 491 LINE",
"38 0 LINE"
);
}
);
};
layerId = "E1B555A7-F4E1-459C-9C1A-AE952106EEF9";
paths = (
{
closed = 1;
nodes = (
"164 -6 OFFCURVE",
"195 22 OFFCURVE",
"199 67 CURVE SMOOTH",
"216 275 LINE SMOOTH",
"221 340 OFFCURVE",
"255 382 OFFCURVE",
"317 382 CURVE SMOOTH",
"371 382 OFFCURVE",
"396 348 OFFCURVE",
"391 285 CURVE SMOOTH",
"373 67 LINE SMOOTH",
"369 22 OFFCURVE",
"398 -6 OFFCURVE",
"446 -6 CURVE SMOOTH",
"494 -6 OFFCURVE",
"525 22 OFFCURVE",
"529 67 CURVE SMOOTH",
"547 291 LINE SMOOTH",
"558 430 OFFCURVE",
"501 503 OFFCURVE",
"382 503 CURVE SMOOTH",
"303 503 OFFCURVE",
"239 468 OFFCURVE",
"209 411 CURVE",
"222 397 LINE",
"224 433 LINE SMOOTH",
"228 474 OFFCURVE",
"201 501 OFFCURVE",
"157 501 CURVE SMOOTH",
"110 501 OFFCURVE",
"75 472 OFFCURVE",
"72 430 CURVE SMOOTH",
"43 67 LINE SMOOTH",
"40 22 OFFCURVE",
"68 -6 OFFCURVE",
"116 -6 CURVE SMOOTH"
);
}
);
width = 597;
}
);
leftKerningGroup = n;
rightKerningGroup = n;
unicode = 006E;
userData = {
anchors = (
);
b = {
};
com.typemytype.robofont.layerData = {
b = {
anchors = (
);
components = (
);
contours = (
);
lib = {
};
name = n;
unicodes = (
);
width = 1152;
};
};
components = (
);
contours = {
};
lib = {
};
name = n;
points = {
};
segmentType = curve;
unicodes = (
);
width = 1195;
x = 137;
y = 113;
};
},
{
glyphname = eng;
layers = (
{
background = {
paths = (
{
closed = 1;
nodes = (
"303 503 OFFCURVE",
"239 468 OFFCURVE",
"209 411 CURVE",
"221 397 LINE",
"229 491 LINE",
"77 491 LINE",
"38 0 LINE",
"194 0 LINE",
"216 275 LINE SMOOTH",
"221 340 OFFCURVE",
"255 382 OFFCURVE",
"317 382 CURVE SMOOTH",
"371 382 OFFCURVE",
"396 348 OFFCURVE",
"391 285 CURVE SMOOTH",
"368 6 LINE SMOOTH",
"364 -45 OFFCURVE",
"345 -66 OFFCURVE",
"287 -70 CURVE SMOOTH",
"232 -74 LINE",
"236 -185 LINE",
"283 -182 LINE SMOOTH",
"456 -171 OFFCURVE",
"515 -115 OFFCURVE",
"527 35 CURVE SMOOTH",
"547 291 LINE SMOOTH",
"558 430 OFFCURVE",
"499 503 OFFCURVE",
"382 503 CURVE SMOOTH"
);
}
);
};
layerId = "E1B555A7-F4E1-459C-9C1A-AE952106EEF9";
paths = (
{
closed = 1;
nodes = (
"334 -180 LINE SMOOTH",
"451 -171 OFFCURVE",
"515 -109 OFFCURVE",
"524 4 CURVE SMOOTH",
"547 291 LINE SMOOTH",
"558 430 OFFCURVE",
"499 503 OFFCURVE",
"382 503 CURVE SMOOTH",
"303 503 OFFCURVE",
"239 468 OFFCURVE",
"209 411 CURVE",
"221 396 LINE",
"224 433 LINE SMOOTH",
"228 474 OFFCURVE",
"201 501 OFFCURVE",
"157 501 CURVE SMOOTH",
"110 501 OFFCURVE",
"75 472 OFFCURVE",
"72 430 CURVE SMOOTH",
"43 67 LINE SMOOTH",
"40 22 OFFCURVE",
"68 -6 OFFCURVE",
"116 -6 CURVE SMOOTH",
"164 -6 OFFCURVE",
"195 22 OFFCURVE",
"199 67 CURVE SMOOTH",
"216 275 LINE SMOOTH",
"221 340 OFFCURVE",
"255 382 OFFCURVE",
"317 382 CURVE SMOOTH",
"371 382 OFFCURVE",
"396 348 OFFCURVE",
"391 285 CURVE SMOOTH",
"367 -8 LINE SMOOTH",
"364 -45 OFFCURVE",
"344 -66 OFFCURVE",
"311 -68 CURVE SMOOTH",
"282 -70 LINE SMOOTH",
"241 -73 OFFCURVE",
"221 -90 OFFCURVE",
"218 -124 CURVE SMOOTH",
"215 -165 OFFCURVE",
"246 -186 OFFCURVE",
"306 -182 CURVE SMOOTH"
);
}
);
width = 597;
}
);
leftKerningGroup = n;
rightKerningGroup = n;
unicode = 014B;
},
{
glyphname = o;
layers = (
{
anchors = (
{
name = bottom;
position = "{276, 0}";
},
{
name = center;
position = "{296, 248}";
},
{
name = ogonek;
position = "{379, 10}";
},
{
name = top;
position = "{315, 495}";
},
{
name = topright;
position = "{379, 495}";
}
);
background = {
paths = (
{
closed = 1;
nodes = (
"434 -8 OFFCURVE",
"545 91 OFFCURVE",
"558 248 CURVE SMOOTH",
"570 405 OFFCURVE",
"475 503 OFFCURVE",
"316 503 CURVE SMOOTH",
"157 503 OFFCURVE",
"46 405 OFFCURVE",
"34 248 CURVE SMOOTH",
"21 91 OFFCURVE",
"116 -8 OFFCURVE",
"275 -8 CURVE SMOOTH"
);
},
{
closed = 1;
nodes = (
"216 110 OFFCURVE",
"181 154 OFFCURVE",
"189 248 CURVE SMOOTH",
"196 342 OFFCURVE",
"238 386 OFFCURVE",
"307 386 CURVE SMOOTH",
"376 386 OFFCURVE",
"410 342 OFFCURVE",
"403 248 CURVE SMOOTH",
"395 154 OFFCURVE",
"354 110 OFFCURVE",
"285 110 CURVE SMOOTH"
);
}
);
};
guideLines = (
{
angle = 90;
position = "{684, 608}";
}
);
layerId = "E1B555A7-F4E1-459C-9C1A-AE952106EEF9";
paths = (
{
closed = 1;
nodes = (
"452 -8 OFFCURVE",
"558 93 OFFCURVE",
"558 261 CURVE SMOOTH",
"558 407 OFFCURVE",
"458 503 OFFCURVE",
"298 503 CURVE SMOOTH",
"139 503 OFFCURVE",
"33 402 OFFCURVE",
"33 234 CURVE SMOOTH",
"33 88 OFFCURVE",
"133 -8 OFFCURVE",
"293 -8 CURVE SMOOTH"
);
},
{
closed = 1;
nodes = (
"222 109 OFFCURVE",
"188 149 OFFCURVE",
"188 231 CURVE SMOOTH",
"188 315 OFFCURVE",
"219 386 OFFCURVE",
"300 386 CURVE SMOOTH",
"369 386 OFFCURVE",
"403 346 OFFCURVE",
"403 265 CURVE SMOOTH",
"403 180 OFFCURVE",
"372 109 OFFCURVE",
"291 109 CURVE SMOOTH"
);
}
);
width = 590;
}
);
leftKerningGroup = o;
rightKerningGroup = o;
unicode = 006F;
userData = {
anchors = (
);
b = {
};
com.typemytype.robofont.guides = (
);
com.typemytype.robofont.layerData = {
b = {
anchors = (
);
components = (
);
contours = (
);
lib = {
};
name = o;
unicodes = (
);
width = 1144;
};
};
components = (
);
contours = (
);
lib = {
};
name = o;
unicodes = (
);
width = 1199;
};
},
{
glyphname = ohorn;
layers = (
{
anchors = (
{
name = bottom;
position = "{276, 0}";
},
{
name = top;
position = "{315, 495}";
}
);
background = {
paths = (
{
closed = 1;
nodes = (
"433 -8 OFFCURVE",
"544 91 OFFCURVE",
"557 247 CURVE SMOOTH",
"564 331 OFFCURVE",
"539 405 OFFCURVE",
"482 448 CURVE",
"464 421 LINE",
"545 431 OFFCURVE",
"602 497 OFFCURVE",
"608 565 CURVE SMOOTH",
"612 612 OFFCURVE",
"593 631 OFFCURVE",
"551 631 CURVE SMOOTH",
"507 631 OFFCURVE",
"479 613 OFFCURVE",
"469 561 CURVE SMOOTH",
"459 511 OFFCURVE",
"432 495 OFFCURVE",
"395 495 CURVE SMOOTH",
"375 495 OFFCURVE",
"352 503 OFFCURVE",
"315 503 CURVE SMOOTH",
"156 503 OFFCURVE",
"45 405 OFFCURVE",
"33 247 CURVE SMOOTH",
"21 91 OFFCURVE",
"115 -8 OFFCURVE",
"274 -8 CURVE SMOOTH"
);
},
{
closed = 1;
nodes = (
"215 110 OFFCURVE",
"180 154 OFFCURVE",
"188 247 CURVE SMOOTH",
"196 342 OFFCURVE",
"237 386 OFFCURVE",
"306 386 CURVE SMOOTH",
"375 386 OFFCURVE",
"409 342 OFFCURVE",
"402 247 CURVE SMOOTH",
"395 154 OFFCURVE",
"353 110 OFFCURVE",
"284 110 CURVE SMOOTH"
);
}
);
};
layerId = "E1B555A7-F4E1-459C-9C1A-AE952106EEF9";
paths = (
{
closed = 1;
nodes = (
"452 -8 OFFCURVE",
"558 93 OFFCURVE",
"558 261 CURVE SMOOTH",
"558 335 OFFCURVE",
"530 405 OFFCURVE",
"476 448 CURVE",
"464 421 LINE",
"546 429 OFFCURVE",
"608 502 OFFCURVE",
"608 570 CURVE SMOOTH",
"608 617 OFFCURVE",
"591 631 OFFCURVE",
"550 631 CURVE SMOOTH",
"507 631 OFFCURVE",
"479 613 OFFCURVE",
"469 561 CURVE SMOOTH",
"459 511 OFFCURVE",
"433 495 OFFCURVE",
"396 495 CURVE SMOOTH",
"376 495 OFFCURVE",
"328 503 OFFCURVE",
"298 503 CURVE SMOOTH",
"139 503 OFFCURVE",
"33 402 OFFCURVE",
"33 234 CURVE SMOOTH",
"33 88 OFFCURVE",
"133 -8 OFFCURVE",
"293 -8 CURVE SMOOTH"
);
},
{
closed = 1;
nodes = (
"222 109 OFFCURVE",
"188 149 OFFCURVE",
"188 231 CURVE SMOOTH",
"188 315 OFFCURVE",
"219 386 OFFCURVE",
"300 386 CURVE SMOOTH",
"369 386 OFFCURVE",
"403 346 OFFCURVE",
"403 265 CURVE SMOOTH",
"403 180 OFFCURVE",
"372 109 OFFCURVE",
"291 109 CURVE SMOOTH"
);
}
);
width = 590;
}
);
leftKerningGroup = o;
rightKerningGroup = o;
unicode = 01A1;
},
{
glyphname = oogonek;
layers = (
{
anchors = (
{
name = top;
position = "{315, 495}";
}
);
background = {
anchors = (
{
name = top;
position = "{334, 495}";
}
);
paths = (
{
closed = 1;
nodes = (
"356 -197 OFFCURVE",
"385 -190 OFFCURVE",
"413 -174 CURVE SMOOTH",
"448 -155 OFFCURVE",
"437 -98 OFFCURVE",
"400 -109 CURVE SMOOTH",
"375 -115 OFFCURVE",
"366 -117 OFFCURVE",
"352 -117 CURVE SMOOTH",
"321 -117 OFFCURVE",
"301 -96 OFFCURVE",
"304 -64 CURVE SMOOTH",
"307 -30 OFFCURVE",
"329 -7 OFFCURVE",
"373 6 CURVE SMOOTH",
"478 37 OFFCURVE",
"548 127 OFFCURVE",
"558 248 CURVE SMOOTH",
"570 405 OFFCURVE",
"475 503 OFFCURVE",
"316 503 CURVE SMOOTH",
"157 503 OFFCURVE",
"46 405 OFFCURVE",
"34 248 CURVE SMOOTH",
"21 91 OFFCURVE",
"116 -8 OFFCURVE",
"280 -8 CURVE",
"272 14 LINE",
"230 -10 OFFCURVE",
"206 -46 OFFCURVE",
"203 -87 CURVE SMOOTH",
"198 -151 OFFCURVE",
"247 -197 OFFCURVE",
"322 -197 CURVE SMOOTH"
);
},
{
closed = 1;
nodes = (
"216 110 OFFCURVE",
"181 154 OFFCURVE",
"189 248 CURVE SMOOTH",
"196 342 OFFCURVE",
"238 386 OFFCURVE",
"307 386 CURVE SMOOTH",
"376 386 OFFCURVE",
"410 342 OFFCURVE",
"403 248 CURVE SMOOTH",
"395 154 OFFCURVE",
"354 110 OFFCURVE",
"285 110 CURVE SMOOTH"
);
}
);
};
layerId = "E1B555A7-F4E1-459C-9C1A-AE952106EEF9";
paths = (
{
closed = 1;
nodes = (
"356 -197 OFFCURVE",
"385 -189 OFFCURVE",
"413 -174 CURVE SMOOTH",
"448 -155 OFFCURVE",
"437 -98 OFFCURVE",
"400 -109 CURVE SMOOTH",
"395 -111 OFFCURVE",
"374 -117 OFFCURVE",
"357 -117 CURVE SMOOTH",
"325 -117 OFFCURVE",
"304 -99 OFFCURVE",
"304 -67 CURVE SMOOTH",
"304 -31 OFFCURVE",
"330 -10 OFFCURVE",
"373 2 CURVE SMOOTH",
"478 31 OFFCURVE",
"558 106 OFFCURVE",
"558 261 CURVE SMOOTH",
"558 407 OFFCURVE",
"457 503 OFFCURVE",
"298 503 CURVE SMOOTH",
"139 503 OFFCURVE",
"33 402 OFFCURVE",
"33 234 CURVE SMOOTH",
"33 88 OFFCURVE",
"133 -8 OFFCURVE",
"293 -8 CURVE",
"272 14 LINE",
"230 -10 OFFCURVE",
"203 -40 OFFCURVE",
"203 -91 CURVE SMOOTH",
"203 -153 OFFCURVE",
"252 -197 OFFCURVE",
"330 -197 CURVE SMOOTH"
);
},
{
closed = 1;
nodes = (
"222 109 OFFCURVE",
"188 149 OFFCURVE",
"188 231 CURVE SMOOTH",
"188 315 OFFCURVE",
"219 386 OFFCURVE",
"300 386 CURVE SMOOTH",
"369 386 OFFCURVE",
"403 346 OFFCURVE",
"403 265 CURVE SMOOTH",
"403 180 OFFCURVE",
"372 109 OFFCURVE",
"291 109 CURVE SMOOTH"
);
}
);
width = 590;
}
);
leftKerningGroup = o;
rightKerningGroup = o;
unicode = 01EB;
},
{
glyphname = oslash;
layers = (
{
anchors = (
{
name = top;
position = "{315, 495}";
}
);
background = {
paths = (
{
closed = 1;
nodes = (
"522 516 LINE",
"453 559 LINE",
"69 -21 LINE",
"138 -64 LINE"
);
},
{
closed = 1;
nodes = (
"452 -8 OFFCURVE",
"558 93 OFFCURVE",
"558 261 CURVE SMOOTH",
"558 407 OFFCURVE",
"458 503 OFFCURVE",
"298 503 CURVE SMOOTH",
"139 503 OFFCURVE",
"33 402 OFFCURVE",
"33 234 CURVE SMOOTH",
"33 88 OFFCURVE",
"133 -8 OFFCURVE",
"293 -8 CURVE SMOOTH"
);
},
{
closed = 1;
nodes = (
"219 108 OFFCURVE",
"185 148 OFFCURVE",
"185 231 CURVE SMOOTH",
"185 316 OFFCURVE",
"216 387 OFFCURVE",
"300 387 CURVE SMOOTH",
"373 387 OFFCURVE",
"407 347 OFFCURVE",
"407 265 CURVE SMOOTH",
"407 179 OFFCURVE",
"376 108 OFFCURVE",
"291 108 CURVE SMOOTH"
);
}
);
};
layerId = "E1B555A7-F4E1-459C-9C1A-AE952106EEF9";
paths = (
{
closed = 1;
nodes = (
"452 -8 OFFCURVE",
"558 93 OFFCURVE",
"558 261 CURVE SMOOTH",
"558 407 OFFCURVE",
"458 503 OFFCURVE",
"298 503 CURVE SMOOTH",
"139 503 OFFCURVE",
"33 402 OFFCURVE",
"33 234 CURVE SMOOTH",
"33 88 OFFCURVE",
"133 -8 OFFCURVE",
"293 -8 CURVE SMOOTH"
);
},
{
closed = 1;
nodes = (
"503 487 LINE SMOOTH",
"535 535 OFFCURVE",
"461 571 OFFCURVE",
"430 524 CURVE SMOOTH",
"88 7 LINE SMOOTH",
"57 -40 OFFCURVE",
"130 -76 OFFCURVE",
"160 -30 CURVE SMOOTH"
);
},
{
closed = 1;
nodes = (
"219 108 OFFCURVE",
"185 148 OFFCURVE",
"185 231 CURVE SMOOTH",
"185 316 OFFCURVE",
"216 387 OFFCURVE",
"300 387 CURVE SMOOTH",
"373 387 OFFCURVE",
"407 347 OFFCURVE",
"407 265 CURVE SMOOTH",
"407 179 OFFCURVE",
"376 108 OFFCURVE",
"291 108 CURVE SMOOTH"
);
}
);
width = 590;
}
);
leftKerningGroup = o;
rightKerningGroup = o;
unicode = 00F8;
},
{
glyphname = oe;
layers = (
{
anchors = (
{
name = bottom;
position = "{457, 0}";
},
{
name = top;
position = "{496, 495}";
}
);
background = {
paths = (
{
closed = 1;
nodes = (
"452 -8 OFFCURVE",
"532 103 OFFCURVE",
"532 272 CURVE SMOOTH",
"532 407 OFFCURVE",
"458 503 OFFCURVE",
"293 503 CURVE SMOOTH",
"139 503 OFFCURVE",
"33 402 OFFCURVE",
"33 234 CURVE SMOOTH",
"33 88 OFFCURVE",
"133 -8 OFFCURVE",
"285 -8 CURVE SMOOTH"
);
},
{
closed = 1;
nodes = (
"222 109 OFFCURVE",
"188 149 OFFCURVE",
"188 231 CURVE SMOOTH",
"188 315 OFFCURVE",
"219 386 OFFCURVE",
"300 386 CURVE SMOOTH",
"366 386 OFFCURVE",
"400 346 OFFCURVE",
"400 265 CURVE SMOOTH",
"400 180 OFFCURVE",
"369 109 OFFCURVE",
"291 109 CURVE SMOOTH"
);
},
{
closed = 1;
nodes = (
"729 -8 OFFCURVE",
"800 15 OFFCURVE",
"843 52 CURVE",
"810 156 LINE",
"767 125 OFFCURVE",
"721 108 OFFCURVE",
"672 108 CURVE SMOOTH",
"595 108 OFFCURVE",
"553 150 OFFCURVE",
"553 237 CURVE SMOOTH",
"553 349 OFFCURVE",
"592 396 OFFCURVE",
"659 396 CURVE SMOOTH",
"708 396 OFFCURVE",
"742 360 OFFCURVE",
"738 278 CURVE",
"777 293 LINE",
"547 293 LINE",
"540 216 LINE",
"864 216 LINE",
"885 405 OFFCURVE",
"793 503 OFFCURVE",
"657 503 CURVE SMOOTH",
"511 503 OFFCURVE",
"424 393 OFFCURVE",
"424 233 CURVE SMOOTH",
"424 97 OFFCURVE",
"509 -8 OFFCURVE",
"660 -8 CURVE SMOOTH"
);
}
);
};
layerId = "E1B555A7-F4E1-459C-9C1A-AE952106EEF9";
paths = (
{
closed = 1;
nodes = (
"452 -8 OFFCURVE",
"532 103 OFFCURVE",
"532 272 CURVE SMOOTH",
"532 407 OFFCURVE",
"458 503 OFFCURVE",
"293 503 CURVE SMOOTH",
"139 503 OFFCURVE",
"33 402 OFFCURVE",
"33 234 CURVE SMOOTH",
"33 88 OFFCURVE",
"133 -8 OFFCURVE",
"285 -8 CURVE SMOOTH"
);
},
{
closed = 1;
nodes = (
"222 109 OFFCURVE",
"188 149 OFFCURVE",
"188 231 CURVE SMOOTH",
"188 315 OFFCURVE",
"219 386 OFFCURVE",
"300 386 CURVE SMOOTH",
"366 386 OFFCURVE",
"400 346 OFFCURVE",
"400 265 CURVE SMOOTH",
"400 180 OFFCURVE",
"369 109 OFFCURVE",
"291 109 CURVE SMOOTH"
);
},
{
closed = 1;
nodes = (
"718 -8 OFFCURVE",
"778 8 OFFCURVE",
"813 31 CURVE SMOOTH",
"871 69 OFFCURVE",
"846 172 OFFCURVE",
"774 136 CURVE SMOOTH",
"740 119 OFFCURVE",
"712 108 OFFCURVE",
"672 108 CURVE SMOOTH",
"595 108 OFFCURVE",
"553 150 OFFCURVE",
"553 237 CURVE SMOOTH",
"553 349 OFFCURVE",
"592 396 OFFCURVE",
"657 396 CURVE SMOOTH",
"708 396 OFFCURVE",
"742 360 OFFCURVE",
"738 278 CURVE",
"777 293 LINE",
"547 293 LINE",
"540 216 LINE",
"823 216 LINE SMOOTH",
"850 216 OFFCURVE",
"867 233 OFFCURVE",
"867 262 CURVE SMOOTH",
"867 415 OFFCURVE",
"787 503 OFFCURVE",
"661 503 CURVE SMOOTH",
"511 503 OFFCURVE",
"424 393 OFFCURVE",
"424 233 CURVE SMOOTH",
"424 97 OFFCURVE",
"509 -8 OFFCURVE",
"660 -8 CURVE SMOOTH"
);
}
);
width = 898;
}
);
leftKerningGroup = o;
rightKerningGroup = e;
unicode = 0153;
},
{
glyphname = p;
layers = (
{
anchors = (
{
name = bottom;
position = "{270, 0}";
},
{
name = top;
position = "{309, 495}";
}
);
background = {
paths = (
{
closed = 1;
nodes = (
"179 -180 LINE",
"202 115 LINE",
"190 79 LINE",
"221 24 OFFCURVE",
"274 -8 OFFCURVE",
"348 -8 CURVE SMOOTH",
"488 -8 OFFCURVE",
"583 105 OFFCURVE",
"583 267 CURVE SMOOTH",
"583 414 OFFCURVE",
"498 503 OFFCURVE",
"374 503 CURVE SMOOTH",
"300 503 OFFCURVE",
"240 468 OFFCURVE",
"212 411 CURVE",
"221 377 LINE",
"230 491 LINE",
"76 491 LINE",
"23 -180 LINE"
);
},
{
closed = 1;
nodes = (
"249 109 OFFCURVE",
"211 153 OFFCURVE",
"211 240 CURVE SMOOTH",
"211 328 OFFCURVE",
"253 386 OFFCURVE",
"321 386 CURVE SMOOTH",
"389 386 OFFCURVE",
"428 340 OFFCURVE",
"428 257 CURVE SMOOTH",
"428 166 OFFCURVE",
"386 109 OFFCURVE",
"316 109 CURVE SMOOTH"
);
}
);
};
layerId = "E1B555A7-F4E1-459C-9C1A-AE952106EEF9";
paths = (
{
closed = 1;
nodes = (
"298 503 OFFCURVE",
"238 468 OFFCURVE",
"210 411 CURVE",
"220 377 LINE",
"224 428 LINE SMOOTH",
"227 472 OFFCURVE",
"199 501 OFFCURVE",
"152 501 CURVE SMOOTH",
"105 501 OFFCURVE",
"74 472 OFFCURVE",
"71 428 CURVE SMOOTH",
"28 -117 LINE SMOOTH",
"25 -159 OFFCURVE",
"55 -188 OFFCURVE",
"103 -188 CURVE SMOOTH",
"149 -188 OFFCURVE",
"181 -161 OFFCURVE",
"184 -120 CURVE SMOOTH",
"203 115 LINE",
"188 79 LINE",
"219 24 OFFCURVE",
"272 -8 OFFCURVE",
"346 -8 CURVE SMOOTH",
"486 -8 OFFCURVE",
"581 105 OFFCURVE",
"581 267 CURVE SMOOTH",
"581 414 OFFCURVE",
"496 503 OFFCURVE",
"372 503 CURVE SMOOTH"
);
},
{
closed = 1;
nodes = (
"387 386 OFFCURVE",
"426 340 OFFCURVE",
"426 257 CURVE SMOOTH",
"426 166 OFFCURVE",
"384 109 OFFCURVE",
"314 109 CURVE SMOOTH",
"247 109 OFFCURVE",
"209 153 OFFCURVE",
"209 240 CURVE SMOOTH",
"209 328 OFFCURVE",
"251 386 OFFCURVE",
"319 386 CURVE SMOOTH"
);
}
);
width = 615;
}
);
leftKerningGroup = n;
rightKerningGroup = o;
unicode = 0070;
userData = {
anchors = (
);
b = {
};
com.typemytype.robofont.layerData = {
b = {
anchors = (
);
components = (
);
contours = (
);
lib = {
};
name = p;
unicodes = (
);
width = 1181;
};
};
components = (
);
contours = (
);
lib = {
};
name = p;
unicodes = (
);
width = 1207;
};
},
{
glyphname = thorn;
layers = (
{
anchors = (
{
name = bottom;
position = "{289, 0}";
},
{
name = top;
position = "{328, 495}";
}
);
background = {
paths = (
{
closed = 1;
nodes = (
"179 -180 LINE",
"202 115 LINE",
"190 79 LINE",
"221 24 OFFCURVE",
"274 -8 OFFCURVE",
"348 -8 CURVE SMOOTH",
"488 -8 OFFCURVE",
"583 105 OFFCURVE",
"583 267 CURVE SMOOTH",
"583 414 OFFCURVE",
"498 503 OFFCURVE",
"374 503 CURVE SMOOTH",
"300 503 OFFCURVE",
"240 468 OFFCURVE",
"212 411 CURVE",
"223 380 LINE",
"249 705 LINE",
"93 705 LINE",
"23 -180 LINE"
);
},
{
closed = 1;
nodes = (
"249 109 OFFCURVE",
"211 153 OFFCURVE",
"211 240 CURVE SMOOTH",
"211 328 OFFCURVE",
"253 386 OFFCURVE",
"321 386 CURVE SMOOTH",
"389 386 OFFCURVE",
"428 340 OFFCURVE",
"428 257 CURVE SMOOTH",
"428 166 OFFCURVE",
"386 109 OFFCURVE",
"316 109 CURVE SMOOTH"
);
}
);
};
layerId = "E1B555A7-F4E1-459C-9C1A-AE952106EEF9";
paths = (
{
closed = 1;
nodes = (
"298 503 OFFCURVE",
"238 468 OFFCURVE",
"210 411 CURVE",
"223 377 LINE",
"244 640 LINE SMOOTH",
"248 684 OFFCURVE",
"219 713 OFFCURVE",
"171 713 CURVE SMOOTH",
"123 713 OFFCURVE",
"91 684 OFFCURVE",
"88 640 CURVE SMOOTH",
"28 -117 LINE SMOOTH",
"25 -159 OFFCURVE",
"55 -188 OFFCURVE",
"103 -188 CURVE SMOOTH",
"149 -188 OFFCURVE",
"181 -161 OFFCURVE",
"184 -120 CURVE SMOOTH",
"203 115 LINE",
"188 79 LINE",
"219 24 OFFCURVE",
"272 -8 OFFCURVE",
"346 -8 CURVE SMOOTH",
"486 -8 OFFCURVE",
"581 105 OFFCURVE",
"581 267 CURVE SMOOTH",
"581 414 OFFCURVE",
"496 503 OFFCURVE",
"372 503 CURVE SMOOTH"
);
},
{
closed = 1;
nodes = (
"387 386 OFFCURVE",
"426 340 OFFCURVE",
"426 257 CURVE SMOOTH",
"426 166 OFFCURVE",
"384 109 OFFCURVE",
"314 109 CURVE SMOOTH",
"247 109 OFFCURVE",
"209 153 OFFCURVE",
"209 240 CURVE SMOOTH",
"209 328 OFFCURVE",
"251 386 OFFCURVE",
"319 386 CURVE SMOOTH"
);
}
);
width = 615;
}
);
leftKerningGroup = h;
rightKerningGroup = o;
unicode = 00FE;
},
{
glyphname = q;
layers = (
{
anchors = (
{
name = bottom;
position = "{288, 0}";
},
{
name = top;
position = "{327, 495}";
}
);
background = {
paths = (
{
closed = 1;
nodes = (
"524 -180 LINE",
"577 491 LINE",
"423 491 LINE",
"414 380 LINE",
"426 416 LINE",
"395 471 OFFCURVE",
"342 503 OFFCURVE",
"268 503 CURVE SMOOTH",
"128 503 OFFCURVE",
"33 390 OFFCURVE",
"33 228 CURVE SMOOTH",
"33 81 OFFCURVE",
"118 -8 OFFCURVE",
"242 -8 CURVE SMOOTH",
"316 -8 OFFCURVE",
"376 27 OFFCURVE",
"404 84 CURVE",
"391 115 LINE",
"368 -180 LINE"
);
},
{
closed = 1;
nodes = (
"227 109 OFFCURVE",
"188 155 OFFCURVE",
"188 238 CURVE SMOOTH",
"188 329 OFFCURVE",
"230 386 OFFCURVE",
"300 386 CURVE SMOOTH",
"367 386 OFFCURVE",
"405 342 OFFCURVE",
"405 255 CURVE SMOOTH",
"405 167 OFFCURVE",
"363 109 OFFCURVE",
"295 109 CURVE SMOOTH"
);
}
);
};
layerId = "E1B555A7-F4E1-459C-9C1A-AE952106EEF9";
paths = (
{
closed = 1;
nodes = (
"128 503 OFFCURVE",
"33 390 OFFCURVE",
"33 228 CURVE SMOOTH",
"33 81 OFFCURVE",
"118 -8 OFFCURVE",
"242 -8 CURVE SMOOTH",
"316 -8 OFFCURVE",
"376 27 OFFCURVE",
"404 84 CURVE",
"393 115 LINE",
"374 -120 LINE SMOOTH",
"371 -161 OFFCURVE",
"398 -188 OFFCURVE",
"444 -188 CURVE SMOOTH",
"492 -188 OFFCURVE",
"527 -159 OFFCURVE",
"530 -117 CURVE SMOOTH",
"573 428 LINE SMOOTH",
"576 472 OFFCURVE",
"548 501 OFFCURVE",
"501 501 CURVE SMOOTH",
"454 501 OFFCURVE",
"422 472 OFFCURVE",
"419 428 CURVE SMOOTH",
"415 377 LINE",
"426 416 LINE",
"395 471 OFFCURVE",
"342 503 OFFCURVE",
"268 503 CURVE SMOOTH"
);
},
{
closed = 1;
nodes = (
"367 386 OFFCURVE",
"405 342 OFFCURVE",
"405 255 CURVE SMOOTH",
"405 167 OFFCURVE",
"363 109 OFFCURVE",
"295 109 CURVE SMOOTH",
"227 109 OFFCURVE",
"188 155 OFFCURVE",
"188 238 CURVE SMOOTH",
"188 329 OFFCURVE",
"230 386 OFFCURVE",
"300 386 CURVE SMOOTH"
);
}
);
width = 615;
}
);
leftKerningGroup = o;
rightKerningGroup = q;
unicode = 0071;
userData = {
anchors = (
);
b = {
};
com.typemytype.robofont.layerData = {
b = {
anchors = (
);
components = (
);
contours = (
);
lib = {
};
name = p;
unicodes = (
);
width = 1181;
};
};
components = (
);
contours = (
);
lib = {
};
name = p;
unicodes = (
);
width = 1207;
};
},
{
glyphname = r;
layers = (
{
anchors = (
{
name = bottom;
position = "{116, 0}";
},
{
name = top;
position = "{255, 495}";
}
);
background = {
paths = (
{
closed = 1;
nodes = (
"194 0 LINE",
"214 254 LINE SMOOTH",
"220 325 OFFCURVE",
"247 357 OFFCURVE",
"328 365 CURVE SMOOTH",
"424 375 LINE",
"425 504 LINE",
"389 502 LINE SMOOTH",
"295 495 OFFCURVE",
"229 457 OFFCURVE",
"196 382 CURVE",
"215 361 LINE",
"226 490 LINE",
"77 490 LINE",
"38 0 LINE"
);
}
);
};
layerId = "E1B555A7-F4E1-459C-9C1A-AE952106EEF9";
paths = (
{
closed = 1;
nodes = (
"157 -6 OFFCURVE",
"195 16 OFFCURVE",
"199 67 CURVE SMOOTH",
"214 254 LINE SMOOTH",
"220 325 OFFCURVE",
"247 356 OFFCURVE",
"328 365 CURVE SMOOTH",
"355 368 LINE SMOOTH",
"413 374 OFFCURVE",
"432 394 OFFCURVE",
"436 439 CURVE SMOOTH",
"440 482 OFFCURVE",
"415 504 OFFCURVE",
"378 501 CURVE SMOOTH",
"366 500 LINE SMOOTH",
"301 495 OFFCURVE",
"229 457 OFFCURVE",
"196 382 CURVE",
"216 361 LINE",
"221 433 LINE SMOOTH",
"224 478 OFFCURVE",
"196 501 OFFCURVE",
"155 501 CURVE SMOOTH",
"116 501 OFFCURVE",
"76 478 OFFCURVE",
"72 430 CURVE SMOOTH",
"43 67 LINE SMOOTH",
"39 16 OFFCURVE",
"75 -6 OFFCURVE",
"116 -6 CURVE SMOOTH"
);
}
);
width = 404;
}
);
leftKerningGroup = n;
rightKerningGroup = r;
unicode = 0072;
userData = {
anchors = (
);
b = {
};
com.typemytype.robofont.layerData = {
b = {
anchors = (
);
components = (
);
contours = (
);
lib = {
};
name = r;
unicodes = (
);
width = 715;
};
};
components = (
);
contours = (
);
lib = {
};
name = r;
unicodes = (
);
width = 763;
};
},
{
glyphname = s;
layers = (
{
anchors = (
{
name = bottom;
position = "{225, 0}";
},
{
name = top;
position = "{273, 495}";
}
);
background = {
paths = (
{
closed = 1;
nodes = (
"356 -8 OFFCURVE",
"446 53 OFFCURVE",
"454 148 CURVE SMOOTH",
"461 233 OFFCURVE",
"418 272 OFFCURVE",
"289 297 CURVE SMOOTH",
"210 312 OFFCURVE",
"190 323 OFFCURVE",
"192 350 CURVE SMOOTH",
"194 375 OFFCURVE",
"220 390 OFFCURVE",
"259 390 CURVE SMOOTH",
"334 390 OFFCURVE",
"358 347 OFFCURVE",
"405 347 CURVE SMOOTH",
"431 347 OFFCURVE",
"453 372 OFFCURVE",
"455 405 CURVE SMOOTH",
"457 429 OFFCURVE",
"449 448 OFFCURVE",
"429 461 CURVE SMOOTH",
"388 488 OFFCURVE",
"332 503 OFFCURVE",
"274 503 CURVE SMOOTH",
"152 503 OFFCURVE",
"57 436 OFFCURVE",
"49 344 CURVE SMOOTH",
"43 263 OFFCURVE",
"89 221 OFFCURVE",
"205 198 CURVE SMOOTH",
"298 179 OFFCURVE",
"315 171 OFFCURVE",
"313 145 CURVE SMOOTH",
"311 120 OFFCURVE",
"282 106 OFFCURVE",
"238 106 CURVE SMOOTH",
"138 106 OFFCURVE",
"113 148 OFFCURVE",
"66 148 CURVE SMOOTH",
"39 148 OFFCURVE",
"18 125 OFFCURVE",
"15 93 CURVE SMOOTH",
"13 67 OFFCURVE",
"23 46 OFFCURVE",
"42 34 CURVE SMOOTH",
"85 5 OFFCURVE",
"142 -8 OFFCURVE",
"224 -8 CURVE SMOOTH"
);
},
{
closed = 1;
nodes = (
"369 -8 OFFCURVE",
"453 49 OFFCURVE",
"453 149 CURVE SMOOTH",
"453 316 OFFCURVE",
"187 280 OFFCURVE",
"187 354 CURVE SMOOTH",
"187 378 OFFCURVE",
"212 393 OFFCURVE",
"262 393 CURVE SMOOTH",
"313 393 OFFCURVE",
"367 375 OFFCURVE",
"416 340 CURVE",
"465 443 LINE",
"416 480 OFFCURVE",
"339 503 OFFCURVE",
"265 503 CURVE SMOOTH",
"138 503 OFFCURVE",
"50 440 OFFCURVE",
"48 348 CURVE SMOOTH",
"44 176 OFFCURVE",
"314 214 OFFCURVE",
"314 140 CURVE SMOOTH",
"314 118 OFFCURVE",
"293 102 OFFCURVE",
"241 102 CURVE SMOOTH",
"179 102 OFFCURVE",
"113 123 OFFCURVE",
"59 159 CURVE",
"9 52 LINE",
"78 12 OFFCURVE",
"150 -8 OFFCURVE",
"238 -8 CURVE SMOOTH"
);
}
);
};
layerId = "E1B555A7-F4E1-459C-9C1A-AE952106EEF9";
paths = (
{
closed = 1;
nodes = (
"372 -8 OFFCURVE",
"453 51 OFFCURVE",
"453 149 CURVE SMOOTH",
"453 316 OFFCURVE",
"187 280 OFFCURVE",
"187 354 CURVE SMOOTH",
"187 379 OFFCURVE",
"214 393 OFFCURVE",
"262 393 CURVE SMOOTH",
"305 393 OFFCURVE",
"343 382 OFFCURVE",
"382 362 CURVE SMOOTH",
"451 326 OFFCURVE",
"491 429 OFFCURVE",
"422 468 CURVE SMOOTH",
"385 489 OFFCURVE",
"322 503 OFFCURVE",
"275 503 CURVE SMOOTH",
"138 503 OFFCURVE",
"50 440 OFFCURVE",
"48 348 CURVE SMOOTH",
"44 176 OFFCURVE",
"314 214 OFFCURVE",
"314 140 CURVE SMOOTH",
"314 115 OFFCURVE",
"289 102 OFFCURVE",
"241 102 CURVE SMOOTH",
"192 102 OFFCURVE",
"137 116 OFFCURVE",
"95 138 CURVE SMOOTH",
"22 177 OFFCURVE",
"-26 66 OFFCURVE",
"56 28 CURVE SMOOTH",
"108 4 OFFCURVE",
"169 -8 OFFCURVE",
"228 -8 CURVE SMOOTH"
);
}
);
width = 488;
}
);
leftKerningGroup = s;
rightKerningGroup = s;
unicode = 0073;
userData = {
anchors = (
);
b = {
};
com.typemytype.robofont.layerData = {
b = {
anchors = (
);
components = (
);
contours = (
);
lib = {
};
name = s;
unicodes = (
);
width = 1007;
};
};
components = (
);
contours = (
);
lib = {
};
name = s;
unicodes = (
);
width = 1006.76001;
};
},
{
glyphname = germandbls;
layers = (
{
background = {
paths = (
{
closed = 1;
nodes = (
"194 0 LINE",
"231 466 LINE SMOOTH",
"238 559 OFFCURVE",
"281 602 OFFCURVE",
"355 602 CURVE SMOOTH",
"404 602 OFFCURVE",
"426 584 OFFCURVE",
"426 550 CURVE SMOOTH",
"426 490 OFFCURVE",
"300 442 OFFCURVE",
"300 338 CURVE SMOOTH",
"300 188 OFFCURVE",
"514 218 OFFCURVE",
"514 148 CURVE SMOOTH",
"514 120 OFFCURVE",
"491 106 OFFCURVE",
"453 106 CURVE SMOOTH",
"400 106 OFFCURVE",
"343 126 OFFCURVE",
"290 159 CURVE",
"240 52 LINE",
"293 14 OFFCURVE",
"366 -8 OFFCURVE",
"439 -8 CURVE SMOOTH",
"577 -8 OFFCURVE",
"657 63 OFFCURVE",
"657 163 CURVE SMOOTH",
"657 325 OFFCURVE",
"445 294 OFFCURVE",
"445 361 CURVE SMOOTH",
"445 422 OFFCURVE",
"573 462 OFFCURVE",
"573 576 CURVE SMOOTH",
"573 661 OFFCURVE",
"494 713 OFFCURVE",
"363 713 CURVE SMOOTH",
"187 713 OFFCURVE",
"87 620 OFFCURVE",
"73 442 CURVE SMOOTH",
"38 0 LINE"
);
}
);
};
layerId = "E1B555A7-F4E1-459C-9C1A-AE952106EEF9";
paths = (
{
closed = 1;
nodes = (
"571 -8 OFFCURVE",
"657 58 OFFCURVE",
"657 163 CURVE SMOOTH",
"657 325 OFFCURVE",
"445 294 OFFCURVE",
"445 361 CURVE SMOOTH",
"445 421 OFFCURVE",
"573 464 OFFCURVE",
"573 576 CURVE SMOOTH",
"573 661 OFFCURVE",
"494 713 OFFCURVE",
"363 713 CURVE SMOOTH",
"187 713 OFFCURVE",
"87 620 OFFCURVE",
"73 442 CURVE SMOOTH",
"43 67 LINE SMOOTH",
"39 22 OFFCURVE",
"68 -6 OFFCURVE",
"116 -6 CURVE SMOOTH",
"164 -6 OFFCURVE",
"195 22 OFFCURVE",
"199 67 CURVE SMOOTH",
"231 466 LINE SMOOTH",
"238 557 OFFCURVE",
"279 602 OFFCURVE",
"355 602 CURVE SMOOTH",
"403 602 OFFCURVE",
"426 585 OFFCURVE",
"426 550 CURVE SMOOTH",
"426 488 OFFCURVE",
"300 449 OFFCURVE",
"300 338 CURVE SMOOTH",
"300 188 OFFCURVE",
"515 218 OFFCURVE",
"515 148 CURVE SMOOTH",
"515 122 OFFCURVE",
"491 106 OFFCURVE",
"450 106 CURVE SMOOTH",
"408 106 OFFCURVE",
"377 111 OFFCURVE",
"334 135 CURVE SMOOTH",
"262 176 OFFCURVE",
"214 73 OFFCURVE",
"274 34 CURVE SMOOTH",
"316 7 OFFCURVE",
"373 -8 OFFCURVE",
"436 -8 CURVE SMOOTH"
);
}
);
width = 683;
}
);
leftKerningGroup = h;
rightKerningGroup = germandbls;
unicode = 00DF;
},
{
glyphname = t;
layers = (
{
anchors = (
{
name = bottom;
position = "{226, 0}";
},
{
name = center;
position = "{176, 248}";
},
{
name = top;
position = "{206, 635}";
},
{
name = topright;
position = "{329, 705}";
}
);
background = {
paths = (
{
closed = 1;
nodes = (
"93 194 LINE SMOOTH",
"82 60 OFFCURVE",
"151 -8 OFFCURVE",
"297 -8 CURVE SMOOTH",
"314 -8 OFFCURVE",
"331 -7 OFFCURVE",
"354 -3 CURVE",
"371 109 LINE",
"353 107 OFFCURVE",
"337 106 OFFCURVE",
"325 106 CURVE SMOOTH",
"268 106 OFFCURVE",
"244 135 OFFCURVE",
"249 194 CURVE SMOOTH",
"279 567 LINE SMOOTH",
"283 612 OFFCURVE",
"255 640 OFFCURVE",
"207 640 CURVE SMOOTH",
"159 640 OFFCURVE",
"127 612 OFFCURVE",
"123 567 CURVE SMOOTH"
);
},
{
closed = 1;
nodes = (
"331 375 LINE SMOOTH",
"380 375 OFFCURVE",
"405 394 OFFCURVE",
"405 437 CURVE SMOOTH",
"405 470 OFFCURVE",
"383 491 OFFCURVE",
"340 491 CURVE SMOOTH",
"79 491 LINE SMOOTH",
"31 491 OFFCURVE",
"4 472 OFFCURVE",
"4 430 CURVE SMOOTH",
"4 396 OFFCURVE",
"27 375 OFFCURVE",
"70 375 CURVE SMOOTH"
);
}
);
};
layerId = "E1B555A7-F4E1-459C-9C1A-AE952106EEF9";
paths = (
{
closed = 1;
nodes = (
"358 -8 OFFCURVE",
"387 10 OFFCURVE",
"387 60 CURVE SMOOTH",
"387 89 OFFCURVE",
"373 109 OFFCURVE",
"352 109 CURVE SMOOTH",
"340 109 OFFCURVE",
"324 106 OFFCURVE",
"310 106 CURVE SMOOTH",
"265 106 OFFCURVE",
"244 136 OFFCURVE",
"249 194 CURVE SMOOTH",
"279 567 LINE SMOOTH",
"283 612 OFFCURVE",
"255 640 OFFCURVE",
"207 640 CURVE SMOOTH",
"159 640 OFFCURVE",
"127 612 OFFCURVE",
"123 567 CURVE SMOOTH",
"93 194 LINE SMOOTH",
"82 64 OFFCURVE",
"147 -8 OFFCURVE",
"274 -8 CURVE SMOOTH"
);
},
{
closed = 1;
nodes = (
"331 375 LINE SMOOTH",
"381 375 OFFCURVE",
"405 395 OFFCURVE",
"405 437 CURVE SMOOTH",
"405 471 OFFCURVE",
"381 491 OFFCURVE",
"340 491 CURVE SMOOTH",
"79 491 LINE SMOOTH",
"29 491 OFFCURVE",
"4 471 OFFCURVE",
"4 430 CURVE SMOOTH",
"4 395 OFFCURVE",
"28 375 OFFCURVE",
"70 375 CURVE SMOOTH"
);
}
);
width = 390;
}
);
leftKerningGroup = t;
rightKerningGroup = t;
unicode = 0074;
userData = {
anchors = (
);
b = {
};
com.typemytype.robofont.layerData = {
b = {
anchors = (
);
components = (
);
contours = (
{
points = (
{
segmentType = curve;
smooth = 1;
x = 317;
y = 0;
},
{
smooth = 0;
x = 358;
y = 0;
},
{
smooth = 0;
x = 398;
y = 27;
},
{
segmentType = curve;
smooth = 1;
x = 398;
y = 79;
},
{
segmentType = line;
smooth = 0;
x = 398;
y = 876;
},
{
segmentType = line;
smooth = 1;
x = 578;
y = 876;
},
{
smooth = 0;
x = 621;
y = 876;
},
{
smooth = 0;
x = 634;
y = 897;
},
{
segmentType = curve;
smooth = 1;
x = 634;
y = 928;
},
{
smooth = 0;
x = 634;
y = 957;
},
{
smooth = 0;
x = 621;
y = 981;
},
{
segmentType = curve;
smooth = 1;
x = 578;
y = 981;
},
{
segmentType = line;
smooth = 0;
x = 398;
y = 981;
},
{
segmentType = line;
smooth = 1;
x = 398;
y = 1053;
},
{
smooth = 0;
x = 398;
y = 1285;
},
{
smooth = 0;
x = 432;
y = 1318;
},
{
segmentType = curve;
smooth = 1;
x = 544;
y = 1318;
},
{
segmentType = line;
smooth = 1;
x = 629;
y = 1318;
},
{
smooth = 0;
x = 706;
y = 1318;
},
{
smooth = 0;
x = 703;
y = 1438;
},
{
segmentType = curve;
smooth = 1;
x = 630;
y = 1438;
},
{
segmentType = line;
smooth = 1;
x = 510;
y = 1438;
},
{
smooth = 0;
x = 357;
y = 1438;
},
{
smooth = 0;
x = 238;
y = 1371;
},
{
segmentType = curve;
smooth = 1;
x = 238;
y = 1112;
},
{
segmentType = line;
smooth = 0;
x = 238;
y = 981;
},
{
segmentType = line;
smooth = 1;
x = 98;
y = 981;
},
{
smooth = 0;
x = 55;
y = 981;
},
{
smooth = 0;
x = 39;
y = 957;
},
{
segmentType = curve;
smooth = 1;
x = 39;
y = 928;
},
{
smooth = 0;
x = 39;
y = 899;
},
{
smooth = 0;
x = 55;
y = 876;
},
{
segmentType = curve;
smooth = 1;
x = 98;
y = 876;
},
{
segmentType = line;
smooth = 0;
x = 238;
y = 876;
},
{
segmentType = line;
smooth = 1;
x = 238;
y = 79;
},
{
smooth = 0;
x = 238;
y = 26;
},
{
smooth = 0;
x = 278;
y = 0;
}
);
}
);
lib = {
};
name = t;
unicodes = (
);
width = 706;
};
};
components = (
);
contours = (
);
lib = {
};
name = t;
unicodes = (
);
width = 768;
};
},
{
glyphname = tbar;
layers = (
{
background = {
paths = (
{
closed = 1;
nodes = (
"309 226 LINE SMOOTH",
"352 226 OFFCURVE",
"378 248 OFFCURVE",
"378 286 CURVE SMOOTH",
"378 316 OFFCURVE",
"357 334 OFFCURVE",
"318 334 CURVE SMOOTH",
"87 334 LINE SMOOTH",
"44 334 OFFCURVE",
"17 312 OFFCURVE",
"17 276 CURVE SMOOTH",
"17 244 OFFCURVE",
"39 226 OFFCURVE",
"78 226 CURVE SMOOTH"
);
}
);
};
layerId = "E1B555A7-F4E1-459C-9C1A-AE952106EEF9";
paths = (
{
closed = 1;
nodes = (
"363 -8 OFFCURVE",
"392 10 OFFCURVE",
"392 60 CURVE SMOOTH",
"392 89 OFFCURVE",
"378 109 OFFCURVE",
"357 109 CURVE SMOOTH",
"345 109 OFFCURVE",
"329 106 OFFCURVE",
"315 106 CURVE SMOOTH",
"270 106 OFFCURVE",
"249 136 OFFCURVE",
"254 194 CURVE SMOOTH",
"284 567 LINE SMOOTH",
"288 612 OFFCURVE",
"260 640 OFFCURVE",
"212 640 CURVE SMOOTH",
"164 640 OFFCURVE",
"132 612 OFFCURVE",
"128 567 CURVE SMOOTH",
"98 194 LINE SMOOTH",
"88 64 OFFCURVE",
"152 -8 OFFCURVE",
"279 -8 CURVE SMOOTH"
);
},
{
closed = 1;
nodes = (
"309 226 LINE SMOOTH",
"352 226 OFFCURVE",
"378 246 OFFCURVE",
"378 284 CURVE SMOOTH",
"378 314 OFFCURVE",
"357 334 OFFCURVE",
"318 334 CURVE SMOOTH",
"87 334 LINE SMOOTH",
"44 334 OFFCURVE",
"17 315 OFFCURVE",
"17 279 CURVE SMOOTH",
"17 247 OFFCURVE",
"39 226 OFFCURVE",
"78 226 CURVE SMOOTH"
);
},
{
closed = 1;
nodes = (
"336 375 LINE SMOOTH",
"386 375 OFFCURVE",
"410 395 OFFCURVE",
"410 437 CURVE SMOOTH",
"410 471 OFFCURVE",
"386 491 OFFCURVE",
"345 491 CURVE SMOOTH",
"84 491 LINE SMOOTH",
"34 491 OFFCURVE",
"9 471 OFFCURVE",
"9 430 CURVE SMOOTH",
"9 395 OFFCURVE",
"33 375 OFFCURVE",
"75 375 CURVE SMOOTH"
);
}
);
width = 400;
}
);
leftKerningGroup = t;
rightKerningGroup = t;
unicode = 0167;
userData = {
com.typemytype.robofont.layerData = {
b = {
anchors = (
);
components = (
);
contours = (
);
lib = {
};
name = tbar;
unicodes = (
);
width = 706;
};
};
};
},
